<?xml version="1.0" encoding="utf-8"?>
<!-- Generator: Adobe Illustrator 24.0.2, SVG Export Plug-In . SVG Version: 6.00 Build 0)  -->
<svg version="1.1" id="Capa_1" xmlns="http://www.w3.org/2000/svg" xmlns:xlink="http://www.w3.org/1999/xlink" x="0px" y="0px"
	 viewBox="0 0 371.4 371.73" style="enable-background:new 0 0 371.4 371.73;" xml:space="preserve">
<style type="text/css">
	.st0{fill:#274885;}
	.st1{fill:#FFFFFF;}
	.st2{fill-rule:evenodd;clip-rule:evenodd;fill:#FFFFFF;}
	.st3{fill:#DDA223;}
	.st4{fill:#FBFBFB;}
	.st5{fill:#274886;}
	.st6{fill:#5473B3;}
</style>
<g>
	<path class="st1" d="M48.08,371.73c-2.21-42.3,12.82-75.37,50.05-96.87c11.62-6.71,24.64-9.29,37.5-12.3
		c4.25-0.99,8.53-1.86,12.7-3.1c1.12-0.33,2.45-1.67,2.75-2.8c1.03-3.85,3.06-8.26,2-11.6c-0.99-3.1-5.4-5.15-8.37-7.58
		c-12.43-10.2-20.25-23.2-23.63-39.15c-2.24-0.31-4.57-0.53-6.85-0.97c-18.68-3.56-29.23-23.33-21.96-40.87
		c0.69-1.67,0.91-3.87,0.5-5.62c-1.48-6.3-3.33-12.51-5.08-18.88c-1.6,0-2.96,0-4.33,0c-23.2,0-46.41,0.01-69.61,0
		c-8.95-0.01-13.65-4.69-13.65-13.61c-0.01-35-0.01-69.99,0-104.99c0-8.59,4.84-13.39,13.49-13.39C56.49,0,99.4,0,142.31,0.01
		c8.69,0,13.44,4.74,13.46,13.43c0.02,12.74,0.01,25.48,0.01,38.87c4.61-1.63,8.92-3,13.12-4.65c17.39-6.86,34.88-7.72,52.56-1.23
		c10.86,3.99,20.15,10.31,27.98,18.82c0.73,0.8,1.49,1.57,2.46,2.59c-3.26-35.08,19.1-57.46,40.17-64.64
		c24.45-8.33,51.66,0.01,67.22,20.75c15.61,20.81,16.03,49.17,1.26,70.42c-13.17,18.95-41.14,33.57-73.13,20.71
		c-0.87,4.65-1.48,9.31-2.64,13.83c-1.85,7.25-4.1,14.39-6.06,21.61c-0.36,1.32-0.6,3.08-0.03,4.2
		c9.76,19.18-3.92,43.14-26.99,43.31c-0.36,0-0.71,0.15-1.31,0.28c-1.87,8.65-5.07,16.83-10.06,24.27
		c-5.37,8-12.11,14.59-20.33,19.58c-1.81,1.1-2.35,2.18-1.81,4.22c1.07,4.09,0.67,9.43,3.17,12.03c2.49,2.59,7.79,2.48,11.87,3.52
		c2.02,0.52,4.06,0.96,6.18,1.46c-2.9-40.99,30.25-70.03,62.6-71.34c33.34-1.35,61.42,20.85,68.2,53.67
		c6.36,30.79-13.02,69.71-52.97,77.5c1.81,7.97,4.17,15.87,5.26,23.95c1.08,8,0.89,16.17,1.27,24.55
		C231.66,371.73,140.05,371.73,48.08,371.73z M132.43,148.61c0,15.32-1.28,30.17,0.27,44.72c2.99,28.12,28.36,48.29,56.53,46.59
		c27.63-1.67,50.03-25.23,50.33-53.2c0.19-17.48,0.11-34.97,0.02-52.45c-0.05-11.78-8.68-20.16-20.4-20.27
		c-16.33-0.16-30.63,5.73-44.07,14.43C161.7,137.1,147.9,145.02,132.43,148.61z M269.07,142.22c1.53-6.04,3.36-12.38,4.68-18.84
		c0.95-4.63,1.53-9.38,1.7-14.1c0.37-10.24-6.12-19.34-16.16-20.1c-6.67-0.51-9.55-4.02-12.72-8.44c-1.24-1.72-2.54-3.4-3.87-5.05
		c-14.78-18.3-40.04-26.47-62.31-19.15c-20.92,6.88-41.64,14.44-62.21,22.32C106.02,83.52,98.81,93,96.46,105.91
		c-2.37,13.05,4.18,24.47,6.25,36.14c5.51-1.42,10.5-3.71,15.51-3.79c9.38-0.15,18.11-2.47,26.23-6.53
		c10.45-5.23,20.49-11.31,30.58-17.24c13.96-8.22,28.9-12.68,45.15-12.46c15.25,0.2,28.11,11.05,30.77,26.07
		c0.56,3.16,0.64,6.4,0.89,9.05C257.51,138.81,262.93,140.41,269.07,142.22z M143.8,12.28c-44.15,0-87.85,0-131.55,0
		c0,35.97,0,71.67,0,107.53c24.2,0,48.22,0,72.24,0c-0.27-4-0.52-7.79-0.79-11.95c-15.94,0-31.72,0-47.5,0c0-12.08,0-23.78,0-35.9
		c7.95,0,15.73,0,23.91,0c0-8.2,0-16,0-24.06c8.1,0,15.79,0,23.88,0c0-8.07,0-15.86,0-23.61c12.18,0,23.95,0,35.99,0
		c0,13.72,0,27.15,0,40.96c7.61-2.74,14.88-5.3,22.09-8.02c0.76-0.29,1.66-1.53,1.66-2.33C143.82,40.78,143.8,26.66,143.8,12.28z
		 M303.32,299.97c2.07,3.11,4.05,5.42,5.29,8.09c1.53,3.3,3.75,3.64,6.91,3.01c29.41-5.89,48.95-34.96,42.8-63.79
		c-6.42-30.1-35.33-48.64-65.18-41.81c-25.32,5.79-43.17,29.88-41.44,55.87c0.22,3.25,0.77,5.45,4.75,6.63
		c15.6,4.59,28.99,13.08,40.31,24.8c0.72,0.75,1.52,1.44,2.75,2.6c0-2.29,0.25-3.94-0.07-5.47c-0.28-1.36-0.85-3.17-1.88-3.79
		c-8.2-4.95-11.49-12.23-9.56-21.83c3.79,0,7.58,0,11.34,0c0.71,11.23,2.34,12.77,11.81,11.35c1.19-6.8,0.1-11.69-8.52-12.07
		c-7.86-0.35-14.16-7.25-14.83-15.07c-0.57-6.66-0.12-13.41-0.12-20.53c3.98,0,7.77,0,11.96,0c0-4.2,0-7.99,0-11.77
		c4.11,0,7.8,0,11.84,0c0,3.64-0.14,7.12,0.08,10.57c0.07,1.09,0.86,2.56,1.77,3.11c8.33,5.04,11.34,11.64,9.72,21.9
		c-3.77,0-7.56,0-11.32,0c-1.05-11.29-3.4-13.43-12.08-11.2c-0.57,9.41-0.19,9.82,8.98,11.73c7.2,1.5,12.82,5.69,13.89,12.96
		c1.08,7.37,0.24,15.03,0.24,22.85c-3.54,0-7.24,0-11.33,0c0,4.07,0,7.87,0,11.86C308.68,299.97,306.34,299.97,303.32,299.97z
		 M168.01,359.87c-0.53-0.95-0.73-1.39-1-1.78c-17.17-25-34.36-49.98-51.47-75.03c-1.28-1.87-2.36-2.01-4.28-1.15
		c-26.84,11.96-43.47,32.29-49.66,61.03c-1.18,5.49-1.33,11.21-1.97,16.93C96.18,359.87,131.82,359.87,168.01,359.87z M311.3,359.89
		c0.07-0.84,0.14-1.32,0.15-1.81c0.38-32.12-21.53-64.54-51.36-76.25c-2.39-0.94-3.27-0.07-4.45,1.64
		c-16.85,24.61-33.75,49.19-50.62,73.78c-0.51,0.75-0.88,1.61-1.43,2.63C239.68,359.89,275.32,359.89,311.3,359.89z M296.57,42.12
		c-3.91,11.28-3.99,22.55-0.62,33.85c0.26,0.88,1.86,1.92,2.86,1.94c8.47,0.15,16.94,0.14,25.41,0.01c0.93-0.01,2.44-0.9,2.68-1.69
		c3.48-11.4,3.4-22.77-0.52-34.12C316.34,42.12,306.52,42.12,296.57,42.12z M165.03,248.59c-0.74,3.62-1.59,6.87-1.97,10.17
		c-0.13,1.11,0.61,2.87,1.52,3.45c6.3,4,12.71,7.84,19.2,11.52c1.02,0.58,2.93,0.55,3.95-0.03c6.49-3.68,12.87-7.57,19.22-11.49
		c0.8-0.49,1.8-1.7,1.69-2.43c-0.55-3.64-1.43-7.23-2.26-11.17C192.48,253.1,178.88,253.11,165.03,248.59z M245.41,277.21
		c-9.39-2.24-17.97-4.32-26.57-6.3c-1.02-0.23-2.37-0.29-3.22,0.2c-5.88,3.39-11.68,6.94-18.03,10.76
		c10.95,6.27,21.37,12.24,32.02,18.34C234.86,292.58,239.97,285.13,245.41,277.21z M141.84,300.23
		c10.78-6.19,21.18-12.16,31.98-18.35c-2.41-1.46-4.4-2.33-5.98-3.69c-8.41-7.27-17.59-8.42-27.87-4.43
		c-4.29,1.66-8.97,2.3-13.77,3.48c0.91,1.44,1.47,2.4,2.1,3.32C132.74,287.02,137.18,293.47,141.84,300.23z M178.13,324.11
		c-1.94,6.67-3.88,13.34-5.82,20c3.01,4.55,6.02,9.1,9.03,13.66c0.07,0.1,0.13,0.21,0.21,0.31c2.04,2.79,6.35,2.81,8.34-0.02
		c2.79-3.97,5.55-7.96,8.21-12.02c0.55-0.84,1.02-2.14,0.78-3.02c-1.77-6.33-3.74-12.6-5.65-18.91
		C188.12,324.11,183.29,324.11,178.13,324.11z M283.97,42.01c-5.31,0-10.15-0.1-14.99,0.09c-0.88,0.04-2.18,1.09-2.51,1.97
		c-3.9,10.58-3.94,21.22,0.02,31.81c0.3,0.81,1.13,1.99,1.75,2.01c5.13,0.16,10.27,0.09,15.72,0.09
		C280.79,65.8,280.79,54.19,283.97,42.01z M338.96,78c5.37,0,10.22,0.1,15.06-0.09c0.87-0.04,2.15-1.13,2.47-2.02
		c3.87-10.59,3.91-21.25-0.02-31.84c-0.32-0.87-1.63-1.92-2.52-1.95c-4.84-0.19-9.69-0.09-14.93-0.09
		C342.11,54.02,342.22,65.74,338.96,78z M251.75,185.68c9.7,0.71,18.09-7.57,18.08-17.68c0-10.12-8.43-18.42-18.08-17.66
		C251.75,162.11,251.75,173.9,251.75,185.68z M119.66,150.19c-10.24,0.03-18.18,8.48-17.75,18.69c0.4,9.53,8.96,17.61,17.75,16.7
		C119.66,173.78,119.66,161.99,119.66,150.19z M201.58,298.02c-4.96-2.85-9.78-5.66-14.67-8.35c-0.63-0.35-1.78-0.34-2.42,0.01
		c-4.88,2.69-9.69,5.51-14.64,8.35c2.26,4.24,4.26,8.26,6.56,12.1c0.55,0.93,2.05,1.74,3.16,1.79c4.1,0.21,8.22,0.21,12.32,0
		c1.1-0.06,2.59-0.89,3.15-1.81C197.33,306.26,199.33,302.25,201.58,298.02z M107.87,36.25c-4.18,0-7.96,0-11.65,0
		c0,14.59,0,28.94,0,43.21c3.49-2.74,6.87-5.28,10.09-8.01c0.8-0.68,1.49-1.99,1.5-3.02C107.91,57.81,107.87,47.2,107.87,36.25z
		 M83.65,95.83c0-12.08,0-23.86,0-35.53c-4.05,0-7.83,0-11.52,0c0,11.99,0,23.68,0,35.53C76.02,95.83,79.71,95.83,83.65,95.83z
		 M159.41,304c-3.71,2.12-7.1,4.06-10.78,6.17c4.92,7.14,9.62,13.98,14.77,21.45c1.2-4.03,2.15-6.98,2.93-9.98
		c0.33-1.27,0.83-2.88,0.34-3.9C164.49,313.17,161.97,308.76,159.41,304z M208.58,330.86c4.68-6.83,9.38-13.69,14.2-20.72
		c-3.81-2.17-7.12-4.06-10.42-5.94C206.54,312.51,201.29,320.63,208.58,330.86z M301.22,90.16c3.6,5.34,6.74,9.99,10.32,15.29
		c3.63-5.54,6.66-10.17,10.02-15.29C314.56,90.16,308.39,90.16,301.22,90.16z M301.34,29.81c7.11,0,13.28,0,20.3,0
		c-3.46-5.2-6.57-9.87-10.17-15.29C307.86,19.97,304.8,24.59,301.34,29.81z M296.37,14.53c-8.93,3.1-15.92,7.95-22.17,15.47
		c4.79,0,8.63,0.06,12.46-0.05c0.71-0.02,1.73-0.54,2.06-1.13C291.24,24.29,293.63,19.68,296.37,14.53z M326.51,14.48
		c2.72,5.07,5.04,9.45,7.44,13.78c0.38,0.68,1.11,1.62,1.71,1.64c4.11,0.14,8.23,0.08,13.07,0.08
		C342.44,22.43,335.46,17.6,326.51,14.48z M348.83,90.01c-4.8,0-8.62-0.08-12.44,0.06c-0.79,0.03-1.89,0.68-2.28,1.37
		c-2.51,4.44-4.86,8.96-7.51,13.94C335.46,102.54,342.33,97.52,348.83,90.01z M59.77,95.84c0-4.12,0-7.82,0-11.61
		c-3.97,0-7.74,0-11.52,0c0,4.02,0,7.79,0,11.61C52.2,95.84,55.88,95.84,59.77,95.84z M296.22,104.92
		c-2.04-3.63-4.06-7.05-5.9-10.57c-2.6-4.96-2.54-4.99-8.07-3.88C285.19,96.83,286.86,104.4,296.22,104.92z"/>
	<path class="st1" d="M41.98,295.86c-11.53-9.71-23.04-18.88-33.94-28.73c-9.39-8.49-10.54-22.67-3.57-33.21
		c6.99-10.59,20.79-15.01,32.66-9.97c3.47,1.48,6.06,1.63,9.61,0.08c12.07-5.27,26.24-0.58,33.1,10.41
		c6.94,11.12,5.03,25.08-5.12,33.93C64.11,277.62,53.16,286.5,41.98,295.86z M42.28,243.13c-1.86-2.01-2.94-3.21-4.06-4.37
		c-6.2-6.44-16.42-6.46-22.31-0.06c-5.86,6.36-5,15.48,2.08,21.43c7.06,5.94,14.15,11.83,21.24,17.73c0.92,0.77,1.89,1.47,2.88,2.25
		c8.24-6.88,16.21-13.46,24.1-20.14c6.87-5.81,7.66-14.93,1.96-21.19c-5.66-6.21-15.52-6.53-21.78-0.6
		C44.96,239.53,43.84,241.23,42.28,243.13z"/>
	<path class="st1" d="M155.16,194.86c3.28-1.65,6.6-3.32,10.26-5.17c4.31,8.33,10.74,13.69,20.5,13.7
		c9.63,0.01,16.15-4.99,20.53-13.75c3.51,1.76,6.9,3.45,10.25,5.13c-3.61,11.47-16.29,20.24-29.53,20.63
		C172.91,215.82,159.93,207.58,155.16,194.86z"/>
	<path class="st1" d="M155.67,173.97c-3.25-0.06-5.91-2.83-5.85-6.08c0.06-3.26,2.81-5.92,6.06-5.86c3.25,0.06,5.91,2.82,5.86,6.07
		C161.67,171.35,158.9,174.03,155.67,173.97z"/>
	<path class="st1" d="M221.62,167.9c0.06,3.24-2.62,6.02-5.86,6.07c-3.24,0.06-6-2.62-6.05-5.87c-0.06-3.26,2.6-6.01,5.85-6.07
		C218.8,161.97,221.56,164.64,221.62,167.9z"/>
</g>
</svg>
