<?xml version="1.0" encoding="utf-8"?>
<!-- Generator: Adobe Illustrator 24.0.2, SVG Export Plug-In . SVG Version: 6.00 Build 0)  -->
<svg version="1.1" id="Capa_1" xmlns="http://www.w3.org/2000/svg" xmlns:xlink="http://www.w3.org/1999/xlink" x="0px" y="0px"
	 viewBox="0 0 359.39 359.43" style="enable-background:new 0 0 359.39 359.43;" xml:space="preserve">
<style type="text/css">
	.st0{fill:#274885;}
	.st1{fill:#FFFFFF;}
	.st2{fill-rule:evenodd;clip-rule:evenodd;fill:#FFFFFF;}
	.st3{fill:#DDA223;}
	.st4{fill:#FBFBFB;}
	.st5{fill:#274886;}
	.st6{fill:#5473B3;}
</style>
<g>
	<path class="st1" d="M179.56,216.38c0.38-15.03,5.03-27.48,14.71-37.86c7.15-7.67,15.87-12.71,26.01-15.43
		c6.85-1.84,13.6-4,20.41-5.99c2.13-0.62,4.29-1.15,6.81-1.82c0.5-2.81,1.2-5.96,1.55-9.15c0.09-0.8-0.72-2.05-1.47-2.54
		c-10.75-6.97-17.17-16.77-19.55-29.72c-8.21,0.45-16.28-0.14-18.19-10.33c-1.9-10.12,0.58-15.13,9.74-20.16
		c-1.69-1.33-3.1-2.51-4.59-3.59c-4.49-3.26-5.6-7.65-5.43-13.06c0.49-16.11,7.17-28.53,20.95-36.96
		c6.07-3.72,12.77-5.65,19.89-5.72c12.72-0.12,25.45-0.24,38.17,0.01c22.24,0.44,39.99,18.46,40.95,40.66
		c0.29,6.75-0.93,12.27-6.63,16.33c-0.97,0.69-1.68,1.75-1.97,2.07c2.65,2.86,6.22,5.11,7.26,8.21c1.36,4.06,1.68,9,0.75,13.18
		c-2.07,9.24-9.7,9.85-17.71,9.27c-0.48,1.92-0.85,3.71-1.37,5.46c-2.92,9.8-8.49,17.74-17.05,23.37c-2.31,1.52-3.34,2.84-2.47,5.65
		c0.73,2.34,0.87,4.86,1.21,6.98c2.96,0.81,5.58,1.5,8.19,2.26c6.21,1.82,12.35,3.89,18.61,5.48c24.08,6.12,40.97,27.29,41.02,52.11
		c0.1,45.55,0.04,91.09,0.03,136.64c0,5.64-2.05,7.73-7.62,7.73c-51.03,0.01-102.05,0.02-153.08-0.01
		c-11.4-0.01-18.93-7.62-18.97-19.07c-0.04-11.85,0.08-23.71-0.09-35.56c-0.03-2.08-0.68-4.46-1.83-6.18
		c-25.57-38.55-51.28-77.01-76.86-115.55c-1.62-2.44-3.28-3.45-6.27-3.42c-7.47,0.07-15.04,0.41-22.38-0.68
		c-13.15-1.94-22.95-13.13-24.24-26.36c-0.61-6.31,1.61-8.81,7.92-8.81c18.84-0.01,37.68-0.03,56.52,0
		c16.2,0.03,27.7,9.61,30.76,25.49c0.23,1.18,0.67,2.46,1.4,3.38C156.03,187,167.5,201.3,179.56,216.38z M347.29,275.56
		c0-21.48,0.49-42.45-0.15-63.37c-0.52-16.92-12.83-31.67-28.89-36.9c-2.87-0.93-4.58-0.63-6.44,2.08
		c-7.13,10.38-14.67,20.47-21.81,30.84c-1.18,1.72-1.87,4.4-1.54,6.45c3.41,21.41,7.03,42.79,10.72,64.16
		c0.56,3.28-0.14,5.79-2.49,8.11c-7.29,7.18-14.47,14.47-21.73,21.67c-4,3.97-6.86,3.95-10.87-0.04
		c-7.16-7.13-14.23-14.35-21.47-21.4c-2.59-2.53-3.27-5.18-2.65-8.75c3.69-21.24,7.26-42.5,10.64-63.79
		c0.32-2.04-0.38-4.73-1.57-6.45c-7.29-10.57-14.91-20.92-22.28-31.43c-1.38-1.96-2.59-2.46-4.9-1.69
		c-16.36,5.45-26.6,16.48-29.39,33.51c-1.2,7.31-0.67,14.91-0.75,22.39c-0.03,3.55-0.2,6.89-4.17,8.28
		c-3.85,1.35-5.97-1.15-8.08-3.8c-13.06-16.39-26.37-32.57-39.13-49.19c-3.8-4.95-7.64-7.46-13.93-6.63
		c-4.18,0.55-8.49,0.1-13.3,0.1c1.24,1.89,1.97,3.04,2.73,4.17c24.47,36.73,48.97,73.44,73.32,110.25c1.47,2.23,2.36,5.25,2.41,7.93
		c0.25,12.22,0.11,24.45,0.11,36.68c0,6.93,1.72,8.7,8.52,8.7c35.68,0,71.35,0,107.03,0c1.32,0,2.65,0,4.23,0c0-1.81,0-3.16,0-4.51
		c0-19.84-0.01-39.67,0.01-59.51c0-5.88,1.98-7.85,7.85-7.86C328.52,275.55,337.72,275.56,347.29,275.56z M239.65,76.58
		c0,11.42-0.44,22.53,0.1,33.6c0.77,15.69,14.5,27.84,30.34,27.59c15.72-0.24,28.89-13.01,29.29-28.75
		c0.26-10.35,0.14-20.71-0.01-31.06c-0.02-1.14-1.05-2.76-2.07-3.32c-4.8-2.63-9.73-5.05-14.69-7.37c-1.14-0.53-2.7-0.76-3.9-0.46
		C265.77,69.96,252.86,73.25,239.65,76.58z M227.25,74.46c1.05-7.27,1.28-7.48,8.72-9.33c14.01-3.48,27.98-7.14,42.05-10.38
		c2.53-0.58,5.7-0.14,8.12,0.89c6.17,2.64,12.04,5.97,18.11,8.87c4.3,2.05,8.42,4.08,7.72,10.44c2.31-2.56,5.13-5.09,5.27-7.76
		c0.85-17.22-12.44-31.04-29.63-31.23c-12.09-0.13-24.19-0.13-36.28,0c-15.39,0.17-27.79,11.64-29.66,26.85
		C221.02,68.13,222.57,71.93,227.25,74.46z M323.69,287.71c0,20.04,0,39.79,0,59.43c8.04,0,15.81,0,23.5,0c0-19.96,0-39.61,0-59.43
		C339.32,287.71,331.64,287.71,323.69,287.71z M269.85,297.32c3.11-3.32,5.63-6.87,8.94-9.37c6.97-5.25,8.84-11.35,6.59-19.9
		c-2.42-9.2-3.37-18.78-4.95-28.15c-7.5,0-14.65,0-21.83,0c-2.09,12.42-4.18,24.56-6.14,36.73c-0.2,1.22-0.14,3.01,0.59,3.78
		C258.37,285.97,263.87,291.35,269.85,297.32z M301.71,171.06c-6.31-2.76-6.31-2.76-10.56,1.5c-5.37,5.38-10.72,10.78-16.11,16.14
		c-4.16,4.13-6.91,4.1-11.12-0.09c-5.56-5.54-11.09-11.11-16.64-16.67c-3.86-3.87-4.4-3.91-9.62-0.7c0.11,0.22,0.18,0.47,0.32,0.67
		c4.69,6.6,9.34,13.23,14.09,19.79c2.9,4.02,5.17,9.48,9.14,11.46c4,2,9.75,0.49,14.73,0.52c0.25,0,0.54,0.08,0.74-0.02
		c0.94-0.45,2.19-0.7,2.73-1.46C286.87,191.92,294.22,181.57,301.71,171.06z M61.51,155.91c1.87,7.01,8.66,11.78,16.8,11.8
		c16.44,0.05,32.88,0.02,49.32,0.01c0.82,0,1.65-0.1,2.52-0.15c-1.84-6.89-8.58-11.77-16.43-11.8c-16.69-0.07-33.38-0.03-50.07-0.02
		C62.96,155.76,62.26,155.86,61.51,155.91z M270.04,177.2c3.34-3.5,6.7-6.97,9.97-10.53c0.51-0.55,0.86-1.58,0.75-2.32
		c-0.75-5.11-1.65-10.2-2.44-14.95c-6.17,0-11.82,0-17.45,0c-3.69,16.33-3.69,16.33,8.03,27.12
		C268.99,176.61,269.11,176.65,270.04,177.2z M276.41,215.8c-4.84,0-9.17,0-13.77,0c-0.66,3.92-1.3,7.74-1.96,11.68
		c6.12,0,11.81,0,17.72,0C277.72,223.52,277.08,219.76,276.41,215.8z M221.76,101.57c2.12,0,3.9,0,5.67,0c0-1.97,0-3.66,0-5.52
		c-1.96,0-3.74,0-5.67,0C221.76,97.95,221.76,99.65,221.76,101.57z M311.63,96c0,2.11,0,3.81,0,5.63c1.97,0,3.75,0,5.56,0
		c0-2,0-3.79,0-5.63C315.25,96,313.56,96,311.63,96z"/>
	<path class="st1" d="M89.65,131.79c-23.33,0-46.65,0.01-69.98,0c-12.24-0.01-19.65-7.35-19.65-19.49C0,81.35,0,50.41,0.01,19.47
		C0.02,7.49,7.43,0.02,19.32,0.01C66.34,0,113.37,0,160.4,0.01c11.73,0,19.26,7.46,19.27,19.11c0.03,31.19,0.03,62.38,0,93.57
		c-0.01,11.64-7.55,19.08-19.3,19.09C136.8,131.81,113.22,131.79,89.65,131.79z M89.85,119.81c23.21,0,46.42,0,69.62,0
		c6.36,0,8.23-1.88,8.23-8.24c0.01-30.45,0.01-60.9,0-91.35c0-6.36-1.87-8.23-8.24-8.23c-46.42,0-92.83,0-139.25,0
		c-6.37,0-8.23,1.86-8.23,8.24c-0.01,30.45-0.01,60.9,0,91.35c0,6.37,1.87,8.23,8.24,8.23C43.43,119.82,66.64,119.81,89.85,119.81z"
		/>
	<path class="st1" d="M8.32,324.39c-1.26-0.36-2.33-0.66-3.39-0.98c-3.29-0.97-4.95-3.13-4.94-6.6c0.03-7.36-0.02-14.72,0.02-22.08
		c0.02-4.38,1.35-6.07,5.49-7.23c0.83-0.23,1.65-0.51,2.76-0.85c-0.51-0.99-0.88-1.84-1.36-2.63c-2.06-3.38-1.55-6.3,1.29-9.05
		c4.48-4.34,8.84-8.8,13.25-13.21c5.7-5.7,6.05-5.76,13.17-2.12c0.19-0.11,0.49-0.18,0.55-0.33c2.8-7.7,2.8-7.7,11.26-7.7
		c4.87,0,9.73,0,14.6,0c8.72,0,8.72,0,11.93,8.21c1.08-0.58,2.13-1.15,3.19-1.71c2.75-1.45,5.32-1.21,7.54,0.99
		c5.58,5.53,11.17,11.06,16.66,16.68c3.56,3.64,1.35,7.11-0.9,10.7c1.21,0.4,2.21,0.79,3.23,1.07c3.49,0.94,5.17,3.18,5.15,6.81
		c-0.04,7.36-0.06,14.72,0.01,22.08c0.03,3.78-1.62,6.14-5.32,7.05c-0.95,0.23-1.88,0.59-2.99,0.94c0.61,1.13,1.11,2.1,1.65,3.06
		c1.6,2.85,1.4,5.52-0.92,7.86c-5.44,5.5-10.92,10.96-16.39,16.42c-3.76,3.75-7.3,1.51-11-0.73c-0.37,1.24-0.71,2.28-1,3.32
		c-0.93,3.29-3.03,5.05-6.51,5.04c-7.61,0-15.22-0.01-22.83,0c-3.48,0-5.59-1.73-6.52-5.03c-0.3-1.05-0.63-2.08-0.99-3.28
		c-1.33,0.73-2.39,1.37-3.51,1.9c-2.62,1.27-5.12,1.08-7.24-1.01c-5.59-5.52-11.15-11.08-16.68-16.66
		c-2.33-2.35-2.53-5.01-0.91-7.86C7.2,326.54,7.69,325.57,8.32,324.39z M11.99,298.52c0,2.26,0,4.62,0,6.97c0,2.44,0,4.89,0,6.92
		c4.12,2.19,9.32,0.97,11.33,5.87c2.02,4.95-3.07,7.75-3.96,12.47c1.55,1.4,3.44,2.86,5.03,4.59c1.59,1.73,2.88,3.74,3.81,4.97
		c5.39-1.45,8.13-6.21,13.01-4.19c4.96,2.05,3.55,7.51,5.76,11.31c3.79,0,7.64,0.01,11.5-0.01c0.86,0,1.72-0.09,2.47-0.14
		c2.13-3.78,0.74-9.21,5.79-11.24c4.95-1.99,7.73,3.13,12.44,3.97c1.24-1.39,2.58-3.03,4.06-4.54c5.16-5.22,5.18-5.2,1.84-11.65
		c-2.3-4.45-0.68-8.04,4.27-9.39c2.12-0.58,4.25-1.13,6.32-1.68c0-5.02,0-9.74,0-14.38c-13.09-4.55-13.09-4.55-7.34-17.34
		c-3.32-3.3-6.66-6.62-10.05-9.98c-3.99,0.99-6.83,5.95-11.82,3.79c-4.86-2.11-3.41-7.59-5.56-11.07c-4.86,0-9.56,0-14.31,0
		c-0.62,2.46-1.09,4.78-1.81,7.03c-1.32,4.15-5.02,5.68-8.9,3.72c-1.66-0.84-3.15-2.06-4.86-2.77c-0.78-0.33-2.21-0.24-2.81,0.28
		c-3.2,2.75-6.23,5.69-9.11,8.37C25.45,293.74,25.45,293.74,11.99,298.52z"/>
	<path class="st1" d="M48.1,215.4c0-9.98,0-19.65,0-29.51c3.86,0,7.55,0,11.52,0c0,9.73,0,19.49,0,29.51
		C55.91,215.4,52.13,215.4,48.1,215.4z"/>
	<path class="st1" d="M143.92,311.24c0-3.96,0-7.65,0-11.53c7.84,0,15.52,0,23.49,0c0,3.7,0,7.48,0,11.53
		C159.74,311.24,151.98,311.24,143.92,311.24z"/>
	<path class="st1" d="M59.71,239.46c-3.91,0-7.6,0-11.54,0c0-3.83,0-7.6,0-11.6c3.8,0,7.57,0,11.54,0
		C59.71,231.67,59.71,235.35,59.71,239.46z"/>
	<path class="st1" d="M131.57,311.33c-3.88,0-7.56,0-11.51,0c0-3.79,0-7.57,0-11.58c3.76,0,7.54,0,11.51,0
		C131.57,303.53,131.57,307.21,131.57,311.33z"/>
	<path class="st1" d="M155.56,48.12c0,3.9,0,7.59,0,11.54c-43.74,0-87.44,0-131.36,0c0-3.79,0-7.57,0-11.54
		C67.92,48.12,111.52,48.12,155.56,48.12z"/>
	<path class="st1" d="M155.51,83.69c-43.76,0-87.36,0-131.25,0c0-3.75,0-7.53,0-11.56c43.64,0,87.34,0,131.25,0
		C155.51,75.95,155.51,79.73,155.51,83.69z"/>
	<path class="st1" d="M155.55,96.1c0,3.97,0,7.66,0,11.54c-43.78,0-87.38,0-131.29,0c0-3.71,0-7.49,0-11.54
		C67.88,96.1,111.57,96.1,155.55,96.1z"/>
	<path class="st1" d="M155.57,24.23c0,3.93,0,7.62,0,11.51c-35.87,0-71.58,0-107.46,0c0-3.86,0-7.55,0-11.51
		C83.82,24.23,119.53,24.23,155.57,24.23z"/>
	<path class="st1" d="M35.77,24.23c0,3.97,0,7.65,0,11.53c-3.85,0-7.53,0-11.52,0c0-3.71,0-7.49,0-11.53
		C27.94,24.23,31.71,24.23,35.77,24.23z"/>
	<path class="st1" d="M54,329.47c-13.25,0.03-24.04-10.73-24.04-23.96c0-13.09,10.63-23.85,23.67-23.95
		c13.43-0.11,24.29,10.72,24.23,24.15C77.8,318.73,67.05,329.44,54,329.47z M65.87,305.42c-0.07-6.55-5.42-11.86-11.96-11.87
		c-6.66-0.01-12.11,5.56-11.96,12.23c0.14,6.52,5.6,11.77,12.14,11.69C60.57,317.4,65.94,311.91,65.87,305.42z"/>
</g>
</svg>
