<?xml version="1.0" encoding="utf-8"?>
<!-- Generator: Adobe Illustrator 24.0.2, SVG Export Plug-In . SVG Version: 6.00 Build 0)  -->
<svg version="1.1" id="Capa_1" xmlns="http://www.w3.org/2000/svg" xmlns:xlink="http://www.w3.org/1999/xlink" x="0px" y="0px"
	 viewBox="0 0 480.05 480.05" style="enable-background:new 0 0 480.05 480.05;" xml:space="preserve">
<style type="text/css">
	.st0{fill:#FFFFFF;}
</style>
<g>
	<g>
		<g>
			<path class="st0" d="M448.03,160.05h-104c-4.42,0-8,3.58-8,8v32c0,4.42,3.58,8,8,8h24c8.84,0,16,7.16,16,16s-7.16,16-16,16h-24
				c-4.42,0-8,3.58-8,8v40h-120c-4.42,0-8,3.58-8,8v104c0,17.67,14.33,32,32,32h208c17.67,0,32-14.33,32-32v-208
				C480.03,174.38,465.7,160.05,448.03,160.05z M336.03,416.05h-96c-8.84,0-16-7.16-16-16v-96h112v16h-16c-17.67,0-32,14.33-32,32
				s14.33,32,32,32h16V416.05z M464.03,400.05c0,8.84-7.16,16-16,16h-96v-40c0-4.42-3.58-8-8-8h-24c-8.84,0-16-7.16-16-16
				s7.16-16,16-16h24c4.42,0,8-3.58,8-8v-24h24v16c0,17.67,14.33,32,32,32s32-14.33,32-32v-16h24V400.05z M464.03,288.05h-32
				c-4.42,0-8,3.58-8,8v24c0,8.84-7.16,16-16,16s-16-7.16-16-16v-24c0-4.42-3.58-8-8-8h-32v-32h16c17.67,0,32-14.33,32-32
				s-14.33-32-32-32h-16v-16h96c8.84,0,16,7.16,16,16V288.05z"/>
		</g>
	</g>
	<g>
		<g>
			<path class="st0" d="M352.03,32.05h-16v-24c0-4.42-3.58-8-8-8h-104c-17.67,0-32,14.33-32,32v89.6l-33.1,16
				c-4.98-6.57-11.15-12.15-18.21-16.42c31.6-15.83,44.38-54.29,28.55-85.89S114.98-9.04,83.38,6.8S39,61.08,54.83,92.68
				c5.46,10.9,13.92,20.01,24.38,26.26c-16.75,8.17-29.11,23.21-33.89,41.22L13.45,260.52c-9.02,28.35-7.18,59.03,5.14,86.1
				c13.07,28.62,12.46,61.62-1.66,89.73L0.87,468.47c-1.98,3.95-0.37,8.76,3.58,10.73c1.11,0.55,2.34,0.84,3.58,0.84h88
				c4.42,0,8-3.58,8-8c0.02-14.85-8.22-28.47-21.39-35.34l3.82-7.63c11.58-23.28,15.35-49.67,10.74-75.26l-5.94-32.64
				c-0.76-4.21,2.04-8.24,6.25-9.01c0.45-0.08,0.91-0.12,1.36-0.12c3.74,0,6.96,2.67,7.63,6.35l10.86,59.78
				c1.76,9.71,2.65,19.56,2.65,29.42v64.45c0,4.42,3.58,8,8,8h88c4.42,0,8-3.58,8-8c0-1.56-0.09-3.11-0.27-4.66
				c-1.38-12.04-8.81-22.54-19.71-27.84c-8.92-4.55-19.26-5.46-28.85-2.56l5.33-26.62c2.33-11.66,3.5-23.51,3.5-35.4v-71.61
				l-9.34-107.13l55.51-26.49c10.26-4.56,17.1-14.49,17.7-25.7h80.13c4.42,0,8-3.58,8-8v-40h16c17.67,0,32-14.33,32-32
				S369.7,32.05,352.03,32.05z M64.03,64.05c0-26.51,21.49-48,48-48s48,21.49,48,48s-21.49,48-48,48
				C85.53,112.02,64.05,90.55,64.03,64.05z M175.19,454.3c6.66-3.78,14.78-3.96,21.6-0.47c4.37,2.12,7.83,5.75,9.73,10.22h-70.49
				V407.6c0-10.83-0.98-21.63-2.91-32.29l-10.86-59.77c-2.23-12.92-14.52-21.59-27.44-19.35c-12.92,2.23-21.59,14.52-19.35,27.44
				c0.02,0.14,0.05,0.27,0.07,0.4l5.94,32.64c3.98,22.18,0.71,45.06-9.33,65.24l-7.77,15.53c-2,3.94-0.43,8.76,3.51,10.76
				c0.55,0.28,1.14,0.5,1.74,0.64c7.88,1.86,14.29,7.58,17.02,15.2H20.97l10.26-20.54c16.29-32.43,17-70.49,1.92-103.5
				c-10.69-23.47-12.28-50.07-4.46-74.64l32-100.8c6.64-24.88,31.35-40.41,56.65-35.62c10.46,2.09,19.89,7.67,26.78,15.81
				l-47.28,22.84c-10.24,4.98-16.75,15.35-16.8,26.74c-0.04,16.37,13.2,29.68,29.57,29.72c4.47,0.01,8.88-0.99,12.9-2.92l36.8-17.54
				l8.72,100.46v70.92c-0.01,10.83-1.08,21.64-3.2,32.26l-8.53,42.61c-0.87,4.33,1.93,8.55,6.27,9.42c1.9,0.38,3.87,0.06,5.55-0.9
				L175.19,454.3z M223.65,155.15l-0.24,0.1l-107.8,51.43c-6.83,3.25-15,0.35-18.25-6.48c-0.88-1.84-1.33-3.85-1.33-5.88
				c0.02-5.25,3.02-10.03,7.74-12.33l108.66-52.48c4.32-1.93,9.33-1.51,13.27,1.1c3.98,2.56,6.37,6.98,6.33,11.71
				C232.02,147.89,228.74,152.92,223.65,155.15z M352.03,80.05h-24c-4.42,0-8,3.58-8,8v40h-75.61
				c-7.03-12.99-22.49-18.89-36.39-13.9v-82.1c0-8.84,7.16-16,16-16h96v24c0,4.42,3.58,8,8,8h24c8.84,0,16,7.16,16,16
				S360.86,80.05,352.03,80.05z"/>
		</g>
	</g>
	<g>
		<g>
			<path class="st0" d="M322.37,210.39l-26.34,26.34v-44.69h-16v60.69l-8,8l-8-8v-28.69h-16v12.69l-26.34-26.34l-11.31,11.31l56,56
				c3.12,3.12,8.19,3.12,11.31,0l56-56L322.37,210.39z"/>
		</g>
	</g>
	<g>
		<g>
			<rect x="248.03" y="192.05" class="st0" width="16" height="16"/>
		</g>
	</g>
	<g>
		<g>
			<rect x="248.03" y="160.05" class="st0" width="16" height="16"/>
		</g>
	</g>
	<g>
		<g>
			<rect x="280.03" y="160.05" class="st0" width="16" height="16"/>
		</g>
	</g>
</g>
</svg>
