<?xml version="1.0" encoding="utf-8"?>
<!-- Generator: Adobe Illustrator 24.0.2, SVG Export Plug-In . SVG Version: 6.00 Build 0)  -->
<svg version="1.1" id="Capa_1" xmlns="http://www.w3.org/2000/svg" xmlns:xlink="http://www.w3.org/1999/xlink" x="0px" y="0px"
	 viewBox="0 0 496 496" style="enable-background:new 0 0 496 496;" xml:space="preserve">
<style type="text/css">
	.st0{fill:#FFFFFF;}
</style>
<path class="st0" d="M496,414.21v-60.42l-23.14-5.91c-0.16-0.39-0.32-0.78-0.49-1.17l12.18-20.54l-42.73-42.73l-20.54,12.18
	c-0.39-0.17-0.79-0.33-1.17-0.49L414.21,272h-60.42l-5.91,23.14c-0.39,0.16-0.78,0.32-1.17,0.49l-20.54-12.18l-42.73,42.73
	l12.18,20.54c-0.17,0.39-0.33,0.79-0.49,1.17L272,353.79v60.42l23.14,5.91c0.16,0.39,0.32,0.78,0.49,1.17l-12.18,20.54l42.73,42.73
	l20.54-12.18c0.39,0.17,0.79,0.33,1.17,0.49l5.91,23.14h60.42l5.91-23.14c0.39-0.16,0.78-0.32,1.17-0.49l20.54,12.18l42.73-42.73
	l-12.18-20.54c0.17-0.39,0.33-0.79,0.49-1.17L496,414.21z M464.46,439.3l-25.15,25.15l-17.1-10.14l-3.85,1.84
	c-2.48,1.18-5.02,2.24-7.63,3.16l-4.03,1.43L401.79,480h-35.58l-4.91-19.26l-4.03-1.43c-2.61-0.91-5.15-1.98-7.63-3.16l-3.85-1.84
	l-17.1,10.14l-25.15-25.15l10.14-17.1l-1.84-3.85c-1.18-2.48-2.24-5.02-3.16-7.63l-1.43-4.03L288,401.79v-35.58l19.26-4.91
	l1.43-4.03c0.91-2.61,1.98-5.15,3.16-7.63l1.84-3.85l-10.14-17.1l25.15-25.15l17.1,10.14l3.85-1.84c2.48-1.18,5.02-2.24,7.63-3.16
	l4.03-1.43l4.91-19.27h35.58l4.91,19.26l4.03,1.43c2.61,0.91,5.15,1.98,7.63,3.16l3.85,1.84l17.1-10.14l25.15,25.15l-10.14,17.1
	l1.84,3.85c1.18,2.48,2.24,5.02,3.16,7.63l1.43,4.03l19.27,4.91v35.58l-19.26,4.91l-1.43,4.03c-0.91,2.61-1.98,5.15-3.16,7.63
	l-1.84,3.85L464.46,439.3z"/>
<path class="st0" d="M384,320c-35.29,0-64,28.71-64,64s28.71,64,64,64s64-28.71,64-64S419.29,320,384,320z M384,432
	c-26.47,0-48-21.53-48-48s21.53-48,48-48s48,21.53,48,48S410.47,432,384,432z"/>
<path class="st0" d="M384,352c-17.65,0-32,14.35-32,32s14.35,32,32,32s32-14.35,32-32S401.65,352,384,352z M384,400
	c-8.82,0-16-7.18-16-16s7.18-16,16-16s16,7.18,16,16S392.82,400,384,400z"/>
<path class="st0" d="M202.6,135.46c2.68,7.86,7.34,14.78,13.4,20.22v6.79l-38.04,14.26c-15.53,5.82-25.96,20.87-25.96,37.45V256h192
	v-41.82c0-16.58-10.43-31.63-25.95-37.46L280,162.46v-6.78c6.05-5.43,10.72-12.36,13.4-20.22c15.07-2.59,26.6-15.66,26.6-31.46V72
	c0-39.7-32.3-72-72-72s-72,32.3-72,72v32C176,119.79,187.53,132.87,202.6,135.46z M264,165.79l-16,26.66l-16-26.66v-0.59
	c5.02,1.79,10.38,2.8,16,2.8s10.98-1.02,16-2.8V165.79z M220.57,177.83l16.13,26.87l-16.02,8.01l-10.35-31.04L220.57,177.83z
	 M328,214.18V240H168v-25.82c0-9.95,6.26-18.98,15.57-22.47l11.76-4.41l15.99,47.98L248,216.95l36.67,18.34l15.99-47.98l11.77,4.41
	C321.74,195.2,328,204.22,328,214.18z M285.68,181.67l-10.35,31.05l-16.02-8.01l16.13-26.88L285.68,181.67z M248,152
	c-17.65,0-32-14.35-32-32V87.46c11.71-1.23,22.76-5.5,32-12.77c9.24,7.27,20.29,11.54,32,12.77V120C280,137.65,265.65,152,248,152z
	 M296,117.78V90.23c4.76,2.78,8,7.88,8,13.78S300.76,115,296,117.78z M248,16c30.87,0,56,25.12,56,56v4.45
	C299.27,73.7,293.86,72,288,72h-1.38c-12.46,0-24.17-4.85-32.97-13.66L248,52.68l-5.66,5.66C233.54,67.15,221.83,72,209.38,72H208
	c-5.86,0-11.27,1.7-16,4.45V72C192,41.12,217.13,16,248,16z M200,90.22v27.55c-4.76-2.78-8-7.88-8-13.78S195.24,93,200,90.22z"/>
<path class="st0" d="M0,496h160V288H0V496z M16,304h128v176H16V304z"/>
<path class="st0" d="M32,320h96v16H32V320z"/>
<path class="st0" d="M32,352h16v16H32V352z"/>
<path class="st0" d="M64,352h64v16H64V352z"/>
<path class="st0" d="M32,384h96v16H32V384z"/>
<path class="st0" d="M32,416h96v16H32V416z"/>
<path class="st0" d="M112,448h16v16h-16V448z"/>
<path class="st0" d="M32,448h64v16H32V448z"/>
<path class="st0" d="M213.66,357.66l-11.31-11.31L164.69,384l37.66,37.66l11.31-11.31L195.31,392H256v-16h-60.69L213.66,357.66z"/>
<path class="st0" d="M88,128c0-4.41,3.59-8,8-8h36.69l-18.34,18.34l11.31,11.31L163.31,112l-37.66-37.66l-11.31,11.31L132.69,104H96
	c-13.23,0-24,10.77-24,24v144h16V128z"/>
<path class="st0" d="M384,128v100.69l-18.34-18.34l-11.31,11.31L392,259.31l37.66-37.66l-11.31-11.31L400,228.69V128
	c0-13.23-10.77-24-24-24h-40v16h40C380.41,120,384,123.59,384,128z"/>
</svg>
