<?xml version="1.0" encoding="utf-8"?>
<!-- Generator: Adobe Illustrator 24.0.2, SVG Export Plug-In . SVG Version: 6.00 Build 0)  -->
<svg version="1.1" id="Capa_1" xmlns="http://www.w3.org/2000/svg" xmlns:xlink="http://www.w3.org/1999/xlink" x="0px" y="0px"
	 viewBox="0 0 384 383.26" style="enable-background:new 0 0 384 383.26;" xml:space="preserve">
<style type="text/css">
	.st0{fill:#274885;}
	.st1{fill:#FFFFFF;}
	.st2{fill-rule:evenodd;clip-rule:evenodd;fill:#FFFFFF;}
	.st3{fill:#DDA223;}
	.st4{fill:#FBFBFB;}
	.st5{fill:#274886;}
	.st6{fill:#5473B3;}
</style>
<g>
	<path class="st1" d="M0,15.72C2.42,7.96,6.93,2.23,15.3,0.47c1.93-0.41,3.97-0.45,5.95-0.46C66.63,0,112,0,157.38,0
		c14.21,0,21.78,7.5,21.84,21.62c0,1.11,0,2.22,0,3.89c1.63,0,3.07,0,4.51,0c23.87,0,47.75-0.05,71.62,0.1
		c1.85,0.01,4.16,0.95,5.47,2.25c25.45,25.23,50.8,50.56,76.1,75.95c1.1,1.1,2.11,2.91,2.12,4.4c0.12,31.31,0.09,62.63,0.08,93.94
		c0,0.6-0.1,1.2-0.17,2.01c-4.09,0-8.04,0-12.51,0c0-29.54,0-59.13,0-89.15c-25.81,0-51.12,0-76.78,0c0-25.7,0-50.97,0-76.49
		c-23.54,0-46.72,0-70.44,0c0,1.45,0,2.89,0,4.34c0,51.27,0.01,102.55-0.01,153.82c0,10.3-5.76,17.94-15.14,20
		c-2.05,0.45-4.22,0.44-6.33,0.44c-31.75,0.03-63.5,0.02-95.25,0.02c-1.47,0-2.94,0-4.62,0c0,51.21,0,102.04,0,153.12
		c89.36,0,178.66,0,268.37,0c0-25.29,0-50.54,0-76.1c4.43,0,8.45,0,12.68,0c0.07,0.96,0.2,1.8,0.2,2.64
		c0.01,28.32,0.01,56.64,0,84.96c0,0.5-0.08,0.99-0.13,1.49c-98,0-196,0-294,0c-0.05-1.62-0.13-3.24-0.13-4.85
		c-0.01-52.13-0.01-104.26-0.01-156.38c0-1.56,0-3.12,0-4.9c-9.11,0-17.6,0.13-26.09-0.04c-7.51-0.14-13.02-3.8-16.61-10.34
		c-0.82-1.49-1.45-3.09-2.16-4.64C0,139.98,0,77.85,0,15.72z M166.44,108.81c0-29.06,0-58.11,0-87.17c0-6.87-2.03-8.88-8.96-8.88
		c-45.23,0-90.47,0-135.7,0c-6.99,0-9.01,1.97-9.01,8.81c0,57.99,0,115.98,0,173.97c0,6.91,1.96,8.85,8.93,8.85
		c45.23,0,90.47,0,135.7,0c7.12,0,9.03-1.93,9.03-9.15C166.44,166.42,166.44,137.61,166.44,108.81z M262.62,101.83
		c18,0,35.81,0,52.88,0c-17.61-17.54-35.4-35.26-52.88-52.67C262.62,66.24,262.62,84.01,262.62,101.83z"/>
	<path class="st1" d="M384,220.07c-1.51,6.33-5.7,10.81-10.16,15.25c-34.42,34.24-68.74,68.58-103.17,102.81
		c-1.98,1.97-4.45,3.63-6.97,4.84c-9.67,4.62-19.49,8.95-29.19,13.51c-3.12,1.46-6.02,1.88-8.6-0.74c-2.59-2.63-2.12-5.64-0.6-8.64
		c0.06-0.11,0.13-0.22,0.18-0.33c5.04-10.84,8.79-22.57,15.5-32.26c6.57-9.49,16.13-16.92,24.43-25.21
		c28.17-28.14,56.35-56.26,84.55-84.37c7.35-7.33,17.19-8.6,25.25-3.47c4.96,3.16,7.2,8.03,8.79,13.37
		C384,216.58,384,218.33,384,220.07z M332.96,240.09c-1.06,1-1.97,1.83-2.84,2.7c-24.91,24.86-49.72,49.83-74.81,74.51
		c-5.86,5.77-7.72,13.27-11.08,20.26c7.57-3.54,15.36-5.99,21.52-12.28c24.1-24.6,48.64-48.78,73.05-73.09
		c1.05-1.04,2.42-1.76,3.73-2.69C338.95,245.98,336.11,243.19,332.96,240.09z M364.69,226.33c2.79-3.34,7.55-5.38,5.91-10.49
		c-0.6-1.87-2.83-4.04-4.7-4.51c-5.02-1.25-7.18,3.14-10.15,6.05C358.73,220.37,361.52,223.16,364.69,226.33z M354.85,236.19
		c-3.01-3.41-5.69-6.44-7.81-8.85c-1.7,1.22-3.26,2.34-4.18,3c2.99,3.11,5.8,6.02,8.73,9.07
		C352.76,238.27,354.08,236.96,354.85,236.19z"/>
	<path class="st1" d="M211.16,295.86c-1.93,36.32-31.44,63.57-66.93,61.82c-35.81-1.76-62.86-32-60.92-68.12
		c1.83-34.08,32.63-61.54,66.84-59.59C185.32,231.97,212.97,261.83,211.16,295.86z M198.39,293.62
		c-0.18-28.29-23.31-51.17-51.49-50.94c-28.28,0.23-51.03,23.26-50.9,51.54c0.13,27.96,23.26,50.85,51.29,50.77
		C175.49,344.91,198.58,321.7,198.39,293.62z"/>
	<path class="st1" d="M230.46,197.74c0-4.26,0-8.1,0-12.24c25.51,0,50.9,0,76.55,0c0,4.09,0,8.01,0,12.24
		C281.54,197.74,256.16,197.74,230.46,197.74z"/>
	<path class="st1" d="M307.01,159.96c0,4.21,0,8.14,0,12.26c-25.54,0-50.84,0-76.41,0c0-4.04,0-7.98,0-12.26
		C255.92,159.96,281.29,159.96,307.01,159.96z"/>
	<path class="st1" d="M230.55,146.57c0-4.07,0-8,0-12.21c25.38,0,50.67,0,76.33,0c0,3.91,0,7.92,0,12.21
		C281.53,146.57,256.15,146.57,230.55,146.57z"/>
	<path class="st1" d="M230.56,223.34c0-4.06,0-7.99,0-12.2c25.48,0,50.85,0,76.46,0c0,4.05,0,7.98,0,12.2
		C281.52,223.34,256.15,223.34,230.56,223.34z"/>
	<path class="st1" d="M204.93,197.81c0-4.17,0-8.1,0-12.32c4.09,0,8.11,0,12.38,0c0,4.09,0,8.1,0,12.32
		C213.16,197.81,209.13,197.81,204.93,197.81z"/>
	<path class="st1" d="M204.94,146.67c0-4.22,0-8.14,0-12.32c4.13,0,8.15,0,12.4,0c0,4.11,0,8.12,0,12.32
		C213.21,146.67,209.28,146.67,204.94,146.67z"/>
	<path class="st1" d="M217.31,223.41c-4.32,0-8.24,0-12.35,0c0-4.14,0-8.05,0-12.26c4.07,0,8.08,0,12.35,0
		C217.31,215.14,217.31,219.15,217.31,223.41z"/>
	<path class="st1" d="M205.08,159.81c4.16,0,8.08,0,12.24,0c0,4.19,0,8.19,0,12.4c-4.09,0-8.01,0-12.24,0
		C205.08,168.2,205.08,164.19,205.08,159.81z"/>
	<path class="st1" d="M19.44,63.56c0-14.76,0-29.29,0-44.09c46.73,0,93.29,0,140.18,0c0,14.58,0,29.2,0,44.09
		C113.03,63.56,66.47,63.56,19.44,63.56z M32.27,50.8c38.31,0,76.42,0,114.54,0c0-6.37,0-12.5,0-18.55c-38.35,0-76.37,0-114.54,0
		C32.27,38.54,32.27,44.57,32.27,50.8z"/>
	<path class="st1" d="M115.26,178.75c0-1.99-0.05-3.99,0.01-5.98c0.23-7.58,5.06-12.7,12.58-13.07c4.36-0.22,8.75-0.22,13.11,0
		c7.47,0.37,12.45,5.58,12.66,13.08c0.12,4.11,0.13,8.23-0.01,12.34c-0.25,7.33-5.13,12.4-12.47,12.83
		c-4.11,0.24-8.24,0.17-12.36,0.07c-8.47-0.21-13.37-5.2-13.52-13.65C115.23,182.49,115.25,180.62,115.26,178.75z M140.63,172.63
		c-4.27,0-8.19,0-12.3,0c0,4.23,0,8.24,0,12.37c4.2,0,8.13,0,12.3,0C140.63,180.87,140.63,176.94,140.63,172.63z"/>
	<path class="st1" d="M70.45,178.7c0-1.87-0.02-3.74,0-5.61c0.11-7.91,5.12-13.14,13.02-13.42c3.99-0.14,8-0.12,11.99-0.01
		c8.11,0.23,13.22,5.46,13.31,13.54c0.04,4.11,0.1,8.23-0.03,12.34c-0.2,6.56-4.78,11.72-11.34,12.25c-4.96,0.4-10,0.4-14.97,0.09
		c-7.16-0.44-11.82-5.65-11.98-12.83C70.41,182.94,70.45,180.82,70.45,178.7z M95.82,172.65c-4.21,0-8.23,0-12.35,0
		c0,4.25,0,8.27,0,12.27c4.27,0,8.28,0,12.35,0C95.82,180.69,95.82,176.77,95.82,172.65z"/>
	<path class="st1" d="M63.87,178.77c0,2.49,0.13,4.99-0.03,7.48c-0.37,5.9-4.61,10.89-10.48,11.4c-5.69,0.49-11.5,0.49-17.19-0.01
		c-5.93-0.52-10.26-5.65-10.55-11.79c-0.22-4.6-0.22-9.23-0.01-13.84c0.31-6.97,5.44-11.97,12.62-12.32c4.36-0.21,8.75-0.22,13.11,0
		c7.52,0.38,12.36,5.53,12.56,13.09c0.05,1.99,0.01,3.99,0.01,5.98C63.91,178.77,63.89,178.77,63.87,178.77z M38.59,172.62
		c0,4.35,0,8.29,0,12.28c4.27,0,8.28,0,12.31,0c0-4.25,0-8.17,0-12.28C46.73,172.62,42.8,172.62,38.59,172.62z"/>
	<path class="st1" d="M70.47,89.49c0-2.37-0.09-4.74,0.02-7.11c0.3-6.58,5.44-11.79,12.02-12.02c4.74-0.17,9.5-0.17,14.24,0
		c6.56,0.25,11.73,5.47,11.97,12.07c0.17,4.61,0.16,9.23,0.01,13.84c-0.22,6.76-5.47,12-12.23,12.24c-4.37,0.15-8.75,0.1-13.12,0.03
		c-7.59-0.13-12.79-5.42-12.93-13.07c-0.04-1.99-0.01-3.99-0.01-5.99C70.45,89.49,70.46,89.49,70.47,89.49z M83.54,83.14
		c0,4.14,0,8.26,0,12.42c4.17,0,8.2,0,12.17,0c0-4.29,0-8.32,0-12.42C91.57,83.14,87.72,83.14,83.54,83.14z"/>
	<path class="st1" d="M63.88,89.54c0,2.37,0.12,4.74-0.02,7.1c-0.38,6.48-5.33,11.56-11.78,11.85c-4.86,0.22-9.75,0.22-14.61,0
		c-6.34-0.29-11.45-5.41-11.82-11.89c-0.27-4.72-0.26-9.48-0.01-14.21c0.36-6.96,5.74-11.93,12.8-12.07c4.25-0.08,8.5-0.09,12.74,0
		c7.29,0.15,12.43,5.21,12.72,12.48c0.09,2.24,0.01,4.49,0.01,6.73C63.9,89.54,63.89,89.54,63.88,89.54z M38.65,83.26
		c0,4.08,0,8.19,0,12.27c4.25,0,8.29,0,12.3,0c0-4.21,0-8.15,0-12.27C46.83,83.26,42.89,83.26,38.65,83.26z"/>
	<path class="st1" d="M134.24,108.53c-2.37,0-4.75,0.12-7.12-0.02c-6.3-0.38-11.38-5.22-11.72-11.49
		c-0.27-5.1-0.28-10.23,0.02-15.32c0.36-6.26,5.52-11.08,11.84-11.32c4.49-0.17,8.99-0.12,13.49-0.04
		c7.06,0.13,12.39,5.03,12.81,12.06c0.28,4.6,0.25,9.23,0.02,13.83c-0.37,7.21-5.71,12.16-12.97,12.33
		c-2.12,0.05-4.25,0.01-6.37,0.01C134.24,108.55,134.24,108.54,134.24,108.53z M128.22,95.51c4.41,0,8.43,0,12.43,0
		c0-4.23,0-8.15,0-12.21c-4.24,0-8.26,0-12.43,0C128.22,87.46,128.22,91.39,128.22,95.51z"/>
	<path class="st1" d="M89.84,115.05c2.12,0,4.25-0.08,6.37,0.02c7.3,0.32,12.38,5.43,12.54,12.67c0.1,4.24,0.09,8.48,0,12.72
		c-0.15,7.2-5.22,12.5-12.46,12.84c-4.49,0.21-9,0.22-13.49-0.01c-7.23-0.36-12.21-5.69-12.34-12.93c-0.07-4.11-0.07-8.23,0-12.34
		c0.12-7.53,5.12-12.65,12.63-12.95C85.34,114.97,87.59,115.05,89.84,115.05z M95.76,140.49c0-4.36,0-8.38,0-12.39
		c-4.26,0-8.28,0-12.22,0c0,4.29,0,8.3,0,12.39C87.7,140.49,91.53,140.49,95.76,140.49z"/>
	<path class="st1" d="M63.92,134.13c0,2.12,0.05,4.24-0.02,6.36c-0.25,7.43-5.34,12.59-12.83,12.84c-4.24,0.14-8.5,0.15-12.74-0.01
		c-7.4-0.29-12.56-5.57-12.76-12.98c-0.11-4.11-0.1-8.23,0-12.34c0.18-7.49,5.26-12.66,12.73-12.91c4.24-0.14,8.5-0.13,12.74-0.02
		c7.77,0.22,12.68,5.26,12.87,13.08C63.97,130.14,63.93,132.14,63.92,134.13z M38.68,127.94c0,4.42,0,8.43,0,12.39
		c4.28,0,8.22,0,12.14,0c0-4.29,0-8.32,0-12.39C46.65,127.94,42.79,127.94,38.68,127.94z"/>
	<path class="st1" d="M115.34,134.03c0-2.49-0.16-5,0.03-7.48c0.47-6.19,5.18-11.01,11.38-11.37c4.73-0.28,9.49-0.24,14.23-0.09
		c7.14,0.23,12.24,5.16,12.6,12.25c0.23,4.48,0.22,8.98,0.01,13.46c-0.34,7.2-5.56,12.25-12.84,12.52
		c-3.87,0.14-7.74,0.07-11.62,0.03c-8.62-0.09-13.72-5.14-13.88-13.71c-0.03-1.87-0.01-3.74-0.01-5.61
		C115.28,134.03,115.31,134.03,115.34,134.03z M128.31,128c0,4.35,0,8.28,0,12.28c4.27,0,8.29,0,12.31,0c0-4.25,0-8.17,0-12.28
		C136.44,128,132.5,128,128.31,128z"/>
	<path class="st1" d="M172.88,281.01c-4.2,0-7.67,0.06-11.14-0.05c-0.71-0.02-1.57-0.57-2.08-1.14c-5.29-5.85-16.72-6.95-22.91-2.13
		c-3.05,2.37-3.24,4.97,0.24,6.72c3.23,1.62,7.03,2.12,10.6,3.03c4.9,1.25,10.11,1.79,14.68,3.8c6.27,2.76,10.31,7.87,10.42,15.15
		c0.11,7.31-4.01,12.12-10.04,15.45c-2.69,1.48-5.7,2.39-8.82,3.66c-0.11,1.94-0.23,4.13-0.36,6.51c-4.17,0-8.11,0-12.4,0
		c-0.12-2.25-0.24-4.43-0.36-6.72c-9.55-2.66-17.53-6.89-19.28-18.6c4.1,0,7.89-0.03,11.68,0.04c0.52,0.01,1.12,0.45,1.53,0.85
		c5.75,5.61,13.83,7.17,20.84,3.58c1.78-0.91,4.09-3.06,4.06-4.61c-0.03-1.58-2.36-3.8-4.17-4.51c-2.94-1.15-6.25-1.58-9.45-1.82
		c-5.85-0.43-11.33-1.76-16.19-5.12c-10.82-7.49-10.94-20.58-0.06-27.95c3.24-2.19,7.1-3.46,11.07-5.34
		c0.07-1.57,0.17-3.66,0.29-6.06c4.11,0,8.13,0,12.44,0c0.12,2.24,0.24,4.43,0.37,6.65C163.37,265.11,171.35,269.28,172.88,281.01z"
		/>
</g>
</svg>
