<?xml version="1.0" encoding="utf-8"?>
<!-- Generator: Adobe Illustrator 24.0.2, SVG Export Plug-In . SVG Version: 6.00 Build 0)  -->
<svg version="1.1" id="Capa_1" xmlns="http://www.w3.org/2000/svg" xmlns:xlink="http://www.w3.org/1999/xlink" x="0px" y="0px"
	 viewBox="0 0 351.45 349.95" style="enable-background:new 0 0 351.45 349.95;" xml:space="preserve">
<style type="text/css">
	.st0{fill:#274885;}
	.st1{fill:#FFFFFF;}
	.st2{fill-rule:evenodd;clip-rule:evenodd;fill:#FFFFFF;}
	.st3{fill:#DDA223;}
	.st4{fill:#FBFBFB;}
	.st5{fill:#274886;}
	.st6{fill:#5473B3;}
</style>
<path class="st1" d="M0,186.07c0-7.09,0-14.18,0-21.28c1.11-7.67,1.93-15.4,3.38-23C22.06,44.03,120.82-18.9,217.71,5.13
	c93.33,23.15,151.25,116.73,128.97,210.22c-14.44,60.6-52.05,101.99-109.82,125.01c-12.64,5.04-25.89,8.07-39.58,9.59
	c0-45.83,0-91.5,0-137.59c14.14,0,28.03,0,42.06,0c2.13-16.45,4.21-32.51,6.34-49.01c-16.3,0-32.35,0-48.25,0
	c0-12.75-0.6-25.11,0.18-37.39c0.71-11.28,6.97-16.81,18.26-17.41c9.01-0.48,18.06-0.31,27.09-0.42c1.33-0.02,2.66,0,3.79,0
	c0.29-0.66,0.46-0.86,0.46-1.06c0.04-13.61,0.11-27.22-0.01-40.82c-0.01-0.77-1.58-2.16-2.47-2.2c-13.47-0.62-26.97-1.73-40.43-1.4
	c-32.32,0.79-55.52,23.42-57.37,55.73c-0.78,13.57-0.44,27.2-0.6,40.81c-0.02,1.32,0,2.65,0,4.37c-14.36,0-28.23,0-42.03,0
	c0,16.48,0,32.54,0,48.96c14.06,0,27.86,0,41.83,0c0,45.58,0,90.81,0,136.02c-0.42,0.06-0.65,0.16-0.86,0.12
	c-1.69-0.3-3.38-0.58-5.05-0.93c-30.76-6.44-58.02-19.95-81.4-40.94C28.62,279.66,9.77,246.07,2.7,206.02
	C1.53,199.42,0.89,192.72,0,186.07z"/>
</svg>
