<?xml version="1.0" encoding="utf-8"?>
<!-- Generator: Adobe Illustrator 24.0.2, SVG Export Plug-In . SVG Version: 6.00 Build 0)  -->
<svg version="1.1" id="Capa_1" xmlns="http://www.w3.org/2000/svg" xmlns:xlink="http://www.w3.org/1999/xlink" x="0px" y="0px"
	 viewBox="0 0 371.79 372" style="enable-background:new 0 0 371.79 372;" xml:space="preserve">
<style type="text/css">
	.st0{fill:#274885;}
	.st1{fill:#FFFFFF;}
	.st2{fill-rule:evenodd;clip-rule:evenodd;fill:#FFFFFF;}
	.st3{fill:#DDA223;}
	.st4{fill:#FBFBFB;}
	.st5{fill:#274886;}
	.st6{fill:#5473B3;}
</style>
<g>
	<path class="st1" d="M45.78,220.94c-9.75-13.04-19.43-25.76-28.86-38.65c-8.06-11.03-6.05-25.33,4.42-33.45
		c9.73-7.55,20.69-6.64,29.04,2.38c0.93,1.01,1.83,2.06,2.85,2.98c2.42,2.2,4.95,2.21,7.33-0.02c1.64-1.53,3.07-3.28,4.66-4.87
		c7.33-7.33,17.63-7.41,25.05-0.19c1.16,1.13,2.22,2.37,3.33,3.55c4.09,4.34,6.37,4.31,10.53-0.12c0.6-0.64,1.18-1.29,1.78-1.93
		c6.65-7.1,14.09-8.78,23.02-4.8c2.37,1.06,3.65,0.74,5.41-1.04c21.99-22.17,44.08-44.25,66.12-66.36c0.96-0.96,1.75-2.09,2.68-3.2
		c14.23,14.28,28.03,28.14,41.5,41.66c35.23-35.32,70.03-70.21,104.76-105.03c-18.12,0-36.84,0-55.74,0c0-4.16,0-7.86,0-11.85
		c25.7,0,51.44,0,77.42,0c0,25.78,0,51.58,0,77.57c-3.8,0-7.5,0-11.64,0c0-18.77,0-37.55,0-56.7
		c-38.01,38.1-75.61,75.79-113.28,113.56c-14.29-14.4-28.07-28.28-42.01-42.32c-1.32,1.16-2.18,1.84-2.94,2.6
		c-19.42,19.45-38.8,38.92-58.26,58.32c-1.79,1.79-2.39,3.08-1.23,5.71c3.91,8.84,2.06,17.06-3.61,24.62
		c-9.29,12.39-18.57,24.79-28.12,37.55c3.33,2.97,6.76,5.79,9.94,8.88c7.04,6.87,13.94,13.89,20.94,20.8
		c0.63,0.62,1.65,1.19,2.49,1.2c11.95,0.08,23.91,0.05,36.27,0.05c0-40.08,0-79.88,0-119.87c16.08,0,31.75,0,47.89,0
		c0,28.17,0,56.34,0,84.42c4.16-0.29,7.86-0.54,11.97-0.82c0-19.78,0-39.58,0-59.58c16.08,0,31.75,0,47.83,0c0,19.76,0,39.57,0,59.6
		c4.19,0,7.97,0,12.03,0c0-39.84,0-79.56,0-119.55c16.03,0,31.79,0,47.96,0c0,39.81,0,79.62,0,119.8c2.49,0,4.58-0.07,6.67,0.01
		c8.98,0.35,16.54,7.31,17.19,16.23c0.37,5.1,0.52,10.3-0.08,15.36c-0.42,3.58-2.27,6.98-3.55,10.65
		c5.68,11.56,5.56,23.51-0.1,35.86c5.78,11.7,5.75,23.77-0.18,36.37c6.21,8.46,4.67,18.6,3.16,28.38
		c-1.18,7.57-8.52,12.78-16.23,13.17c-1.37,0.07-2.74,0.03-4.12,0.03c-69.37,0-138.73-0.09-208.1,0.1
		c-9.67,0.03-17.07-2.72-20.88-11.38c-7.61,3-14.77,6.78-22.4,8.66c-48.55,11.96-88.08-17.26-96.68-56.68
		c-6.12-28.09,1.59-52.44,22.14-72.49C30.96,233.51,38.34,227.51,45.78,220.94z M77.97,227.83c-6.36,0-12.72-0.09-19.08,0.07
		c-1.48,0.04-3.26,0.53-4.35,1.46c-7.5,6.4-15.13,12.68-22.19,19.55C14.67,266.13,8.19,287.11,14,311.16
		c8.2,33.92,41.36,54.53,76.79,47.69c25.59-4.94,42.98-20.29,50.25-45.37c7.23-24.94,0.6-46.93-18.07-64.97
		c-6.72-6.5-13.92-12.51-21.09-18.53c-1.45-1.22-3.69-1.98-5.6-2.06C90.2,227.67,84.08,227.83,77.97,227.83z M77.96,215.82
		c5.98,0,11.98,0.15,17.95-0.1c1.57-0.07,3.62-1,4.56-2.22c9.48-12.39,18.79-24.91,28.09-37.44c1.09-1.48,2.03-3.17,2.61-4.91
		c1.75-5.28-0.62-11-5.51-13.79c-4.8-2.74-7.69-2.06-12.28,2.89c-0.51,0.55-1.01,1.1-1.54,1.64c-7.81,7.98-18.49,8.13-26.04-0.12
		c-6.74-7.37-8.37-8.4-15.99,0.07c-7.46,8.29-18.21,8-26.01-0.05c-0.96-0.99-1.85-2.03-2.8-3.02c-3.1-3.27-5.59-3.77-9.7-1.99
		c-7.41,3.21-9.56,11.88-4.44,18.82c9.41,12.76,18.92,25.44,28.53,38.05c0.87,1.15,2.78,2.04,4.25,2.1
		C65.74,215.96,71.85,215.82,77.96,215.82z M311.71,107.94c0,36.11,0,71.9,0,107.58c8.04,0,15.81,0,23.49,0
		c0-36.01,0-71.71,0-107.58C327.32,107.94,319.63,107.94,311.71,107.94z M215.36,251.67c0-36.08,0-71.87,0-107.58
		c-8.03,0-15.81,0-23.51,0c0,36,0,71.7,0,107.58C199.73,251.67,207.41,251.67,215.36,251.67z M239.66,227.83c-1.76,0-2.98,0-4.21,0
		c-5.85,0.03-7.82,2-7.85,7.89c-0.01,2.63-0.01,5.25,0,7.88c0.02,6.37,1.87,8.24,8.24,8.24c23.95,0.01,47.9,0,71.85,0
		c14.84,0,29.69,0.02,44.53-0.02c4.89-0.01,7.05-2.21,7.12-7.1c0.05-3.5,0.04-7-0.01-10.5c-0.05-3.47-1.8-5.75-5.22-6.27
		c-2.14-0.32-4.37-0.06-6.82-0.06c0,4.17,0,7.87,0,11.71c-4.06,0-7.84,0-12.03,0c0-4.02,0-7.82,0-11.59c-4.11,0-7.8,0-11.9,0
		c0,3.98,0,7.78,0,11.53c-4.2,0-7.98,0-12.03,0c0-3.99,0-7.69,0-11.48c-4.06,0-7.84,0-12.03,0c0,4.04,0,7.84,0,11.56
		c-4.11,0-7.8,0-11.9,0c0-3.99,0-7.79,0-11.5c-4.2,0-7.99,0-12.03,0c0,4,0,7.71,0,11.44c-4.06,0-7.85,0-12.03,0
		c0-4.05,0-7.86,0-11.52c-4.11,0-7.8,0-11.9,0c0,4.01,0,7.81,0,11.6c-4.11,0-7.8,0-11.77,0
		C239.66,235.77,239.66,232.06,239.66,227.83z M179.64,347.67c-4.24,0-7.93,0-12.03,0c0-4,0-7.8,0-11.49c-4.2,0-7.99,0-12.03,0
		c0,4.01,0,7.71,0,11.44c-4.07,0-7.85,0-11.97,0c0-3.42,0-6.58,0-9.95c-3.85,4.41-7.46,8.49-10.98,12.64
		c-0.5,0.59-0.75,1.55-0.81,2.35c-0.36,4.75,2.29,7.22,7.73,7.22c37.42,0.01,74.83,0.01,112.25,0.01c1.87,0,3.75,0.08,5.61-0.03
		c3.59-0.2,5.92-2.33,6.07-5.84c0.17-4.12,0.2-8.26-0.02-12.37c-0.18-3.47-2.31-5.45-5.77-5.72c-1.94-0.15-3.9-0.03-6.25-0.03
		c0,4.21,0,8.01,0,11.8c-4.11,0-7.8,0-11.9,0c0-3.97,0-7.77,0-11.55c-4.2,0-7.98,0-12.03,0c0,3.98,0,7.68,0,11.49
		c-4.06,0-7.84,0-12.03,0c0-4.03,0-7.82,0-11.57c-4.11,0-7.8,0-11.9,0c0,3.98,0,7.79,0,11.52c-4.2,0-7.98,0-12.03,0
		c0-3.99,0-7.7,0-11.46c-4.06,0-7.84,0-11.9,0C179.64,340.08,179.64,343.79,179.64,347.67z M227.54,275.64c-4.24,0-7.93,0-12.03,0
		c0-4,0-7.8,0-11.49c-4.2,0-7.98,0-12.03,0c0,4.01,0,7.71,0,11.44c-4.06,0-7.84,0-12.03,0c0-4.05,0-7.85,0-11.53
		c-4.11,0-7.8,0-11.89,0c0,4.01,0,7.8,0,11.48c-4.2,0-7.98,0-12.02,0c0-4.01,0-7.72,0-11.46c-6.29,0-12.29,0-17.96,0
		c2.13,7.91,4.22,15.67,6.4,23.78c1.05,0,2.4,0,3.76,0c22.94,0,45.88,0,68.82,0c9.35,0,18.7,0.04,28.05-0.02
		c4.64-0.03,6.82-2.27,6.9-6.94c0.06-3.62,0.11-7.25-0.03-10.87c-0.14-3.77-2.39-5.96-6.14-6.16c-1.82-0.1-3.66-0.02-5.89-0.02
		c0,4.18,0,7.98,0,11.7c-4.2,0-7.98,0-12.02,0c0-4,0-7.7,0-11.46c-4.06,0-7.84,0-11.89,0C227.54,268.05,227.54,271.76,227.54,275.64
		z M150.98,323.88c15.25,0,30.59,0,45.92,0c19.71,0,39.42,0.01,59.13-0.01c5.37-0.01,7.45-2.12,7.49-7.49
		c0.03-3.38,0.04-6.75-0.01-10.13c-0.06-3.47-1.81-5.75-5.23-6.26c-2.14-0.32-4.37-0.06-6.81-0.06c0,4.18,0,7.88,0,11.71
		c-4.06,0-7.85,0-12.04,0c0-4.02,0-7.82,0-11.58c-4.11,0-7.8,0-11.9,0c0,3.98,0,7.78,0,11.52c-4.2,0-7.98,0-12.03,0
		c0-3.99,0-7.7,0-11.47c-4.06,0-7.85,0-12.03,0c0,4.04,0,7.84,0,11.54c-4.11,0-7.8,0-11.9,0c0-4,0-7.8,0-11.49
		c-4.2,0-7.99,0-12.03,0c0,4.01,0,7.72,0,11.43c-4.07,0-7.85,0-11.9,0c0-3.97,0-7.68,0-11.56c-4.09,0-7.91,0-11.47,0
		C154.44,307.95,152.75,315.71,150.98,323.88z M311.52,275.76c0-3.88,0-7.78,0-11.63c-4.33,0-8.12,0-12.17,0c0,3.99,0,7.69,0,11.48
		c-4.07,0-7.85,0-12.04,0c0-4.04,0-7.84,0-11.47c-4.44,0-8.46,0-12.16,0c0,7.99,0,15.69,0,23.51c-0.15-0.07-0.04,0.03,0.07,0.03
		c26.07,0.06,52.13,0.15,78.2,0.12c3.53,0,5.76-2.43,5.88-6.01c0.14-4,0.12-8,0-12c-0.1-3.13-1.86-5.26-4.91-5.75
		c-2.24-0.37-4.59-0.07-7.16-0.07c0,4.19,0,7.9,0,11.64c-4.07,0-7.85,0-12.04,0c0-4.05,0-7.86,0-11.52c-4.11,0-7.81,0-11.9,0
		c0,4.01,0,7.81,0,11.69C319.27,275.76,315.67,275.76,311.52,275.76z M311.38,311.68c0-3.97,0-7.77,0-11.53c-4.2,0-7.98,0-12.04,0
		c0,3.99,0,7.7,0,11.48c-4.07,0-7.85,0-12.04,0c0-4.04,0-7.84,0-11.47c-4.44,0-8.46,0-12.16,0c0,7.99,0,15.69,0,23.51
		c-0.15-0.07-0.04,0.03,0.08,0.03c26.07,0.06,52.13,0.15,78.2,0.12c3.52,0,5.75-2.43,5.88-6.01c0.14-4,0.12-8,0-12
		c-0.1-3.13-1.86-5.25-4.91-5.75c-2.24-0.37-4.59-0.07-7.16-0.07c0,4.2,0,7.9,0,11.64c-4.07,0-7.85,0-12.04,0c0-4.06,0-7.86,0-11.52
		c-4.11,0-7.81,0-11.9,0c0,4.02,0,7.81,0,11.59C319.18,311.68,315.48,311.68,311.38,311.68z M299.5,347.57c-4.01,0-7.88,0-12.17,0
		c0-3.95,0-7.74,0-11.42c-4.45,0-8.47,0-12.18,0c0,7.98,0,15.68,0,23.51c-0.06-0.03,0.16,0.16,0.39,0.16
		c25.95,0.03,51.9,0.07,77.85,0.01c3.54-0.01,5.78-2.41,5.91-5.98c0.15-4,0.12-8,0-12c-0.09-3.13-1.84-5.27-4.88-5.78
		c-2.24-0.37-4.6-0.07-7.17-0.07c0,4.16,0,7.87,0,11.64c-4.07,0-7.85,0-12.04,0c0-4.04,0-7.84,0-11.54c-4.11,0-7.81,0-11.9,0
		c0,4,0,7.8,0,11.49c-4.2,0-7.99,0-12.03,0c0-4.01,0-7.72,0-11.43c-4.07,0-7.85,0-11.78,0C299.5,340.03,299.5,343.65,299.5,347.57z
		 M275.2,215.68c0-16.2,0-31.98,0-47.66c-7.99,0-15.67,0-23.41,0c0,16,0,31.78,0,47.66C259.71,215.68,267.39,215.68,275.2,215.68z"
		/>
	<path class="st1" d="M101.83,323.97c-6.23,0-11.92,0-17.88,0c0,3.98,0,7.69,0,11.65c-4.06,0-7.84,0-12,0c0-3.84,0-7.66,0-11.4
		c-11.7-2.23-18-8.72-17.77-18.18c3.71,0,7.42,0,11.49,0c0.9,4.91,4.38,6.11,9.03,5.88c4.85-0.24,9.71-0.05,15.04-0.05
		c0-2.45,0.32-4.81-0.08-7.05c-0.56-3.22-2.82-4.9-6.12-4.94c-4.12-0.05-8.24,0.09-12.35-0.06c-9.27-0.34-16.86-7.78-17.2-17.03
		c-0.22-6.11-0.04-12.24-0.04-18.78c5.89,0,11.67,0,17.86,0c0-4.19,0-8,0-11.98c4.1,0,7.8,0,11.89,0c0,3.76,0,7.57,0,11.59
		c5.83,0.59,10.94,2.37,14.1,7.09c2.07,3.09,3.21,6.81,5.07,10.89c-4.98,0-8.79,0-12.8,0c-0.95-4.76-4.28-6-8.82-5.81
		c-4.96,0.22-9.93,0.05-15.34,0.05c0,1.85-0.03,3.43,0.01,5.01c0.1,4.69,2.24,6.9,6.87,6.98c3.62,0.07,7.24-0.03,10.85,0.03
		c10.29,0.16,18,7.75,18.18,17.99C101.91,311.72,101.83,317.57,101.83,323.97z"/>
</g>
</svg>
