<?xml version="1.0" encoding="utf-8"?>
<!-- Generator: Adobe Illustrator 24.0.2, SVG Export Plug-In . SVG Version: 6.00 Build 0)  -->
<svg version="1.1" id="Capa_1" xmlns="http://www.w3.org/2000/svg" xmlns:xlink="http://www.w3.org/1999/xlink" x="0px" y="0px"
	 viewBox="0 0 384.42 307.51" style="enable-background:new 0 0 384.42 307.51;" xml:space="preserve">
<style type="text/css">
	.st0{fill:#274885;}
	.st1{fill:#FFFFFF;}
	.st2{fill-rule:evenodd;clip-rule:evenodd;fill:#FFFFFF;}
	.st3{fill:#DDA223;}
	.st4{fill:#FBFBFB;}
	.st5{fill:#274886;}
	.st6{fill:#5473B3;}
</style>
<path class="st2" d="M384.42,36.48c-13.97,6.05-29.18,10.22-45.23,12.3c16.46-9.79,28.97-24.81,34.82-43.15
	c-15.22,8.96-32.32,15.43-50.24,18.97C309.57,9.39,288.95,0,266.01,0c-43.36,0-78.81,34.82-78.81,77.55c0,6.26,1.05,12.1,2.3,17.73
	c-65.67-3.13-123.84-33.99-162.62-81.1c-6.67,11.67-10.83,24.81-10.83,38.99c0,27.1,14.18,50.87,35.02,64.63
	c-12.92-0.21-25.02-3.76-35.64-9.59c0,0.42,0,0.63,0,1.04c0,10,1.88,19.18,5.41,27.94c9.6,24.4,31.49,42.74,57.97,47.95
	c-6.89,1.88-13.56,2.91-20.85,2.91c-5,0-10.01-0.62-14.81-1.66c10.22,30.85,39.2,53.36,73.61,54.2
	c-27.11,20.85-60.88,33.14-97.79,33.14c-6.47,0-12.5-0.42-18.96-1.04c35.02,21.89,76.5,34.82,120.92,34.82
	c123.21,0,199.3-85.27,219.1-173.88c3.56-15.84,5.21-31.47,5.21-46.9c0-3.34,0-6.87,0-10.01C360.45,65.67,374.01,51.91,384.42,36.48
	L384.42,36.48z"/>
</svg>
