<?xml version="1.0" encoding="utf-8"?>
<!-- Generator: Adobe Illustrator 24.0.2, SVG Export Plug-In . SVG Version: 6.00 Build 0)  -->
<svg version="1.1" id="Capa_1" xmlns="http://www.w3.org/2000/svg" xmlns:xlink="http://www.w3.org/1999/xlink" x="0px" y="0px"
	 viewBox="0 0 480 480" style="enable-background:new 0 0 480 480;" xml:space="preserve">
<style type="text/css">
	.st0{fill:#FFFFFF;}
</style>
<g>
	<g>
		<rect x="168" y="160" class="st0" width="16" height="16"/>
	</g>
</g>
<g>
	<g>
		<rect x="168" y="192" class="st0" width="16" height="16"/>
	</g>
</g>
<g>
	<g>
		<rect x="168" y="224" class="st0" width="16" height="16"/>
	</g>
</g>
<g>
	<g>
		<rect x="168" y="256" class="st0" width="16" height="16"/>
	</g>
</g>
<g>
	<g>
		<rect x="200" y="160" class="st0" width="16" height="16"/>
	</g>
</g>
<g>
	<g>
		<rect x="200" y="192" class="st0" width="16" height="16"/>
	</g>
</g>
<g>
	<g>
		<rect x="200" y="224" class="st0" width="16" height="16"/>
	</g>
</g>
<g>
	<g>
		<rect x="200" y="256" class="st0" width="16" height="16"/>
	</g>
</g>
<g>
	<g>
		<rect x="232" y="160" class="st0" width="16" height="16"/>
	</g>
</g>
<g>
	<g>
		<rect x="232" y="192" class="st0" width="16" height="16"/>
	</g>
</g>
<g>
	<g>
		<rect x="232" y="224" class="st0" width="16" height="16"/>
	</g>
</g>
<g>
	<g>
		<rect x="232" y="256" class="st0" width="16" height="16"/>
	</g>
</g>
<g>
	<g>
		<rect x="264" y="160" class="st0" width="16" height="16"/>
	</g>
</g>
<g>
	<g>
		<rect x="200" y="128" class="st0" width="16" height="16"/>
	</g>
</g>
<g>
	<g>
		<rect x="232" y="128" class="st0" width="16" height="16"/>
	</g>
</g>
<g>
	<g>
		<rect x="264" y="128" class="st0" width="16" height="16"/>
	</g>
</g>
<g>
	<g>
		<rect x="264" y="192" class="st0" width="16" height="16"/>
	</g>
</g>
<g>
	<g>
		<rect x="264" y="224" class="st0" width="16" height="16"/>
	</g>
</g>
<g>
	<g>
		<rect x="264" y="256" class="st0" width="16" height="16"/>
	</g>
</g>
<g>
	<g>
		<rect x="296" y="160" class="st0" width="16" height="16"/>
	</g>
</g>
<g>
	<g>
		<rect x="296" y="192" class="st0" width="16" height="16"/>
	</g>
</g>
<g>
	<g>
		<rect x="296" y="224" class="st0" width="16" height="16"/>
	</g>
</g>
<g>
	<g>
		<rect x="296" y="256" class="st0" width="16" height="16"/>
	</g>
</g>
<g>
	<g>
		<path class="st0" d="M472.01,120C472.01,120,472,120,472.01,120H352V8c0-4.42-3.58-8-7.99-8c0,0-0.01,0-0.01,0H136
			c-4.42,0-8,3.58-8,7.99c0,0,0,0.01,0,0.01v112H8c-4.42,0-8,3.57-8,7.99c0,0,0,0.01,0,0.01v288c0,4.42,3.58,8,7.99,8
			c0,0,0.01,0,0.01,0h16.72c-0.46,2.64-0.71,5.32-0.72,8v40c0,4.42,3.58,8,7.99,8c0,0,0.01,0,0.01,0h416c4.42,0,8-3.58,8-7.99
			c0,0,0-0.01,0-0.01v-40c-0.02-2.68-0.26-5.36-0.72-8H472c4.42,0,8-3.58,8-7.99c0,0,0-0.01,0-0.01V128
			C480,123.58,476.42,120,472.01,120z M344,344c0,8.84-7.16,16-16,16s-16-7.16-16-16s7.16-16,16-16
			C336.83,328.01,343.99,335.17,344,344z M152,328c8.84,0,16,7.16,16,16s-7.16,16-16,16s-16-7.16-16-16
			C136.01,335.17,143.17,328.01,152,328z M104,464H40v-32c0-17.67,14.33-32,32-32s32,14.33,32,32V464z M56,368c0-8.84,7.16-16,16-16
			s16,7.16,16,16s-7.16,16-16,16C63.17,383.99,56.01,376.83,56,368z M105.21,397.42c-3.02-2.91-6.4-5.41-10.06-7.45
			c12.2-12.78,11.73-33.04-1.05-45.24S61.05,333,48.85,345.79c-11.8,12.36-11.8,31.82,0,44.19c-7.64,4.24-13.98,10.47-18.36,18.02
			H16V136h112v187.06c-10.99,12.33-10.61,31.04,0.85,42.92C116.85,372.61,108.25,384.05,105.21,397.42z M184,464h-64v-56
			c0-17.67,14.33-32,32-32s32,14.33,32,32V464z M280,464h-80v-56c0-22.09,17.91-40,40-40s40,17.91,40,40V464z M216,328
			c0-13.26,10.74-24,24-24s24,10.74,24,24s-10.74,24-24,24C226.75,351.99,216.01,341.25,216,328z M288.72,380.49
			c-5.36-9.44-13.33-17.14-22.95-22.16c16.9-14.23,19.06-39.47,4.83-56.36c-14.23-16.9-39.47-19.06-56.36-4.83
			c-16.9,14.23-19.06,39.47-4.83,56.36c1.47,1.74,3.08,3.36,4.83,4.83c-9.63,5.02-17.6,12.72-22.95,22.16
			c-4.21-6-9.72-10.96-16.13-14.52c12.26-12.55,12.04-32.66-0.51-44.93c-8.08-7.9-19.74-10.91-30.64-7.91V16h192v297.14
			c-2.61-0.72-5.3-1.1-8-1.14c-17.63-0.05-31.95,14.2-32,31.83c-0.02,8.25,3.15,16.18,8.85,22.14
			C298.44,369.53,292.93,374.49,288.72,380.49z M360,432v32h-64v-56c0-17.67,14.33-32,32-32s32,14.33,32,32V432z M440,464h-64v-32
			c0-17.67,14.33-32,32-32s32,14.33,32,32V464z M392,368c0-8.84,7.16-16,16-16s16,7.16,16,16s-7.16,16-16,16
			C399.17,383.99,392.01,376.83,392,368z M464,408h-14.49c-4.38-7.56-10.72-13.79-18.36-18.02c12.2-12.78,11.73-33.04-1.05-45.24
			c-12.78-12.2-33.04-11.73-45.24,1.05c-11.8,12.36-11.8,31.82,0,44.19c-3.66,2.04-7.05,4.54-10.06,7.45
			c-3.04-13.37-11.64-24.81-23.64-31.45c11.47-11.88,11.84-30.59,0.85-42.92V136h112L464,408L464,408z"/>
	</g>
</g>
<g>
	<g>
		<rect x="376" y="184" class="st0" width="16" height="128"/>
	</g>
</g>
<g>
	<g>
		<rect x="424" y="184" class="st0" width="16" height="128"/>
	</g>
</g>
<g>
	<g>
		<rect x="40" y="184" class="st0" width="16" height="128"/>
	</g>
</g>
<g>
	<g>
		<rect x="88" y="184" class="st0" width="16" height="128"/>
	</g>
</g>
<g>
	<g>
		<path class="st0" d="M288.01,32C288.01,32,288,32,288.01,32H192c-4.42,0-8,3.58-8,7.99c0,0,0,0.01,0,0.01v64c0,4.42,3.57,8,7.99,8
			c0,0,0.01,0,0.01,0h96c4.42,0,8-3.57,8-7.99c0,0,0-0.01,0-0.01V40C296,35.58,292.42,32,288.01,32z M280,96h-80V48h80V96z"/>
	</g>
</g>
</svg>
