<?xml version="1.0" encoding="utf-8"?>
<!-- Generator: Adobe Illustrator 24.0.2, SVG Export Plug-In . SVG Version: 6.00 Build 0)  -->
<svg version="1.1" id="Capa_1" xmlns="http://www.w3.org/2000/svg" xmlns:xlink="http://www.w3.org/1999/xlink" x="0px" y="0px"
	 viewBox="0 0 512 512" style="enable-background:new 0 0 512 512;" xml:space="preserve">
<style type="text/css">
	.st0{fill:#FFFFFF;}
</style>
<g>
	<g>
		<path class="st0" d="M293.03,53.01c-3.25-2.56-7.97-1.99-10.52,1.26l-21.36,27.17L250.17,68.9c-2.73-3.11-7.46-3.43-10.58-0.7
			c-3.11,2.73-3.43,7.46-0.7,10.58l13.89,15.86c2.19,2.5,5.28,3.92,8.52,3.92c0.1,0,0.2,0,0.29,0c3.35-0.09,6.5-1.7,8.63-4.41
			l24.07-30.61C296.85,60.28,296.29,55.57,293.03,53.01L293.03,53.01z"/>
		<path class="st0" d="M448.96,51.41H321.07c-4.14,0-7.49,3.35-7.49,7.49s3.35,7.49,7.49,7.49h127.89c4.14,0,7.49-3.35,7.49-7.49
			S453.1,51.41,448.96,51.41z"/>
		<path class="st0" d="M448.96,83.57H321.07c-4.14,0-7.49,3.35-7.49,7.49s3.35,7.49,7.49,7.49h127.89c4.14,0,7.49-3.35,7.49-7.49
			S453.1,83.57,448.96,83.57z"/>
		<path class="st0" d="M293.03,143.48c-3.25-2.56-7.97-1.99-10.52,1.26l-21.36,27.17l-10.98-12.54c-2.73-3.11-7.46-3.43-10.58-0.7
			c-3.11,2.73-3.43,7.46-0.7,10.58l13.89,15.86c2.19,2.5,5.28,3.92,8.52,3.92c0.1,0,0.2,0,0.29,0c3.35-0.09,6.5-1.7,8.63-4.41
			L294.29,154C296.85,150.75,296.29,146.04,293.03,143.48z"/>
		<path class="st0" d="M448.96,141.87H321.07c-4.14,0-7.49,3.35-7.49,7.49s3.35,7.49,7.49,7.49h127.89c4.14,0,7.49-3.35,7.49-7.49
			S453.1,141.87,448.96,141.87z"/>
		<path class="st0" d="M448.96,174.03H321.07c-4.14,0-7.49,3.35-7.49,7.49s3.35,7.49,7.49,7.49h127.89c4.14,0,7.49-3.35,7.49-7.49
			S453.1,174.03,448.96,174.03z"/>
		<path class="st0" d="M293.03,233.94c-3.25-2.56-7.97-2-10.52,1.26l-21.36,27.17l-10.98-12.54c-2.73-3.11-7.46-3.43-10.58-0.7
			c-3.11,2.73-3.43,7.46-0.7,10.58l13.89,15.86c2.19,2.5,5.28,3.92,8.52,3.92c0.1,0,0.19,0,0.29,0c3.35-0.09,6.5-1.69,8.63-4.4
			l24.07-30.61C296.85,241.21,296.29,236.5,293.03,233.94L293.03,233.94z"/>
		<path class="st0" d="M448.96,232.34H321.07c-4.14,0-7.49,3.35-7.49,7.49c0,4.14,3.35,7.49,7.49,7.49h127.89
			c4.14,0,7.49-3.35,7.49-7.49C456.45,235.69,453.1,232.34,448.96,232.34z"/>
		<path class="st0" d="M448.96,264.5H321.07c-4.14,0-7.49,3.35-7.49,7.49c0,4.14,3.35,7.49,7.49,7.49h127.89
			c4.14,0,7.49-3.35,7.49-7.49C456.45,267.85,453.1,264.5,448.96,264.5z"/>
		<path class="st0" d="M293.03,324.41c-3.25-2.56-7.97-2-10.52,1.26l-21.36,27.17l-10.98-12.54c-2.73-3.11-7.46-3.43-10.58-0.7
			c-3.11,2.73-3.43,7.46-0.7,10.58l13.89,15.86c2.19,2.5,5.28,3.92,8.52,3.92c0.1,0,0.19,0,0.29,0c3.35-0.09,6.5-1.69,8.63-4.4
			l24.07-30.61C296.85,331.68,296.29,326.97,293.03,324.41L293.03,324.41z"/>
		<path class="st0" d="M448.96,322.81H321.07c-4.14,0-7.49,3.35-7.49,7.49c0,4.14,3.35,7.49,7.49,7.49h127.89
			c4.14,0,7.49-3.35,7.49-7.49C456.45,326.16,453.1,322.81,448.96,322.81z"/>
		<path class="st0" d="M456.45,362.46c0-4.14-3.35-7.49-7.49-7.49H321.07c-4.14,0-7.49,3.35-7.49,7.49c0,4.14,3.35,7.49,7.49,7.49
			h127.89C453.1,369.95,456.45,366.6,456.45,362.46z"/>
		<path class="st0" d="M293.03,414.87c-3.25-2.56-7.97-2-10.52,1.26l-21.36,27.17l-10.98-12.54c-2.73-3.11-7.46-3.43-10.58-0.7
			c-3.11,2.73-3.43,7.46-0.7,10.58l13.89,15.86c2.19,2.5,5.28,3.92,8.52,3.92c0.1,0,0.19,0,0.29,0c3.35-0.09,6.5-1.69,8.63-4.4
			l24.07-30.61C296.85,422.15,296.29,417.43,293.03,414.87L293.03,414.87z"/>
		<path class="st0" d="M372.08,413.27h-51.01c-4.14,0-7.49,3.35-7.49,7.49c0,4.14,3.35,7.49,7.49,7.49h51.01
			c4.14,0,7.49-3.35,7.49-7.49C379.58,416.63,376.22,413.27,372.08,413.27L372.08,413.27z"/>
		<path class="st0" d="M372.08,445.43h-51.01c-4.14,0-7.49,3.35-7.49,7.49c0,4.14,3.35,7.49,7.49,7.49h51.01
			c4.14,0,7.49-3.35,7.49-7.49C379.58,448.79,376.22,445.43,372.08,445.43L372.08,445.43z"/>
		<path class="st0" d="M478.18,0h-45.3c-4.14,0-7.49,3.35-7.49,7.49s3.35,7.49,7.49,7.49h45.3c1.38,0,2.5,1.12,2.5,2.5V426.3h-48.95
			c-13.47,0-24.43,10.96-24.43,24.43v46.11H166.84c3.23-5.04,5.11-11.02,5.11-17.44V353.59c3.92,2.03,8.37,3.18,13.09,3.18
			c15.31,0,27.77-12.46,27.77-27.77V256.5c0-21.55-6.85-42.01-19.81-59.16c-12.53-16.59-30.34-29-50.16-34.94
			c-0.88-0.27-1.5-1.13-1.5-2.09v-5.77c24.75-10.89,42.09-35.64,42.09-64.37c0-29.27-17.98-54.4-43.47-64.96v-7.72
			c0-1.38,1.12-2.5,2.5-2.5h255.69c4.14,0,7.49-3.35,7.49-7.49S402.29,0,398.15,0H142.46c-9.64,0-17.49,7.85-17.49,17.49v3.41
			c-3.85-0.66-7.8-1.02-11.83-1.02c-38.76,0-70.29,31.53-70.29,70.29c0,29.83,18.68,55.36,44.95,65.55v4.58
			c0,0.97-0.62,1.82-1.5,2.09c-10.45,3.14-20.25,7.97-29.13,14.37c-3.36,2.42-4.12,7.11-1.7,10.46c2.42,3.36,7.11,4.12,10.46,1.7
			c7.52-5.43,15.82-9.52,24.67-12.18c7.18-2.15,12.18-8.91,12.18-16.45v-0.61c3.38,0.5,6.84,0.77,10.35,0.77
			c4.52,0,8.93-0.44,13.21-1.26v1.1c0,7.53,5.01,14.3,12.18,16.45c16.78,5.04,31.88,15.56,42.5,29.62
			c10.98,14.53,16.78,31.86,16.78,50.12v72.51c0,7.05-5.73,12.78-12.78,12.78c-6.57,0-12.19-4.92-13.09-11.07v-83.67
			c0-4.14-3.35-7.49-7.49-7.49s-7.49,3.35-7.49,7.49V479.4c0,9.61-7.82,17.44-17.44,17.44c-9.61,0-17.44-7.82-17.44-17.44V344.19
			c0-4.14-3.35-7.49-7.49-7.49c0,0,0,0,0,0c-4.14,0-7.49,3.35-7.49,7.49l-0.03,135.22c0,9.61-7.82,17.44-17.44,17.44
			s-17.44-7.82-17.44-17.44V245.77c0-4.14-3.35-7.49-7.49-7.49c-4.14,0-7.49,3.35-7.49,7.49l-0.06,82.56
			c0,7.16-6.09,13.45-13.04,13.45c-7.05,0-12.78-5.73-12.78-12.78V256.5c0-15.66,4.37-30.92,12.64-44.12
			c2.2-3.51,1.14-8.13-2.37-10.33c-3.51-2.19-8.13-1.14-10.33,2.37c-9.76,15.59-14.93,33.6-14.93,52.08v72.51
			c0,15.31,12.46,27.77,27.77,27.77c4.69,0,9.16-1.25,13.09-3.42V479.4c0,17.88,14.55,32.43,32.43,32.43
			c10.02,0,19-4.57,24.95-11.73c5.95,7.17,14.93,11.73,24.95,11.73h264.92c5.65,0,11.41,1.16,16.06-2.58
			c2.18-1.76,4.14-3.92,6.17-5.85c8.54-8.1,52.97-50.23,66.66-63.19c1.49-1.42,2.34-3.38,2.34-5.44V17.49
			C495.67,7.85,487.82,0,478.18,0L478.18,0z M113.14,145.48c-30.49,0-55.3-24.81-55.3-55.31c0-30.49,24.81-55.3,55.3-55.3
			s55.3,24.81,55.3,55.3C168.44,120.67,143.63,145.48,113.14,145.48z M422.29,486.73v-36.01c0-5.2,4.23-9.44,9.44-9.44h37.84
			L422.29,486.73z"/>
		<path class="st0" d="M125.94,118.57c-3.3-2.51-8-1.86-10.5,1.43c-0.16,0.21-0.51,0.55-1.11,0.55c-0.6,0-0.95-0.35-1.11-0.56
			c-2.49-3.3-7.19-3.96-10.5-1.47c-3.3,2.49-3.96,7.19-1.47,10.5c3.08,4.08,7.97,6.52,13.07,6.52c5.16,0,9.91-2.36,13.04-6.47
			C129.87,125.78,129.23,121.08,125.94,118.57z"/>
	</g>
</g>
</svg>
