<?xml version="1.0" encoding="utf-8"?>
<!-- Generator: Adobe Illustrator 24.0.2, SVG Export Plug-In . SVG Version: 6.00 Build 0)  -->
<svg version="1.1" id="icons" xmlns="http://www.w3.org/2000/svg" xmlns:xlink="http://www.w3.org/1999/xlink" x="0px" y="0px"
	 viewBox="0 0 512 512" style="enable-background:new 0 0 512 512;" xml:space="preserve">
<style type="text/css">
	.st0{fill:#FFFFFF;}
</style>
<g>
	<path class="st0" d="M480,0H144c-8.82,0-16,7.18-16,16v112h16V16h64v32h-40c-4.42,0-8,3.58-8,8v72h16V64h32v16
		c0,8.82,7.18,16,16,16h176c8.82,0,16-7.18,16-16V64h32v192h16V56c0-4.42-3.58-8-8-8h-40V16h64v480H144v-48h-16v56
		c0,4.42,3.58,8,8,8h344c8.82,0,16-7.18,16-16V16C496,7.18,488.82,0,480,0z M400,80H224V16h176V80z"/>
	<path class="st0" d="M464,272h-16v112h-80c-4.42,0-8,3.58-8,8v72H176v-16h-16v24c0,4.42,3.58,8,8,8h200c0.37,0,0.74-0.02,1.1-0.07
		c0.08-0.01,0.16-0.02,0.24-0.04c0.04-0.01,0.08-0.02,0.13-0.02c0.06-0.01,0.1-0.02,0.15-0.03c0.07-0.02,0.14-0.02,0.21-0.05
		c0.02-0.01,0.04-0.01,0.06-0.02c0.22-0.06,0.43-0.11,0.65-0.18c0.01,0,0.02-0.01,0.02-0.01c0.22-0.07,0.45-0.16,0.66-0.26
		c0.01,0,0.02-0.01,0.02-0.01c0.22-0.1,0.43-0.2,0.64-0.32c0.01,0,0.01-0.01,0.02-0.01c0.1-0.06,0.2-0.11,0.3-0.18
		c0.04-0.02,0.08-0.05,0.12-0.08c0.06-0.04,0.13-0.08,0.19-0.13c0.03-0.02,0.06-0.05,0.1-0.07c0.07-0.05,0.14-0.1,0.2-0.14
		s0.12-0.1,0.18-0.14c0.04-0.03,0.07-0.06,0.11-0.09c0.1-0.08,0.19-0.16,0.29-0.25l88-80c0.14-0.12,0.26-0.25,0.38-0.38
		c0.03-0.04,0.07-0.07,0.1-0.11c0.1-0.11,0.21-0.23,0.3-0.35c0.02-0.02,0.04-0.04,0.06-0.06c0.11-0.14,0.22-0.28,0.31-0.42
		c0.03-0.04,0.06-0.08,0.09-0.13c0.08-0.11,0.15-0.23,0.22-0.35c0.02-0.04,0.05-0.07,0.06-0.11c0.09-0.15,0.17-0.3,0.24-0.46
		c0.02-0.04,0.04-0.09,0.06-0.13c0.06-0.12,0.11-0.25,0.17-0.38c0.02-0.05,0.04-0.09,0.06-0.14c0.06-0.16,0.12-0.33,0.18-0.5
		c0.01-0.02,0.02-0.05,0.02-0.07c0.05-0.15,0.09-0.3,0.13-0.46c0.01-0.04,0.02-0.08,0.03-0.12c0.08-0.35,0.14-0.7,0.17-1.06
		c0-0.04,0.01-0.09,0.01-0.13c0.01-0.14,0.02-0.3,0.02-0.45c0-0.03,0-0.07,0-0.1c0-0.02,0-0.03,0-0.05L464,272L464,272z M376,400
		h59.3l-38.85,35.32L376,453.91L376,400z"/>
	<path class="st0" d="M240,40h16v16h-16V40z"/>
	<path class="st0" d="M368,40h16v16h-16V40z"/>
	<path class="st0" d="M408,128H224c-4.42,0-8,3.58-8,8v32h16v-24h168v112H280v16h128c4.42,0,8-3.58,8-8V136
		C416,131.58,412.42,128,408,128z"/>
	<path class="st0" d="M272,304h88v16h-88V304z"/>
	<path class="st0" d="M376,304h48v16h-48V304z"/>
	<path class="st0" d="M248,352h88v16h-88V352z"/>
	<path class="st0" d="M352,352h72v16h-72V352z"/>
	<path class="st0" d="M208,400h136v16H208V400z"/>
	<path class="st0" d="M272,40h80v16h-80V40z"/>
	<path class="st0" d="M144,432c1.69,0,3.38-0.53,4.8-1.6l35.3-26.48c40.78-30.58,68.1-75.06,76.96-125.24l10.82-61.29
		c0.6-3.41-1.06-6.82-4.11-8.45l-120-64c-2.35-1.26-5.18-1.26-7.53,0l-120,64c-3.06,1.63-4.71,5.04-4.11,8.45l10.73,60.86
		c8.77,49.74,35.75,93.95,75.97,124.51l36.34,27.62C140.59,431.46,142.3,432,144,432L144,432z M42.61,275.46l-9.72-55.14L144,161.06
		l111.11,59.26l-9.81,55.57c-8.14,46.17-33.29,87.09-70.8,115.22l-30.47,22.86l-31.54-23.96C75.5,361.9,50.68,321.22,42.61,275.46z"
		/>
	<path class="st0" d="M174.68,373.95c30.34-22.75,50.66-55.84,57.26-93.18l7.94-44.94c0.6-3.41-1.06-6.82-4.11-8.45l-40.02-21.34
		l-7.53,14.12l34.9,18.62L216.18,278c-5.88,33.33-24.02,62.86-51.1,83.17l-21.06,15.79l-21.84-16.6
		c-26.7-20.29-44.62-49.65-50.44-82.67l-6.87-38.92l34.89-18.61l-7.53-14.12l-40.01,21.34c-3.06,1.63-4.71,5.04-4.11,8.45
		l7.86,44.62c6.53,37,26.6,69.9,56.52,92.64l26.66,20.25c1.43,1.09,3.14,1.63,4.84,1.63c1.69,0,3.38-0.53,4.8-1.6L174.68,373.95z"/>
	<path class="st0" d="M143.99,196.58l28.25,15.06l7.53-14.12l-32.02-17.07c-2.35-1.26-5.18-1.26-7.53,0l-31.99,17.06l7.53,14.12
		L143.99,196.58z"/>
	<path class="st0" d="M135.7,320h0.3c2.3,0,4.5-0.99,6.02-2.73l56-64l-12.04-10.54l-49.5,56.58L118.4,275.2l-12.8,9.6l24,32
		C131.05,318.73,133.29,319.9,135.7,320L135.7,320z"/>
	<path class="st0" d="M136,224h16v16h-16V224z"/>
	<path class="st0" d="M136,336h16v16h-16V336z"/>
</g>
</svg>
