<?xml version="1.0" encoding="utf-8"?>
<!-- Generator: Adobe Illustrator 24.0.2, SVG Export Plug-In . SVG Version: 6.00 Build 0)  -->
<svg version="1.1" id="Layer_3" xmlns="http://www.w3.org/2000/svg" xmlns:xlink="http://www.w3.org/1999/xlink" x="0px" y="0px"
	 viewBox="0 0 512 512" style="enable-background:new 0 0 512 512;" xml:space="preserve">
<style type="text/css">
	.st0{fill:#FFFFFF;}
</style>
<g>
	<path class="st0" d="M96,144v16c0,16.94,8.84,31.82,22.14,40.37c-3.92,4.74-9.67,7.63-16.02,7.63h-1.17
		C80.58,208,64,224.57,64,244.94V288c0,4.42,3.58,8,8,8h144c4.42,0,8-3.58,8-8v-24h64v24c0,4.42,3.58,8,8,8h144c4.42,0,8-3.58,8-8
		v-43.06c0-20.38-16.58-36.94-36.94-36.94h-1.17c-6.35,0-12.1-2.89-16.02-7.63C407.16,191.82,416,176.94,416,160v-16
		c0-26.47-21.53-48-48-48s-48,21.53-48,48v16c0,16.94,8.84,31.82,22.14,40.37c-2.4,2.9-5.5,5.04-9.02,6.29
		c-5.6-13.3-18.76-22.66-34.06-22.66h-1.17c-6.35,0-12.1-2.89-16.02-7.63C295.16,167.82,304,152.94,304,136v-16
		c0-26.47-21.53-48-48-48s-48,21.53-48,48v16c0,16.94,8.84,31.82,22.14,40.37c-3.92,4.74-9.67,7.63-16.02,7.63h-1.17
		c-15.31,0-28.46,9.36-34.06,22.66c-3.52-1.25-6.62-3.38-9.02-6.29C183.16,191.82,192,176.94,192,160v-16c0-26.47-21.53-48-48-48
		S96,117.53,96,144z M208,280H80v-35.06C80,233.4,89.39,224,100.94,224h1.17c2.06,0,4.06-0.22,6.04-0.54l2.88,2.88
		c8.8,8.81,20.51,13.66,32.97,13.66c12.02,0,23.31-4.55,32-12.78V256c0,4.42,3.58,8,8,8h24V280z M411.06,224
		c11.55,0,20.94,9.4,20.94,20.94V280H304v-16h24c4.42,0,8-3.58,8-8v-28.78c8.69,8.22,19.98,12.78,32,12.78
		c12.46,0,24.17-4.85,32.97-13.66l2.88-2.88c1.98,0.32,3.98,0.54,6.04,0.54L411.06,224z M336,144c0-17.65,14.35-32,32-32
		s32,14.35,32,32v16c0,17.65-14.35,32-32,32s-32-14.35-32-32V144z M368,208c3.69,0,7.26-0.46,10.72-1.25
		c2.43,3.86,5.49,7.16,9.02,9.82c-11.14,9.34-28.35,9.34-39.49,0c3.54-2.66,6.6-5.96,9.02-9.82C360.74,207.54,364.31,208,368,208
		L368,208z M224,120c0-17.65,14.35-32,32-32s32,14.35,32,32v16c0,17.65-14.35,32-32,32s-32-14.35-32-32V120z M256,184
		c3.69,0,7.26-0.46,10.72-1.25c2.43,3.86,5.49,7.16,9.02,9.82c-11.14,9.34-28.35,9.34-39.49,0c3.54-2.66,6.6-5.96,9.02-9.82
		C248.74,183.54,252.31,184,256,184L256,184z M192,220.94c0-11.54,9.39-20.94,20.94-20.94h1.17c2.06,0,4.06-0.22,6.04-0.54
		l2.88,2.88c8.8,8.81,20.51,13.66,32.97,13.66c12.46,0,24.17-4.85,32.97-13.66l2.88-2.88c1.98,0.32,3.98,0.54,6.04,0.54h1.17
		c11.55,0,20.94,9.4,20.94,20.94V248H192V220.94z M163.74,216.57c-11.14,9.34-28.35,9.34-39.49,0c3.54-2.66,6.6-5.96,9.02-9.82
		c3.46,0.8,7.03,1.26,10.72,1.26s7.26-0.46,10.72-1.25C157.14,210.62,160.21,213.91,163.74,216.57L163.74,216.57z M176,144v16
		c0,17.65-14.35,32-32,32s-32-14.35-32-32v-16c0-17.65,14.35-32,32-32S176,126.35,176,144z"/>
	<path class="st0" d="M453.55,346.55l-163.91,44.7c-1.14-1.74-2.46-3.39-3.98-4.92l-56-56c-1.5-1.5-3.54-2.34-5.66-2.34h-88v-8
		c0-4.42-3.58-8-8-8H80H16c-4.42,0-8,3.58-8,8v176c0,4.42,3.58,8,8,8h64c4.42,0,8-3.58,8-8v-8h40c4.42,0,8-3.58,8-8v-8h54.7
		l46.77,15.58c0.82,0.27,1.67,0.42,2.53,0.42c0.88,0,1.76-0.15,2.6-0.44l256-88c3.23-1.1,5.4-4.14,5.4-7.56v-8
		c0-7.62-2.15-15.03-6.23-21.46C488.82,348.48,470.62,341.9,453.55,346.55L453.55,346.55z M72,488H24V328h48V488z M120,472H88V328
		h32V472z M488,386.29l-248.04,85.26l-45.43-15.14c-0.82-0.26-1.67-0.41-2.53-0.41h-56V344h84.69l53.66,53.66
		c5.7,5.7,5.7,14.98,0,20.69s-14.98,5.7-20.69,0l-40-40l-11.31,11.31l40,40c5.97,5.97,13.82,8.95,21.66,8.95s15.69-2.98,21.66-8.95
		c6.34-6.34,9.22-14.8,8.82-23.13l163.29-44.54c10.38-2.84,21.29,0.92,26.5,9.14c2.45,3.84,3.74,8.3,3.74,12.86L488,386.29z"/>
	<path class="st0" d="M329.3,19.01c-5.18-1.59-10.43-3.03-15.75-4.3l-3.71,15.56c4.98,1.18,9.9,2.53,14.74,4.03L329.3,19.01z"/>
	<path class="st0" d="M488,256c0,3.6-0.08,7.19-0.25,10.75l15.98,0.74c0.18-3.81,0.26-7.64,0.26-11.49c0-1.62-0.02-3.23-0.05-4.84
		l-16,0.31C487.98,252.98,488,254.5,488,256L488,256z"/>
	<path class="st0" d="M297.54,11.46c-5.27-0.89-10.71-1.62-16.18-2.18l-1.62,15.92c5.1,0.51,10.14,1.19,15.14,2.05L297.54,11.46z"/>
	<path class="st0" d="M482.61,206.02l15.62-3.44c-1.17-5.31-2.52-10.63-4.02-15.82l-15.37,4.46
		C480.25,196.09,481.5,201.02,482.61,206.02L482.61,206.02z"/>
	<path class="st0" d="M359.83,30.71c-4.96-2.29-10.03-4.42-15.07-6.35l-5.72,14.94c4.78,1.83,9.47,3.82,14.09,5.94L359.83,30.71z"/>
	<path class="st0" d="M487.17,236.21l15.94-1.36c-0.46-5.46-1.1-10.86-1.91-16.21l-15.82,2.39
		C486.14,226.04,486.74,231.1,487.17,236.21L487.17,236.21z"/>
	<path class="st0" d="M445.92,122.74l13.09-9.2c-3.13-4.46-6.41-8.81-9.82-13.04l-12.47,10.03
		C439.92,114.5,442.99,118.56,445.92,122.74L445.92,122.74z"/>
	<path class="st0" d="M474.1,176.7l15.04-5.47c-1.86-5.12-3.91-10.21-6.08-15.14l-14.64,6.46
		C470.46,167.18,472.35,171.9,474.1,176.7L474.1,176.7z"/>
	<path class="st0" d="M438.54,88.12c-3.64-3.96-7.5-7.88-11.45-11.65l-11.04,11.58c3.68,3.51,7.26,7.14,10.7,10.9L438.54,88.12z"/>
	<path class="st0" d="M388.53,46.34c-4.56-2.89-9.3-5.68-14.1-8.29l-7.64,14.06c4.48,2.44,8.87,5.02,13.17,7.74L388.53,46.34z"/>
	<path class="st0" d="M477.02,326.76l15.24,4.87c1.66-5.2,3.16-10.5,4.46-15.73l-15.53-3.84
		C479.95,317.03,478.56,321.93,477.02,326.76L477.02,326.76z"/>
	<path class="st0" d="M502.46,283.77l-15.9-1.77c-0.57,5.09-1.3,10.13-2.19,15.11l15.75,2.83
		C501.07,294.62,501.86,289.18,502.46,283.77L502.46,283.77z"/>
	<path class="st0" d="M414.91,65.59c-4.18-3.48-8.51-6.87-12.87-10.06l-9.43,12.92c4.12,3.01,8.14,6.15,12.04,9.42L414.91,65.59z"/>
	<path class="st0" d="M461.79,148.8l14.18-7.41c-2.5-4.79-5.2-9.57-8.02-14.2l-13.66,8.31C456.94,139.84,459.44,144.28,461.79,148.8
		z"/>
	<path class="st0" d="M33.65,189.56l-15.34-4.58c-1.55,5.22-2.95,10.54-4.14,15.81l15.6,3.54C30.9,199.34,32.2,194.42,33.65,189.56z
		"/>
	<path class="st0" d="M44.3,160.94l-14.58-6.56c-2.22,4.91-4.3,10.01-6.21,15.13l14.99,5.58C40.28,170.3,42.22,165.58,44.3,160.94
		L44.3,160.94z"/>
	<path class="st0" d="M58.66,133.95l-13.59-8.44c-2.86,4.61-5.6,9.38-8.15,14.17l14.12,7.52C53.44,142.7,55.98,138.28,58.66,133.95z
		"/>
	<path class="st0" d="M76.43,109.09L64.05,98.96c-3.45,4.21-6.76,8.53-9.93,12.96l13.01,9.31C70.1,117.09,73.21,113.03,76.43,109.09
		z"/>
	<path class="st0" d="M24.18,265.04c-0.12-3-0.18-6.02-0.18-9.04c0-2.1,0.02-4.17,0.08-6.24l-15.99-0.44
		C8.02,251.53,8,253.77,8,256.01c0,3.22,0.06,6.44,0.18,9.64L24.18,265.04z"/>
	<path class="st0" d="M26.88,219.34l-15.81-2.5c-0.85,5.36-1.53,10.81-2.02,16.19l15.93,1.47
		C25.45,229.39,26.09,224.34,26.88,219.34z"/>
	<path class="st0" d="M9.34,281.94c0.57,5.46,1.31,10.84,2.22,16.18l15.78-2.7c-0.86-4.99-1.55-10.04-2.08-15.14L9.34,281.94z"/>
	<path class="st0" d="M120.89,67.37l-9.34-12.98c-4.42,3.18-8.74,6.5-12.94,9.94l10.17,12.36C112.7,73.46,116.75,70.34,120.89,67.37
		z"/>
	<path class="st0" d="M174.58,38.7l-5.62-14.98c-5.1,1.91-10.17,4.01-15.07,6.22l6.59,14.58C165.1,42.42,169.81,40.49,174.58,38.7
		L174.58,38.7z"/>
	<path class="st0" d="M203.8,29.89l-3.57-15.59c-5.28,1.21-10.6,2.62-15.8,4.18l4.62,15.31C193.9,32.34,198.86,31.02,203.8,29.89z"
		/>
	<path class="st0" d="M233.94,25.04L232.46,9.1c-5.36,0.5-10.82,1.19-16.21,2.07l2.55,15.8C223.8,26.17,228.85,25.5,233.94,25.04
		L233.94,25.04z"/>
	<path class="st0" d="M146.79,51.26l-7.54-14.11c-4.8,2.56-9.55,5.3-14.14,8.17l8.47,13.58C137.89,56.2,142.3,53.66,146.79,51.26z"
		/>
	<path class="st0" d="M255.31,24c3.04-0.02,6.14,0.05,9.19,0.15l0.55-15.98c-3-0.11-6.02-0.17-9.03-0.17
		c-2.45-0.01-4.87,0.02-7.3,0.1l0.49,16C251.23,24.03,253.26,24,255.31,24L255.31,24z"/>
	<path class="st0" d="M97.29,86.8L86.36,75.11c-3.91,3.66-7.79,7.54-11.54,11.56l11.7,10.92C90.01,93.83,93.64,90.2,97.29,86.8z"/>
</g>
</svg>
