<?xml version="1.0" encoding="utf-8"?>
<!-- Generator: Adobe Illustrator 24.0.2, SVG Export Plug-In . SVG Version: 6.00 Build 0)  -->
<svg version="1.1" id="Capa_1" xmlns="http://www.w3.org/2000/svg" xmlns:xlink="http://www.w3.org/1999/xlink" x="0px" y="0px"
	 viewBox="0 0 496 496" style="enable-background:new 0 0 496 496;" xml:space="preserve">
<style type="text/css">
	.st0{fill:#FFFFFF;}
</style>
<path class="st0" d="M128,248h48v16h-48V248z"/>
<path class="st0" d="M465.76,248c3.84-4.26,6.24-9.83,6.24-16c0-13.23-10.77-24-24-24h-24v-80c0-22.05-17.95-40-40-40H254.53
	c0.9-2.51,1.47-5.18,1.47-8c0-10.41-6.71-19.21-16-22.53V24c0-13.23-10.77-24-24-24H88C74.77,0,64,10.77,64,24v33.47
	C54.71,60.79,48,69.59,48,80s6.71,19.21,16,22.53v41.68c-6.7-5.08-14.96-8.21-24-8.21c-8.82,0-16,7.18-16,16v117.74
	c0,8.39,2.57,16.43,7.46,23.25l28.07,39.31c2.93,4.1,4.47,8.92,4.47,13.95v39.21c-9.29,3.31-16,12.11-16,22.53
	c0,6.17,2.41,11.74,6.24,16c-3.83,4.26-6.24,9.83-6.24,16c0,10.41,6.71,19.21,16,22.53V496h160v-33.47
	c6.78-2.41,12.11-7.75,14.53-14.53H384c22.05,0,40-17.95,40-40v-56h24c13.23,0,24-10.77,24-24c0-6.17-2.41-11.74-6.24-16
	c3.84-4.26,6.24-9.83,6.24-16s-2.41-11.74-6.24-16c3.84-4.26,6.24-9.83,6.24-16S469.59,252.26,465.76,248z M456,296
	c0,4.41-3.59,8-8,8h-20.69l16-16H448C452.41,288,456,291.59,456,296z M379.31,336l16-16h25.38l-16,16H379.31z M147.31,448l16-16
	h25.38l-16,16H147.31z M72,432h20.69l-16,16H72c-4.41,0-8-3.59-8-8S67.59,432,72,432z M140.69,400l-16,16H99.31l16-16H140.69z
	 M147.31,416l16-16h25.38l-16,16H147.31z M115.31,432h25.38l-16,16H99.31L115.31,432z M195.31,416l16-16H216c4.41,0,8,3.59,8,8
	s-3.59,8-8,8H195.31z M233.76,424c2.08-2.31,3.7-5.01,4.77-8h14.16l16,16h-30.16C237.46,429.01,235.84,426.31,233.76,424z
	 M275.31,416h25.38l16,16h-25.38L275.31,416z M323.31,416h25.38l16,16h-25.38L323.31,416z M238.53,400
	c-2.41-6.78-7.75-12.11-14.53-14.53v-23.21c0-5.04,1.54-9.85,4.47-13.95l28.09-39.31c4.87-6.82,7.44-14.86,7.44-23.25v-23.21
	c9.29-3.31,16-12.11,16-22.53c0-6.17-2.41-11.74-6.24-16c3.84-4.26,6.24-9.83,6.24-16s-2.41-11.74-6.24-16
	c3.84-4.26,6.24-9.83,6.24-16s-2.41-11.74-6.24-16c3.84-4.26,6.24-9.83,6.24-16c0-2.82-0.57-5.49-1.47-8H376v72h-24
	c-13.23,0-24,10.77-24,24c0,6.17,2.41,11.74,6.24,16c-3.84,4.26-6.24,9.83-6.24,16s2.41,11.74,6.24,16c-3.84,4.26-6.24,9.83-6.24,16
	s2.41,11.74,6.24,16c-3.84,4.26-6.24,9.83-6.24,16c0,13.23,10.77,24,24,24h24v48H238.53z M148.69,72l-16,16H99.31l16-16H148.69z
	 M232,88h-20.69l16-16H232c4.41,0,8,3.59,8,8S236.41,88,232,88z M323.31,120l16-16h25.38l-16,16H323.31z M300.69,120h-25.38l16-16
	h25.38L300.69,120z M264,176c0,4.41-3.59,8-8,8h-48c-4.41,0-8-3.59-8-8s3.59-8,8-8h48C260.41,168,264,171.59,264,176z M200,208
	c0-4.41,3.59-8,8-8h48c4.41,0,8,3.59,8,8s-3.59,8-8,8h-48C203.59,216,200,212.41,200,208z M264,144c0,4.41-3.59,8-8,8h-48
	c-4.41,0-8-3.59-8-8s3.59-8,8-8h48C260.41,136,264,139.59,264,144z M252.69,120H240v-16h28.69L252.69,120z M188.69,88h-33.38l16-16
	h33.38L188.69,88z M80,104h144v16h-16c-13.23,0-24,10.77-24,24c0,6.17,2.41,11.74,6.24,16c-3.84,4.26-6.24,9.83-6.24,16
	s2.41,11.74,6.24,16c-3.84,4.26-6.24,9.83-6.24,16c0,2.82,0.57,5.49,1.47,8H80V104z M80,232h105.47c-0.9,2.51-1.47,5.18-1.47,8
	c0,13.23,10.77,24,24,24h16v8c0,4.41-3.59,8-8,8H88c-4.41,0-8-3.59-8-8V232z M208,248c-4.41,0-8-3.59-8-8s3.59-8,8-8h48
	c4.41,0,8,3.59,8,8s-3.59,8-8,8H208z M392,163.31l16-16v25.38l-16,16V163.31z M379.31,304l16-16h25.38l-16,16H379.31z M352,336
	c-4.41,0-8-3.59-8-8s3.59-8,8-8h20.69l-16,16H352z M344,232c0-4.41,3.59-8,8-8h20.69l-16,16H352C347.59,240,344,236.41,344,232z
	 M352,304c-4.41,0-8-3.59-8-8s3.59-8,8-8h20.69l-16,16H352z M352,272c-4.41,0-8-3.59-8-8s3.59-8,8-8h20.69l-16,16H352z M379.31,272
	l16-16h25.38l-16,16H379.31z M379.31,240l16-16h25.38l-16,16H379.31z M427.31,272l16-16H448c4.41,0,8,3.59,8,8s-3.59,8-8,8H427.31z
	 M456,232c0,4.41-3.59,8-8,8h-20.69l16-16H448C452.41,224,456,227.59,456,232z M395.31,208L408,195.31V208H395.31z M407.7,124.99
	l-15.7,15.7V136c0-8.82-7.18-16-16-16h-4.69l15.7-15.7C397.82,105.68,406.32,114.18,407.7,124.99z M88,16h128c4.41,0,8,3.59,8,8v32
	H80V24C80,19.59,83.59,16,88,16z M72,72h20.69l-16,16H72c-4.41,0-8-3.59-8-8S67.59,72,72,72z M44.48,283.7
	c-2.94-4.1-4.48-8.92-4.48-13.95V152c13.23,0,24,10.77,24,24v96c0,13.23,10.77,24,24,24h128c13.23,0,24-10.77,24-24v-8h8v21.74
	c0,5.04-1.54,9.85-4.47,13.95l-28.09,39.31c-4.87,6.82-7.44,14.86-7.44,23.25V384H80v-37.74c0-8.39-2.57-16.43-7.46-23.25
	L44.48,283.7z M72,400h20.69l-16,16H72c-4.41,0-8-3.59-8-8S67.59,400,72,400z M80,480v-16h128v16H80z M216,448h-20.69l16-16H216
	c4.41,0,8,3.59,8,8S220.41,448,216,448z M387.01,431.7l-15.7-15.7H376c8.82,0,16-7.18,16-16v-4.69l15.7,15.7
	C406.32,421.82,397.82,430.32,387.01,431.7z M408,388.69l-16-16V352h16V388.69z M448,336h-20.69l16-16H448c4.41,0,8,3.59,8,8
	S452.41,336,448,336z"/>
</svg>
