<?xml version="1.0" encoding="utf-8"?>
<!-- Generator: Adobe Illustrator 24.0.2, SVG Export Plug-In . SVG Version: 6.00 Build 0)  -->
<svg version="1.1" id="Capa_1" xmlns="http://www.w3.org/2000/svg" xmlns:xlink="http://www.w3.org/1999/xlink" x="0px" y="0px"
	 viewBox="0 0 384 384" style="enable-background:new 0 0 384 384;" xml:space="preserve">
<style type="text/css">
	.st0{fill:#274885;}
	.st1{fill:#FFFFFF;}
	.st2{fill-rule:evenodd;clip-rule:evenodd;fill:#FFFFFF;}
	.st3{fill:#DDA223;}
	.st4{fill:#FBFBFB;}
	.st5{fill:#274886;}
	.st6{fill:#5473B3;}
</style>
<g>
	<path class="st1" d="M168,0c16,0,32,0,48,0c1.37,7.09,2.66,14.19,4.22,21.24c0.19,0.85,1.69,1.59,2.73,2.04
		c6.07,2.6,12.24,4.96,18.24,7.71c1.86,0.85,3.07,0.83,4.71-0.27c5.58-3.75,11.25-7.35,16.91-11.03c0.73,0.65,1.31,1.11,1.83,1.64
		c9.9,9.89,19.83,19.75,29.62,29.75c0.67,0.68,0.78,2.5,0.4,3.51c-1.69,4.47-3.65,8.84-5.61,13.45
		c26.31,0.06,41.27,18.99,44.22,35.5c1.17,6.57,1.14,13.42,1.12,20.14c-0.05,13.65-5.52,24.88-15.87,33.79
		c-1.17,1.01-1.79,2.67-2.67,4.03c1.26,0.62,2.46,1.45,3.79,1.83c9.57,2.76,19.16,5.47,28.79,8.05c1.01,0.27,2.39-0.23,3.41-0.75
		c5.23-2.66,10.37-5.48,15.6-8.14c1.29-0.66,2.78-1.24,4.2-1.29c4.11-0.13,8.24,0.03,12.36,0.07c0,30.25,0,60.5,0,90.75
		c-0.48,0.1-1,0.1-1.42,0.31c-36.05,18-72.1,36-108.09,54.11c-1.01,0.51-1.9,2.2-2,3.41c-0.82,9.66-6.38,15.96-16.01,18.16
		c-1.09,0.25-2.5,1.58-2.74,2.65c-2.02,9.09-7.04,14.12-16.1,16.01c-0.91,0.19-2.18,1.26-2.34,2.09
		c-1.93,10.2-8.25,15.54-18.48,16.86c-0.68,9.71-6.38,15.3-15.07,18.4c-3,0-6,0-9,0c-3.82-2.46-7.79-4.72-11.4-7.47
		c-1.83-1.39-3.02-1.74-5.2-0.72c-10.77,5.06-23.08-0.4-26.54-11.6c-0.47-1.53-0.72-3.14-1.1-4.85
		c-10.7-1.61-17.05-7.65-18.51-18.63c-11-1.45-17.12-7.87-18.66-18.57c-11.02-2.07-16.02-6.86-18.32-17.24
		c-0.19-0.86-0.7-1.93-1.39-2.36c-5.6-3.47-11.29-6.82-17.49-10.53c0,5.93-3.89,5.68-7.54,5.14c-4.88-0.73-9.84-1.43-14.5-2.95
		C34.67,288.59,17.35,282.61,0,276.75C0,234,0,191.25,0,148.5c14.8-2.11,27.84,2.3,39.3,11.34c8.06,6.36,16.4,7.31,25.58,3.38
		c1.15-0.49,2.18-1.27,3.26-1.92c-0.73-1.18-1.21-2.65-2.22-3.49c-8.27-6.9-13.99-15.48-15.5-26.15
		c-1.01-7.12-1.12-14.47-0.75-21.66C50.6,92.22,59.3,79.2,75.59,71.98c5.77-2.56,12.35-3.29,18.88-4.93
		c-1.56-3.73-3.47-8.04-5.1-12.44c-0.38-1.02-0.28-2.84,0.39-3.52c10.29-10.54,20.72-20.95,31.26-31.54
		c5.87,3.81,11.45,7.55,17.19,11.05c1.12,0.68,3.03,0.89,4.24,0.43c6.4-2.43,12.7-5.12,19-7.81c0.93-0.4,2.2-1.17,2.37-1.98
		C165.32,14.19,166.63,7.09,168,0z M371.6,174.37c-1.92,0.96-3.23,1.58-4.52,2.26c-35.45,18.64-70.95,37.18-106.27,56.05
		c-5.82,3.11-11.41,3.25-17.27,1.67c-12.04-3.24-24.02-6.73-36-10.2c-6.93-2-13.61-1.38-20.02,1.8
		c-11.18,5.53-22.33,11.12-33.46,16.76c-5.28,2.68-7.04,8.42-4.23,13.24c2.55,4.38,7.51,5.29,12.67,2.24
		c6.88-4.06,13.71-8.2,20.58-12.28c11.43-6.78,22.07-5.75,31.95,3.12c16.55,14.85,33.12,29.69,49.55,44.66
		c2.13,1.94,3.61,2.03,6.1,0.77c32.43-16.33,64.9-32.56,97.42-48.7c2.58-1.28,3.59-2.68,3.57-5.65
		c-0.14-20.49-0.08-40.98-0.08-61.47C371.6,177.43,371.6,176.22,371.6,174.37z M214.55,286.34c11.12,9.26,21.93,18.31,32.79,27.3
		c3.67,3.04,8.46,2.93,11.11-0.11c2.76-3.17,2.15-6.87-1.79-10.43c-16.62-14.97-33.24-29.94-49.88-44.89
		c-5.63-5.06-10.83-5.56-17.43-1.65c-7.2,4.26-14.36,8.58-21.54,12.87c-4.97,2.97-10.33,3.84-15.87,2.35
		c-8.53-2.28-13.8-7.96-15.33-16.62c-1.69-9.61,2.01-18.09,9.98-22.43c9.2-5.01,18.68-9.5,28.04-14.23
		c1.05-0.53,2.06-1.15,3.51-1.96c-11.61-4.6-23.08-7.5-34.85-5.48c-15.72,2.71-31.26,6.55-46.84,10.02
		c-0.96,0.21-2.19,1.3-2.46,2.22c-5.26,18.09-10.42,36.21-15.48,54.35c-0.24,0.86,0.28,2.53,0.99,2.98
		c5.66,3.59,11.45,6.98,16.91,10.26c4.51-4.39,8.68-8.51,12.92-12.57c5.5-5.26,12.01-7.16,19.32-4.95
		c7.29,2.2,11.84,7.26,13.28,14.79c0.42,2.17,1.32,3.02,3.47,3.46c8.37,1.7,13.73,7.4,15.3,15.89c0.13,0.71,0.37,1.39,0.55,2.06
		c10.98,1.62,17.01,7.96,18.52,18.68c5.6,0.61,10.02,2.96,13.88,6.91c5.29,5.41,10.94,10.47,16.55,15.55c1.05,0.95,2.59,1.49,4,1.91
		c3.41,1.02,6.28,0.05,7.95-3.14c1.58-3.03,0.82-5.84-1.77-8.06c-2.56-2.2-5.17-4.34-7.76-6.5c-8.12-6.78-16.25-13.56-24.57-20.5
		c2.75-3.29,5.29-6.32,7.94-9.48c10.34,8.61,20.42,17.01,30.5,25.4c1.15,0.96,2.27,1.98,3.51,2.81c3.37,2.26,7.87,1.67,10.15-1.25
		c2.33-2.98,1.71-6.57-1.69-9.52c-1.7-1.47-3.45-2.88-5.18-4.32c-8.81-7.35-17.62-14.7-26.61-22.2
		C209.31,292.66,211.77,289.7,214.55,286.34z M130.47,200.35c0.95-0.08,1.93-0.04,2.86-0.25c14.26-3.23,28.2-1.99,42.1,2.32
		c11.28,3.49,22.78,6.28,34.16,9.46c12.13,3.39,24.24,6.89,36.37,10.28c1.54,0.43,3.17,0.54,4.77,0.72
		c2.41,0.28,3.32-0.82,3.28-3.26c-0.11-6.5,0.03-12.99-0.05-19.49c-0.12-10.32-5.23-16.87-15.25-19.46
		c-10.51-2.72-21.02-5.41-31.58-7.91c-2.19-0.52-2.81-1.46-2.76-3.54c0.1-4.25,0.17-8.5-0.06-12.74c-0.15-2.82,0.69-4.46,3.24-5.96
		c8.85-5.18,14.12-13.04,15.1-23.26c0.56-5.94,0.46-12.01,0.01-17.97c-1.15-15.41-14.08-27.79-29.59-28.76
		c-14.69-0.91-28.7,9.97-31.32,25.13c-1.07,6.2-0.64,12.7-0.59,19.06c0.08,8.99,3.19,17.47,10.64,22.1
		c7.54,4.68,8.68,10.48,7.82,17.98c-0.11,0.99-0.16,2.02,0.01,2.99c0.59,3.44-1.04,4.71-4.27,5.45c-10.34,2.36-20.62,4.97-30.89,7.6
		C135.16,183.22,129.25,191.43,130.47,200.35z M334.4,179.81c-10.09-2.55-19-4.91-27.97-6.98c-2.36-0.54-3-1.53-2.93-3.77
		c0.14-4.5,0.16-9-0.03-13.5c-0.1-2.31,0.73-3.6,2.71-4.73c8.16-4.64,13.73-11.57,15.07-20.82c1.01-6.98,0.94-14.24,0.39-21.29
		c-1.2-15.25-14.31-27.39-29.69-28.19c-14.61-0.76-28.36,10.04-31.06,25.02c-0.96,5.35-0.56,10.94-0.7,16.43
		c-0.31,12.9,5.14,22.56,16.2,29.23c1.18,0.71,2.18,2.63,2.27,4.05c0.29,4.48-0.08,9,0.18,13.49c0.16,2.76-0.99,3.69-3.43,4.23
		c-5.79,1.3-11.52,2.83-18.03,4.45c11.24,10.89,8.59,24.64,8.97,38.21C289.11,203.65,311.25,191.99,334.4,179.81z M125.07,177.02
		c-4.83-1.21-10.44-2.76-16.12-3.98c-2.76-0.6-4.01-1.64-3.79-4.69c0.29-4.1,0.23-8.25-0.01-12.36c-0.15-2.62,0.85-4.01,3.06-5.28
		c8.37-4.85,14.01-12.1,15.01-21.68c0.81-7.86,0.88-16.09-0.52-23.83c-2.63-14.55-16.03-24.84-30.31-24.68
		c-14.22,0.16-26.84,10.26-29.61,24.52c-1.08,5.57-0.67,11.44-0.78,17.17c-0.25,12.73,5.15,22.32,16.08,28.91
		c1.12,0.68,2.2,2.4,2.27,3.69c0.27,4.86-0.01,9.75,0.16,14.61c0.08,2.28-0.93,3-2.93,3.43c-3.44,0.74-6.83,1.72-11.01,2.8
		c10.37,6.05,19.91,11.71,29.57,17.17c2.28,1.29,3.12,2.74,2.93,5.3c-0.24,3.08-0.06,6.19-0.06,9.55c3.93-0.86,7.8-1.69,11.66-2.56
		c6.76-1.53,6.75-1.54,7.1-8.24c0.05-0.99,0.03-2.06,0.39-2.96C120.39,188.33,122.7,182.78,125.07,177.02z M117.05,162.21
		c8.56,2.14,15.92,4.05,23.33,5.78c1.5,0.35,3.22,0.27,4.73-0.08c6.32-1.46,12.62-3.04,18.88-4.72c1.16-0.31,2.15-1.25,3.22-1.91
		c-0.73-1.17-1.22-2.63-2.22-3.48c-8.98-7.58-14.76-16.99-15.87-28.76c-0.63-6.69-0.73-13.5-0.31-20.21
		c1.16-18.5,13.23-33.5,30.76-38.87c16.78-5.15,34.64,0.61,45.94,14.8c8.16,10.24,9.98,22.15,10.02,34.87
		c0.05,15.75-4.87,28.86-17.36,38.83c-0.73,0.58-1.4,1.91-1.25,2.73c0.13,0.7,1.42,1.44,2.32,1.69c6.38,1.72,12.77,3.42,19.22,4.87
		c1.98,0.45,4.21,0.47,6.19,0.04c6.22-1.36,12.38-2.96,18.52-4.62c1.13-0.31,2.78-1.22,2.9-2.05c0.14-0.97-0.9-2.42-1.82-3.18
		c-5.77-4.81-10.6-10.41-13.09-17.51c-5.25-14.98-5.12-30.13-0.13-45.16c0.8-2.4,0.82-4.12-0.5-6.2
		c-12.52-19.79-30.32-30.94-53.7-33.1c-25.23-2.32-52.18,12.14-64.07,34.47c-0.57,1.07-1.01,2.78-0.56,3.74
		c4.16,8.92,4.17,18.39,4.13,27.92c-0.07,14.64-5.43,26.7-16.84,36.03C118.47,158.97,118.03,160.54,117.05,162.21z M123.82,80.79
		c16.31-23.69,38.75-37.21,68.09-37.25c29.29-0.04,51.74,13.47,68.01,36.84c4.5-2.86,8.71-5.48,12.86-8.21
		c0.77-0.51,1.46-1.34,1.84-2.18c1.9-4.21,3.76-8.43,5.42-12.74c0.36-0.93,0.22-2.61-0.4-3.25c-5.98-6.19-12.11-12.24-18.41-18.53
		c-5.16,3.36-10.11,6.73-15.23,9.79c-1.09,0.65-3.19,0.79-4.21,0.17c-9.15-5.56-18.84-9.73-29.29-12.06c-2-0.45-2.92-1.35-3.28-3.36
		c-0.87-4.79-2.1-9.51-2.92-14.3c-0.41-2.4-1.29-3.39-3.85-3.33c-6.99,0.16-14,0.14-20.99,0.01c-2.32-0.04-3.33,0.71-3.74,3.02
		c-0.82,4.67-2.09,9.26-2.85,13.93c-0.4,2.44-1.35,3.66-3.81,4.19c-10.22,2.22-19.72,6.27-28.53,11.88
		c-1.72,1.09-2.98,1.12-4.69-0.06c-4.92-3.37-9.98-6.54-15.46-10.1c-3.08,3.28-5.99,6.36-8.89,9.45c-3.4,3.62-8.93,6.89-9.6,10.95
		c-0.7,4.32,3.16,9.41,5.16,14.11c0.45,1.06,1.34,2.1,2.29,2.76C115.35,75.27,119.43,77.89,123.82,80.79z M38.97,276.91
		c7.56-30.26,15.01-60.08,22.47-89.91c-14.58-8.5-28.77-16.84-43.06-25c-1.54-0.88-3.67-0.73-5.98-1.13c0,2.22,0,3.69,0,5.17
		c0,16.61,0,33.22,0,49.82c0,16.23,0,32.47,0,48.7c0,1.87-0.21,3.55,2.34,4.34C22.7,271.36,30.59,274.11,38.97,276.91z
		 M50.76,280.82c4.35,1.44,8.41,2.78,12.67,4.19c2.79-9.79,5.45-19.14,8.13-28.48c4.84-16.9,9.74-33.79,14.47-50.73
		c0.4-1.42,0.32-3.98-0.53-4.57c-3.96-2.74-8.27-4.98-12.92-7.67C65.26,222.83,58.04,251.68,50.76,280.82z M167.19,365.87
		c2.14-0.74,3.59-0.83,4.4-1.6c4.42-4.21,8.87-8.42,12.93-12.97c2.22-2.49,1.56-6.16-0.75-8.52c-2.33-2.38-6-3.16-8.49-0.95
		c-4.65,4.13-9.12,8.52-13.09,13.29c-1.13,1.36-0.96,4.76-0.06,6.55C163.1,363.57,165.64,364.66,167.19,365.87z M111.47,310.16
		c1.98-0.67,3.31-0.73,4.04-1.43c4.58-4.39,9.24-8.73,13.44-13.47c2.11-2.38,1.16-6.34-1.17-8.49c-2.39-2.19-6.14-2.7-8.57-0.5
		c-4.42,4.02-8.8,8.18-12.55,12.8c-1.2,1.48-1.14,4.96-0.26,6.88C107.28,307.85,109.92,308.95,111.47,310.16z M149.53,310.12
		c-1.7-2.08-2.92-4.47-4.87-5.75c-2.61-1.72-5.59-1-7.89,1.21c-3.51,3.37-6.97,6.8-10.34,10.31c-3.31,3.44-3.42,7.36-0.47,10.3
		c2.93,2.92,6.85,2.77,10.3-0.54c3.33-3.2,6.64-6.43,9.76-9.83C147.3,314.43,148.06,312.56,149.53,310.12z M148.6,347.26
		c2.13-0.73,3.6-0.82,4.4-1.59c4.5-4.3,9.06-8.58,13.14-13.26c2.17-2.48,1.25-6.19-1.19-8.46c-2.35-2.18-6.17-2.71-8.58-0.53
		c-4.43,4.02-8.81,8.17-12.56,12.79c-1.2,1.47-1.12,4.95-0.25,6.87C144.43,344.98,147.05,346.06,148.6,347.26z M188.23,365.98
		c3.25,3.41,6.51,7.1,11.72,5.06c1.81-0.71,3.76-3.14,4.11-5.07c1.01-5.58-4.31-7.04-7.14-10.1
		C193.89,359.4,191.1,362.64,188.23,365.98z"/>
</g>
</svg>
