<?xml version="1.0" encoding="utf-8"?>
<!-- Generator: Adobe Illustrator 24.0.2, SVG Export Plug-In . SVG Version: 6.00 Build 0)  -->
<svg version="1.1" id="Capa_1" xmlns="http://www.w3.org/2000/svg" xmlns:xlink="http://www.w3.org/1999/xlink" x="0px" y="0px"
	 viewBox="0 0 383.27 377.01" style="enable-background:new 0 0 383.27 377.01;" xml:space="preserve">
<style type="text/css">
	.st0{fill-rule:evenodd;clip-rule:evenodd;}
	.st1{fill:#FFFFFF;}
	.st2{fill:#DDA223;}
	.st3{fill:#274885;}
</style>
<g>
	<path d="M383.27,365.9c-1.74,3.29-4.21,5.3-8.15,4.35c-3.23-0.78-4.6-3.4-4.6-8.38c0-95.43,0-190.86,0-286.29c0-1.6,0-3.2,0-5.04
		c-21.3,0-42.31,0-63.85,0c0,1.78,0,3.47,0,5.17c0,96.8,0,193.61,0,290.41c0,1.5,0.07,3-0.08,4.49c-0.39,3.9-2.62,6.04-6.56,6.36
		c-1.12,0.09-2.24,0.03-3.37,0.03c-69.98,0-139.97,0-209.95,0c-8.46,0-10.1-1.63-10.1-10.03c0-84.2,0-168.41,0-252.61
		c0-1.73,0-3.46,0-5.47c-21.33,0-42.33,0-63.85,0c0,1.61,0,3.18,0,4.75c0,82.33,0,164.67,0,247c0,1.37,0.08,2.76-0.07,4.11
		c-0.37,3.4-2.97,5.71-6.27,5.72c-3.3,0.01-5.91-2.29-6.33-5.67c-0.14-1.11-0.07-2.24-0.07-3.36c0-85.45,0-170.9,0-256.35
		c0-7.39,1.87-9.24,9.33-9.25c20.83-0.01,41.67,0,62.5,0c1.46,0,2.92,0,4.78,0c0-1.89,0-3.36,0-4.82c0-27.07,0-54.14,0-81.21
		c0-8,1.75-9.78,9.59-9.78c70.36,0,140.71,0,211.07,0c7.44,0,9.38,1.9,9.38,9.24c0.01,14.6,0,29.19,0,43.79c0,1.35,0,2.7,0,4.5
		c1.65,0,2.98,0,4.32,0c21.21,0,42.41,0.07,63.62-0.06c3.89-0.02,6.76,1.12,8.66,4.53C383.27,163.3,383.27,264.6,383.27,365.9z
		 M146.86,364.02c0-1.72,0-3.08,0-4.44c0-18.96-0.01-37.92,0-56.87c0-6.75,1.99-8.76,8.63-8.76c24.07-0.01,48.14-0.01,72.22,0
		c6.69,0,8.69,2,8.69,8.71c0.01,18.96,0,37.92,0,56.87c0,1.44,0,2.89,0,4.37c19.39,0,38.25,0,57.19,0c0-117.12,0-233.92,0-350.8
		c-68.13,0-136,0-203.92,0c0,117.13,0,233.93,0,350.92C108.73,364.02,127.51,364.02,146.86,364.02z M198.33,306.86
		c0,19.24,0,38.1,0,57.03c8.53,0,16.77,0,25.05,0c0-19.18,0-38.04,0-57.03C214.95,306.86,206.78,306.86,198.33,306.86z
		 M159.92,306.86c0,19.28,0,38.13,0,57.02c8.52,0,16.76,0,25.04,0c0-19.18,0-38.02,0-57.02
		C176.51,306.86,168.33,306.86,159.92,306.86z"/>
	<path d="M338.79,134.2c3.99,0,7.98-0.11,11.96,0.03c4.54,0.16,6.92,2.53,6.97,7.03c0.1,8.1,0.1,16.2-0.01,24.3
		c-0.06,4.45-2.51,6.91-7.05,6.99c-8.1,0.13-16.2,0.14-24.3,0c-4.56-0.08-6.84-2.5-6.89-7.06c-0.08-8.1-0.09-16.2,0-24.3
		c0.05-4.57,2.32-6.71,6.97-6.98c0.25-0.01,0.5-0.01,0.75-0.01c3.86,0,7.73,0,11.59,0C338.79,134.19,338.79,134.19,338.79,134.2z
		 M332.53,147.15c0,4.33,0,8.33,0,12.41c4.22,0,8.15,0,12.17,0c0-4.25,0-8.26,0-12.41C340.56,147.15,336.72,147.15,332.53,147.15z"
		/>
	<path d="M319.46,306.47c0-3.99-0.07-7.98,0.02-11.96c0.1-4.4,2.3-6.92,6.55-7c8.34-0.16,16.7-0.16,25.04,0
		c4.21,0.08,6.59,2.68,6.65,6.99c0.1,8.1,0.11,16.2,0,24.3c-0.06,4.53-2.42,6.89-7,6.96c-8.1,0.12-16.2,0.12-24.3,0
		c-4.65-0.07-6.84-2.35-6.94-6.95C319.39,314.7,319.46,310.58,319.46,306.47z M344.77,312.8c0-4.32,0-8.23,0-12.29
		c-4.24,0-8.26,0-12.33,0c0,4.22,0,8.16,0,12.29C336.59,312.8,340.53,312.8,344.77,312.8z"/>
	<path d="M319.47,255.12c0-3.99-0.08-7.98,0.02-11.96c0.12-4.34,2.44-6.68,6.8-6.72c8.22-0.09,16.45-0.1,24.67,0.01
		c4.22,0.05,6.7,2.55,6.76,6.85c0.11,8.22,0.12,16.45-0.01,24.67c-0.07,4.25-2.59,6.64-6.88,6.68c-8.22,0.08-16.45,0.09-24.67-0.01
		c-4.34-0.05-6.57-2.37-6.67-6.81C319.39,263.59,319.46,259.36,319.47,255.12z M332.43,261.65c4.26,0,8.26,0,12.27,0
		c0-4.28,0-8.29,0-12.3c-4.22,0-8.15,0-12.27,0C332.43,253.46,332.43,257.39,332.43,261.65z"/>
	<path d="M338.65,121.37c-3.99,0-7.98,0.07-11.96-0.02c-4.91-0.1-7.15-2.25-7.2-7.06c-0.08-8.1-0.08-16.2,0.01-24.3
		c0.05-4.35,2.37-6.83,6.65-6.9c8.22-0.14,16.45-0.13,24.67-0.01c4.43,0.07,6.86,2.61,6.92,7.11c0.09,8.1,0.1,16.2-0.01,24.3
		c-0.06,4.33-2.45,6.69-6.74,6.83c-4.11,0.13-8.22,0.03-12.33,0.03C338.65,121.36,338.65,121.37,338.65,121.37z M344.8,96.07
		c-4.41,0-8.34,0-12.25,0c0,4.29,0,8.32,0,12.25c4.25,0,8.18,0,12.25,0C344.8,104.14,344.8,100.21,344.8,96.07z"/>
	<path d="M338.63,185.37c3.99,0,7.98-0.06,11.96,0.02c4.56,0.08,7.06,2.38,7.13,6.82c0.11,8.22,0.12,16.45-0.01,24.67
		c-0.07,4.22-2.63,6.69-6.89,6.74c-8.22,0.1-16.45,0.11-24.67-0.01c-4.26-0.06-6.61-2.52-6.66-6.87c-0.09-8.22-0.1-16.45,0.01-24.67
		c0.06-4.38,2.37-6.51,6.8-6.69c0.25-0.01,0.5-0.01,0.75-0.01C330.91,185.37,334.77,185.37,338.63,185.37z M332.42,210.66
		c4.2,0,8.2,0,12.31,0c0-4.24,0-8.25,0-12.24c-4.28,0-8.29,0-12.31,0C332.42,202.63,332.42,206.55,332.42,210.66z"/>
	<path d="M70.32,258.76c0,7.84-1.82,9.65-9.72,9.64c-7.8,0-9.55-1.81-9.54-9.84c0.01-7.7,1.81-9.41,9.93-9.41
		C68.53,249.16,70.32,251,70.32,258.76z"/>
	<path d="M35.1,293.95c-7.83,0-9.58-1.79-9.58-9.78c0-7.77,1.8-9.51,9.85-9.5c7.66,0.01,9.43,1.87,9.42,9.95
		C44.78,292.1,42.86,293.95,35.1,293.95z"/>
	<path d="M60.78,274.67c7.8,0,9.55,1.8,9.54,9.81c0,7.71-1.85,9.47-9.9,9.46c-7.62-0.01-9.38-1.89-9.37-10.01
		C51.06,276.47,52.95,274.67,60.78,274.67z"/>
	<path d="M35.03,319.46c-7.79,0-9.51-1.78-9.51-9.81c0-7.7,1.84-9.45,9.92-9.44c7.61,0.01,9.37,1.9,9.35,10.03
		C44.78,317.68,42.88,319.47,35.03,319.46z"/>
	<path d="M70.32,309.82c0,7.88-1.77,9.65-9.68,9.65c-7.83,0-9.59-1.79-9.59-9.75c0-7.75,1.83-9.5,9.88-9.49
		C68.49,300.22,70.32,302.1,70.32,309.82z"/>
	<path d="M35.14,249.15c7.88,0,9.65,1.78,9.65,9.7c0,7.77-1.84,9.56-9.84,9.55c-7.69-0.01-9.44-1.84-9.43-9.93
		C25.53,250.93,27.36,249.15,35.14,249.15z"/>
	<path d="M25.52,233.13c0-7.81,1.73-9.48,9.79-9.48c7.79,0,9.49,1.76,9.48,9.82c-0.01,7.53-1.87,9.34-9.63,9.34
		C27.25,242.81,25.52,241.07,25.52,233.13z"/>
	<path d="M70.32,233.42c0,7.67-1.85,9.41-9.93,9.4c-7.65-0.02-9.35-1.84-9.34-10.01c0.01-7.5,1.86-9.16,10.14-9.15
		C68.63,223.66,70.32,225.48,70.32,233.42z"/>
	<path d="M60.72,140.59c-7.92,0-9.67-1.74-9.67-9.65c0-7.81,1.81-9.57,9.8-9.56c7.73,0.01,9.47,1.82,9.46,9.88
		C70.31,138.81,68.48,140.59,60.72,140.59z"/>
	<path d="M35.01,140.59c-7.79,0-9.49-1.76-9.48-9.81c0-7.58,1.85-9.4,9.57-9.4c7.89,0,9.7,1.81,9.7,9.67
		C44.79,138.86,43.01,140.59,35.01,140.59z"/>
	<path d="M25.52,335.33c0-7.81,1.78-9.53,9.79-9.52c7.78,0.01,9.49,1.79,9.48,9.87c-0.01,7.62-1.82,9.3-10.01,9.29
		C27.26,344.96,25.52,343.15,25.52,335.33z"/>
	<path d="M60.64,344.97c-7.88,0-9.59-1.74-9.59-9.7c0-7.73,1.82-9.47,9.88-9.46c7.7,0.01,9.4,1.8,9.39,9.94
		C70.31,343.23,68.49,344.97,60.64,344.97z"/>
	<path d="M60.86,198.13c7.82,0,9.46,1.7,9.46,9.78c-0.01,7.62-1.8,9.29-9.98,9.28c-7.67-0.01-9.31-1.77-9.29-9.98
		C51.07,199.82,52.9,198.13,60.86,198.13z"/>
	<path d="M60.98,172.59c7.74,0.01,9.35,1.71,9.34,9.89c-0.01,7.52-1.81,9.16-10.1,9.14c-7.58-0.01-9.19-1.78-9.17-10.08
		C51.07,174.29,52.96,172.58,60.98,172.59z"/>
	<path d="M35.06,191.63c-7.89,0-9.54-1.68-9.54-9.69c0-7.72,1.73-9.35,9.88-9.34c7.76,0.01,9.4,1.73,9.38,9.88
		C44.78,189.9,42.94,191.63,35.06,191.63z"/>
	<path d="M35.09,198.13c8,0,9.7,1.67,9.7,9.56c0,7.79-1.76,9.5-9.79,9.49c-7.83-0.01-9.49-1.71-9.48-9.77
		C25.53,199.83,27.28,198.13,35.09,198.13z"/>
	<path d="M60.56,166.1c-7.83,0-9.52-1.73-9.51-9.76c0.01-7.57,1.81-9.33,9.59-9.33c8.07,0,9.69,1.67,9.67,9.97
		C70.31,164.37,68.46,166.1,60.56,166.1z"/>
	<path d="M35.11,166.1c-7.91,0-9.59-1.69-9.59-9.66c0-7.76,1.76-9.44,9.84-9.43c7.76,0.01,9.44,1.77,9.43,9.87
		C44.78,164.37,42.96,166.1,35.11,166.1z"/>
	<path d="M281.04,51.36c0,5.85,0.05,11.71-0.02,17.56c-0.07,5.5-2.28,7.8-7.7,7.83c-11.83,0.07-23.66,0.06-35.49,0
		c-5.59-0.03-7.9-2.41-7.91-8.05c-0.04-11.71-0.04-23.41,0-35.12c0.02-5.64,2.3-7.98,7.94-8.01c11.71-0.06,23.41-0.05,35.12,0
		c5.9,0.02,8,2.21,8.05,8.22C281.08,39.65,281.04,45.51,281.04,51.36z M242.97,38.63c0,8.51,0,16.76,0,25.02c8.53,0,16.76,0,25.06,0
		c0-8.51,0-16.68,0-25.02C259.55,38.63,251.29,38.63,242.97,38.63z"/>
	<path d="M281.04,243.03c0,5.98,0.08,11.96-0.02,17.93c-0.08,5.02-2.37,7.37-7.35,7.4c-12.08,0.09-24.16,0.09-36.24,0
		c-5.11-0.04-7.47-2.51-7.49-7.71c-0.05-11.96-0.06-23.91,0-35.87c0.03-5.15,2.4-7.54,7.6-7.58c11.96-0.08,23.91-0.08,35.87,0
		c5.28,0.03,7.54,2.3,7.62,7.51C281.11,230.83,281.04,236.93,281.04,243.03z M268.05,230.24c-8.45,0-16.72,0-25.11,0
		c0,8.49,0,16.74,0,25.06c8.51,0,16.75,0,25.11,0C268.05,246.81,268.05,238.64,268.05,230.24z"/>
	<path d="M102.24,51.02c0-5.85-0.05-11.71,0.01-17.56c0.06-5.57,2.2-7.84,7.63-7.87c11.96-0.07,23.91-0.08,35.87,0
		c5.19,0.03,7.57,2.45,7.6,7.59c0.06,11.96,0.06,23.91,0,35.87c-0.02,5.18-2.39,7.66-7.5,7.7c-12.08,0.08-24.16,0.09-36.24,0
		c-5-0.04-7.26-2.38-7.34-7.41C102.17,63.23,102.25,57.13,102.24,51.02z M140.43,63.79c0-8.57,0-16.73,0-25.16
		c-8.44,0-16.7,0-25.13,0c0,8.44,0,16.7,0,25.16C123.71,63.79,131.87,63.79,140.43,63.79z"/>
	<path d="M102.24,242.63c0-5.85-0.05-11.71,0.01-17.56c0.06-5.56,2.21-7.82,7.65-7.86c11.96-0.07,23.91-0.08,35.87,0
		c5.18,0.04,7.55,2.45,7.58,7.61c0.06,11.96,0.06,23.91,0,35.87c-0.02,5.17-2.41,7.64-7.52,7.68c-12.08,0.08-24.16,0.09-36.24,0
		c-4.99-0.04-7.24-2.39-7.32-7.43C102.17,254.84,102.25,248.73,102.24,242.63z M140.49,230.26c-8.58,0-16.84,0-25.15,0
		c0,8.52,0,16.77,0,25.02c8.56,0,16.8,0,25.15,0C140.49,246.86,140.49,238.79,140.49,230.26z"/>
	<path d="M217.15,51.44c0,5.85,0.03,11.71-0.01,17.56c-0.03,5.28-2.24,7.7-7.38,7.74c-12.08,0.09-24.16,0.09-36.24,0
		c-5.03-0.04-7.35-2.42-7.37-7.37c-0.05-12.2-0.05-24.41,0-36.61c0.02-4.61,2.24-7.09,6.81-7.13c12.45-0.13,24.91-0.13,37.36,0
		c4.57,0.05,6.76,2.53,6.81,7.14C217.2,38.99,217.15,45.22,217.15,51.44z M179.1,63.73c8.49,0,16.76,0,25.01,0
		c0-8.53,0-16.8,0-25.16c-8.47,0-16.65,0-25.01,0C179.1,47.04,179.1,55.32,179.1,63.73z"/>
	<path d="M166.13,242.39c0-5.98-0.05-11.96,0.02-17.93c0.05-4.77,2.29-7.18,7.11-7.22c12.2-0.11,24.41-0.11,36.61,0
		c5.02,0.04,7.24,2.43,7.26,7.46c0.04,12.08,0.04,24.16,0,36.24c-0.02,4.99-2.31,7.4-7.31,7.43c-12.08,0.09-24.16,0.09-36.24,0
		c-5.2-0.04-7.41-2.42-7.44-7.68C166.1,254.59,166.13,248.49,166.13,242.39z M204.24,230.31c-8.63,0-16.89,0-25.17,0
		c0,8.5,0,16.69,0,25.07c8.46,0,16.74,0,25.17,0C204.24,246.94,204.24,238.74,204.24,230.31z"/>
	<path d="M127.62,204.39c-6.1,0-12.2,0.07-18.31-0.02c-4.65-0.07-6.99-2.25-7.03-6.85c-0.11-12.45-0.11-24.91,0.01-37.36
		c0.04-4.51,2.51-6.78,7.13-6.8c12.2-0.06,24.41-0.06,36.61,0c4.74,0.02,7.26,2.41,7.29,7.1c0.09,12.33,0.1,24.66,0,36.98
		c-0.04,4.49-2.51,6.85-7.03,6.92C140.08,204.46,133.85,204.39,127.62,204.39z M140.36,191.43c0-8.46,0-16.71,0-25.07
		c-8.5,0-16.76,0-25.01,0c0,8.52,0,16.77,0,25.07C123.83,191.43,131.99,191.43,140.36,191.43z"/>
	<path d="M191.65,89.56c6.1,0,12.21-0.05,18.31,0.02c4.83,0.05,7.14,2.31,7.17,7.08c0.06,12.33,0.06,24.66-0.01,36.99
		c-0.02,4.49-2.46,6.9-7,6.92c-12.33,0.07-24.66,0.07-36.99,0c-4.52-0.03-6.94-2.45-6.97-6.95c-0.06-12.33-0.06-24.66-0.01-36.99
		c0.02-4.76,2.34-7,7.19-7.05C179.45,89.51,185.55,89.56,191.65,89.56z M179.05,127.56c8.61,0,16.89,0,25.15,0
		c0-8.47,0-16.66,0-25.01c-8.45,0-16.72,0-25.15,0C179.05,110.95,179.05,119.13,179.05,127.56z"/>
	<path d="M166.13,178.76c0-5.85-0.02-11.71,0.01-17.56c0.03-5.5,2.25-7.83,7.61-7.85c11.96-0.04,23.91-0.04,35.87,0
		c5.19,0.02,7.5,2.35,7.51,7.57c0.04,11.96,0.04,23.91,0,35.87c-0.02,5.31-2.19,7.56-7.43,7.59c-12.08,0.06-24.16,0.06-36.24,0
		c-5.07-0.02-7.28-2.28-7.32-7.31C166.09,190.97,166.13,184.87,166.13,178.76z M179.04,191.44c8.58,0,16.76,0,25.14,0
		c0-8.45,0-16.72,0-25.1c-8.48,0-16.75,0-25.14,0C179.04,174.78,179.04,182.96,179.04,191.44z"/>
	<path d="M255.3,204.4c-5.98,0-11.96,0.05-17.93-0.02c-5.01-0.06-7.4-2.34-7.43-7.29c-0.07-12.08-0.07-24.16,0-36.24
		c0.03-5.14,2.45-7.48,7.66-7.5c11.96-0.04,23.91-0.04,35.87,0c5.2,0.02,7.53,2.28,7.56,7.54c0.07,12.08,0.08,24.16-0.01,36.24
		c-0.04,5.06-2.31,7.2-7.4,7.25C267.5,204.45,261.4,204.4,255.3,204.4z M242.94,166.21c0,8.6,0,16.86,0,25.13
		c8.53,0,16.79,0,24.96,0c0-8.54,0-16.78,0-25.13C259.48,166.21,251.41,166.21,242.94,166.21z"/>
	<path d="M127.97,89.56c6.1,0,12.2-0.06,18.31,0.02c4.51,0.06,7.02,2.41,7.05,6.89c0.1,12.33,0.09,24.66,0,36.98
		c-0.03,4.71-2.53,7.09-7.27,7.12c-12.2,0.06-24.41,0.06-36.61,0c-4.76-0.02-7.14-2.32-7.17-7.13c-0.09-12.33-0.1-24.66,0.01-36.98
		c0.04-4.62,2.38-6.81,7-6.87C115.52,89.5,121.74,89.56,127.97,89.56z M140.38,102.56c-8.49,0-16.75,0-25.05,0
		c0,8.5,0,16.75,0,24.96c8.55,0,16.8,0,25.05,0C140.38,119.04,140.38,110.88,140.38,102.56z"/>
	<path d="M255.65,89.56c6.1,0,12.2-0.06,18.31,0.02c4.65,0.06,7,2.22,7.04,6.84c0.11,12.45,0.11,24.91-0.01,37.36
		c-0.04,4.51-2.53,6.77-7.13,6.79c-12.2,0.06-24.41,0.06-36.61,0c-4.74-0.02-7.26-2.4-7.3-7.08c-0.09-12.33-0.09-24.66,0-36.98
		c0.03-4.5,2.51-6.86,7.02-6.92C243.19,89.5,249.42,89.56,255.65,89.56z M242.99,102.49c0,8.65,0,16.9,0,25.14
		c8.49,0,16.67,0,25.01,0c0-8.46,0-16.71,0-25.14C259.57,102.49,251.39,102.49,242.99,102.49z"/>
</g>
</svg>
