<?xml version="1.0" encoding="utf-8"?>
<!-- Generator: Adobe Illustrator 24.0.2, SVG Export Plug-In . SVG Version: 6.00 Build 0)  -->
<svg version="1.1" id="Capa_1" xmlns="http://www.w3.org/2000/svg" xmlns:xlink="http://www.w3.org/1999/xlink" x="0px" y="0px"
	 viewBox="0 0 21.92 21.89" style="enable-background:new 0 0 21.92 21.89;" xml:space="preserve">
<style type="text/css">
	.st0{fill:#DDA223;}
</style>
<g>
	<path class="st0" d="M4.12,1.7c0,0.56,0,1.1,0,1.65c0,0.13,0.01,0.26,0.04,0.39c0.17,0.85,0.95,1.45,1.82,1.41
		c0.86-0.04,1.58-0.7,1.68-1.55c0.01-0.11,0.02-0.22,0.02-0.33c0-0.52,0-1.04,0-1.56c2.19,0,4.37,0,6.56,0c0,0.05,0,0.09,0,0.14
		c0,0.51,0,1.01,0,1.52c0,0.94,0.7,1.69,1.64,1.78c0.88,0.08,1.7-0.54,1.88-1.43c0.02-0.12,0.03-0.25,0.04-0.37c0-0.5,0-1,0-1.5
		c0-0.05,0-0.1,0-0.14c0.02-0.01,0.03-0.02,0.05-0.02c0.71,0,1.42-0.02,2.13,0.01c1.07,0.05,1.91,0.95,1.94,2.02
		c0,0.04,0,0.09,0,0.13c0,5.29,0,10.58,0,15.87c0,0.99-0.58,1.8-1.49,2.07c-0.19,0.06-0.39,0.09-0.59,0.09c-5.92,0-11.85,0-17.77,0
		c-1.12,0-2.04-0.9-2.07-2.03c0-0.03,0-0.06,0-0.08C0,14.45,0,9.13,0,3.81c0-0.97,0.62-1.79,1.54-2.04C1.72,1.72,1.91,1.7,2.09,1.69
		c0.64-0.01,1.28,0,1.93,0C4.05,1.69,4.07,1.69,4.12,1.7z M1.67,7.64c0,0.06,0,0.1,0,0.14c0,3.78,0,7.56,0,11.34
		c0,0.66,0.44,1.1,1.1,1.1c5.46,0,10.91,0,16.37,0c0.66,0,1.1-0.44,1.1-1.1c0-3.79,0-7.57,0-11.36c0-0.04,0-0.08,0-0.13
		C14.05,7.64,7.87,7.64,1.67,7.64z"/>
	<path class="st0" d="M6.72,2.09c0,0.43,0,0.85,0,1.28c0,0.4-0.31,0.74-0.69,0.8c-0.42,0.06-0.8-0.18-0.92-0.58
		C5.09,3.52,5.08,3.44,5.08,3.37c0-0.85-0.01-1.71,0-2.56c0-0.41,0.31-0.75,0.7-0.8c0.41-0.05,0.79,0.19,0.9,0.58
		c0.03,0.09,0.03,0.18,0.04,0.27C6.72,1.27,6.72,1.68,6.72,2.09z"/>
	<path class="st0" d="M16.84,2.09c0,0.41,0,0.82,0,1.23c0,0.49-0.35,0.85-0.82,0.85c-0.47,0-0.82-0.37-0.82-0.86
		c0-0.82,0-1.64,0-2.46C15.2,0.37,15.55,0,16.02,0c0.47,0,0.82,0.37,0.82,0.86C16.84,1.27,16.84,1.68,16.84,2.09z"/>
	<path class="st0" d="M18.14,14.58c0,1.17,0,2.33,0,3.5c-1.58,0-3.15,0-4.72,0c0-1.17,0-2.33,0-3.5
		C14.99,14.58,16.55,14.58,18.14,14.58z"/>
</g>
</svg>
