<?xml version="1.0" encoding="utf-8"?>
<!-- Generator: Adobe Illustrator 24.0.2, SVG Export Plug-In . SVG Version: 6.00 Build 0)  -->
<svg version="1.1" id="Capa_1" xmlns="http://www.w3.org/2000/svg" xmlns:xlink="http://www.w3.org/1999/xlink" x="0px" y="0px"
	 viewBox="0 0 522.76 521.97" style="enable-background:new 0 0 522.76 521.97;" xml:space="preserve">
<style type="text/css">
	.st0{fill-rule:evenodd;clip-rule:evenodd;}
	.st1{fill:#FFFFFF;}
	.st2{fill:#DDA223;}
	.st3{fill:#274885;}
</style>
<g>
	<path d="M98.19,40.49c0,13.32-0.06,26.35,0.04,39.37c0.03,3.12,0.35,6.28,0.98,9.33c4.15,20.2,22.65,34.47,43.32,33.57
		c20.53-0.9,37.59-16.58,40.14-36.99c0.33-2.63,0.41-5.31,0.42-7.96c0.04-12.36,0.02-24.72,0.02-37.29c52.18,0,104.16,0,156.54,0
		c0,1.15,0,2.25,0,3.35c0,12.08-0.04,24.16,0.01,36.24c0.09,22.46,16.61,40.4,39.16,42.56c20.9,2.01,40.47-12.8,44.86-34.05
		c0.59-2.86,0.83-5.85,0.85-8.78c0.09-11.89,0.04-23.78,0.04-35.67c0-1.13,0-2.27,0-3.46c0.49-0.17,0.83-0.38,1.17-0.38
		c16.93,0.05,33.89-0.5,50.78,0.33c25.44,1.25,45.54,22.73,46.19,48.22c0.03,1.05,0.04,2.09,0.04,3.14
		c0,126.14,0.01,252.29-0.01,378.43c0,23.55-13.86,42.97-35.45,49.31c-4.5,1.32-9.34,2.11-14.02,2.11
		c-141.27,0.11-282.53,0.1-423.8,0.08c-26.64-0.01-48.57-21.53-49.44-48.35c-0.02-0.67-0.03-1.33-0.03-2
		C0,344.7-0.01,217.8,0.02,90.9c0.01-23.15,14.71-42.68,36.69-48.66c4.26-1.16,8.8-1.77,13.22-1.83
		c15.31-0.22,30.63-0.09,45.95-0.09C96.52,40.31,97.17,40.41,98.19,40.49z M39.88,182.14c0,1.38,0,2.41,0,3.44
		c0,90.18,0,180.36,0,270.53c0,15.71,10.6,26.3,26.32,26.3c130.13,0,260.25,0,390.38,0c15.7,0,26.29-10.61,26.29-26.34
		c0.01-90.27,0.01-180.55,0.01-270.82c0-1.01,0-2.02,0-3.12C335.08,182.14,187.67,182.14,39.88,182.14z"/>
	<path d="M160.25,49.88c0,10.17,0.09,20.35-0.03,30.52c-0.11,9.58-7.29,17.76-16.48,19.04c-9.98,1.4-19.04-4.28-21.83-13.79
		c-0.5-1.71-0.84-3.55-0.84-5.32c-0.06-20.35-0.15-40.7,0.01-61.04c0.08-9.79,7.4-17.86,16.75-19.1c9.78-1.3,18.79,4.42,21.53,13.85
		c0.6,2.06,0.83,4.3,0.85,6.46C160.3,30.29,160.25,40.08,160.25,49.88z"/>
	<path d="M401.7,49.88c0,9.79,0.01,19.58,0,29.37c-0.02,11.67-8.4,20.37-19.63,20.38c-11.14,0.01-19.55-8.76-19.56-20.45
		c-0.02-19.58-0.02-39.16,0-58.74c0.01-11.68,8.42-20.38,19.64-20.38c11.16,0,19.55,8.78,19.55,20.45
		C401.71,30.3,401.7,40.09,401.7,49.88z"/>
	<path d="M432.67,367.74c0,21.25,0,42.24,0,63.52c-28.65,0-57.1,0-85.72,0c0-21.26,0-42.27,0-63.52
		C375.48,367.74,403.81,367.74,432.67,367.74z"/>
</g>
</svg>
