<?xml version="1.0" encoding="utf-8"?>
<!-- Generator: Adobe Illustrator 24.0.2, SVG Export Plug-In . SVG Version: 6.00 Build 0)  -->
<svg version="1.1" id="Capa_1" xmlns="http://www.w3.org/2000/svg" xmlns:xlink="http://www.w3.org/1999/xlink" x="0px" y="0px"
	 viewBox="0 0 384 384" style="enable-background:new 0 0 384 384;" xml:space="preserve">
<style type="text/css">
	.st0{fill:#274885;}
	.st1{fill:#FFFFFF;}
	.st2{fill-rule:evenodd;clip-rule:evenodd;fill:#FFFFFF;}
	.st3{fill:#DDA223;}
	.st4{fill:#FBFBFB;}
	.st5{fill:#274886;}
	.st6{fill:#5473B3;}
</style>
<g>
	<g>
		<path class="st0" d="M180,0c8,0,16,0,24,0c6.41,0.84,12.86,1.46,19.23,2.54c36.46,6.18,68.7,21.4,96.24,46.1
			c33.09,29.68,53.77,66.45,61.57,110.3c1.24,6.97,1.99,14.04,2.96,21.06c0,8,0,16,0,24c-0.21,0.97-0.55,1.92-0.62,2.9
			c-2.53,32.92-12.69,63.32-31.12,90.67c-30.59,45.4-72.89,73.39-126.82,83.45c-7.08,1.32-14.29,2-21.44,2.98c-8,0-16,0-24,0
			c-0.96-0.21-1.91-0.54-2.88-0.62c-38.25-3.05-72.68-16.15-102.83-39.85c-38.8-30.5-62.75-70.13-71.42-118.81
			C1.65,217.86,0.94,210.91,0,204c0-8,0-16,0-24c0.55-4.57,1.03-9.15,1.67-13.71c5.47-38.91,21.09-73.22,47.42-102.38
			C78.78,31.02,115.52,10.49,159.3,2.9C166.16,1.71,173.1,0.95,180,0z M181.33,241.94c0.45,1.38,0.82,2.41,1.12,3.47
			c5.43,18.94,10.88,37.88,16.27,56.84c0.97,3.42,2.68,5.96,6.53,6.18c3.99,0.23,6.09-2.07,7.36-5.63
			c22.55-63.2,45.14-126.38,67.74-189.56c1.1-3.08,1.14-5.91-1.28-8.32c-2.43-2.42-5.27-2.34-8.33-1.24
			c-63.18,22.61-126.37,45.21-189.57,67.76c-3.42,1.22-5.66,3.18-5.57,7.01c0.09,4.04,2.67,5.83,6.26,6.84
			c12.25,3.43,24.47,6.96,36.7,10.46c7.76,2.22,15.52,4.46,23.56,6.77c-0.63,1.69-1.09,2.96-1.57,4.22
			c-5.38,14.37-10.74,28.74-16.14,43.1c-1.18,3.13-1.47,6.13,1.12,8.68c2.58,2.54,5.59,2.23,8.71,1.04
			c6.99-2.66,14.02-5.25,21.03-7.87C163.87,248.48,172.48,245.26,181.33,241.94z"/>
		<path class="st0" d="M206.45,279.25c-2.89-10.07-5.49-19.15-8.09-28.23c-3.84-13.42-7.67-26.85-11.54-40.26
			c-0.54-1.88-0.71-3.29,0.97-4.97c22.59-22.44,45.08-44.98,67.6-67.49c0.34-0.34,0.75-0.63,2-1.66
			C240.29,184.49,223.55,231.38,206.45,279.25z"/>
		<path class="st0" d="M105.15,177.43c47.57-16.99,94.44-33.73,142.37-50.85c-1.54,1.66-2.26,2.5-3.04,3.27
			c-21.89,21.9-43.8,43.8-65.68,65.7c-1.43,1.43-2.54,2.55-5.08,1.8c-21.9-6.42-43.85-12.62-65.79-18.89
			C107.23,178.27,106.55,177.96,105.15,177.43z"/>
		<path class="st0" d="M142,242.01c4.68-12.48,8.96-23.88,13.39-35.68c5.47,1.55,10.83,2.98,16.1,4.66c0.8,0.25,1.51,1.55,1.8,2.51
			c1.51,4.87,2.86,9.78,4.4,15.12C166.07,232.98,154.51,237.32,142,242.01z"/>
	</g>
</g>
</svg>
