<?xml version="1.0" encoding="utf-8"?>
<!-- Generator: Adobe Illustrator 24.0.2, SVG Export Plug-In . SVG Version: 6.00 Build 0)  -->
<svg version="1.1" id="Capa_1" xmlns="http://www.w3.org/2000/svg" xmlns:xlink="http://www.w3.org/1999/xlink" x="0px" y="0px"
	 viewBox="0 0 371.67 371.72" style="enable-background:new 0 0 371.67 371.72;" xml:space="preserve">
<style type="text/css">
	.st0{fill:#274885;}
	.st1{fill:#FFFFFF;}
	.st2{fill-rule:evenodd;clip-rule:evenodd;fill:#FFFFFF;}
	.st3{fill:#DDA223;}
	.st4{fill:#FBFBFB;}
	.st5{fill:#274886;}
	.st6{fill:#5473B3;}
</style>
<g>
	<path class="st1" d="M239.34,326.24c-7.19,1.96-14.28,4.4-21.57,5.76c-8.92,1.66-17.99,2.54-27.02,3.48
		c-2.19,0.23-3.49,0.69-4.67,2.71c-12.55,21.59-31.35,32.97-56.36,33.34c-21.95,0.32-43.91,0.16-65.86,0.05
		C28.43,371.39,0.3,343.18,0.1,307.77c-0.04-6.48-0.01-12.96-0.01-19.85c11.91,0,23.68,0,35.92,0c0-4.22,0.11-8.04-0.09-11.85
		c-0.04-0.81-1.08-1.81-1.9-2.29c-7.97-4.63-11.49-12.2-9.36-20.4c2.14-8.22,8.95-13.35,17.96-13.53c0.97-0.02,1.94-0.1,2.78-0.14
		c-2.16-8.15-4.65-16.11-6.35-24.23c-4.85-23.1-3.9-46.1,2.35-68.85c0.66-2.4,0.44-4.16-0.95-6.22
		c-10.1-14.99-20.23-29.96-30.08-45.11C-11.16,62.19,2.17,18.72,38.09,4.47c34.11-13.53,72.75,7.16,80.31,42.99
		c0.28,1.32,0.62,2.63,0.93,3.95c52.14-23.28,102.26-20,150.76,10.64c3.13-4.13,6.34-8.36,9.46-12.47
		c-12.2-12.17-24.35-24.29-36.9-36.8c4.57-4.57,8.49-8.67,12.67-12.49c0.65-0.6,2.55-0.19,3.73,0.2
		c15.85,5.22,31.69,10.46,47.47,15.87c2.48,0.85,3.95,0.44,5.84-1.32c12.77-11.88,31.78-11.59,43.84,0.51
		c11.97,12.01,12.33,30.88,0.58,43.54c-2.05,2.21-2.18,3.9-1.29,6.51c5.31,15.56,10.4,31.18,15.71,46.74
		c0.83,2.43,0.65,4.03-1.32,5.83c-3.49,3.2-6.67,6.73-10.19,10.33c-12.31-12.51-24.41-24.82-36.53-37.14
		c-5.02,3.78-9.28,6.98-13.75,10.34c14.93,22.26,23.64,46.6,25.6,73.28c1.96,26.69-3.11,52.05-14.65,76.6
		c1.33,0.09,2.37,0.22,3.4,0.22c9.73,0.02,19.46-0.05,29.19,0.03c10.69,0.08,18.38,7.75,18.4,18.48c0.06,27.57,0.05,55.14,0,82.7
		c-0.02,10.89-7.73,18.54-18.7,18.55c-31.43,0.04-62.87,0.04-94.3,0c-11.13-0.02-18.65-7.69-18.71-18.93
		c-0.05-8.61-0.03-17.21-0.06-25.82C239.57,326.62,239.41,326.4,239.34,326.24z M275.58,263.81c-5.76,0-10.99-0.02-16.21,0
		c-5.8,0.02-7.76,2.02-7.76,7.94c-0.01,26.69-0.01,53.37,0,80.06c0,5.82,2.01,7.8,7.91,7.8c30.68,0.01,61.35,0.01,92.03,0
		c5.85,0,7.84-2.01,7.84-7.87c0.01-18.21,0.01-36.41,0.01-54.62c0-8.85-0.01-17.71,0-26.56c0.01-3.43-1.48-6.27-4.87-6.51
		c-6.27-0.44-12.6-0.13-19.3-0.13c0,8.18,0,15.96,0,23.62c-20.07,0-39.72,0-59.65,0C275.58,279.65,275.58,271.96,275.58,263.81z
		 M12.08,299.74c0,3.26-0.03,6.1,0.01,8.94c0.37,27.75,23.13,50.64,50.91,50.89c22.57,0.2,45.14,0.16,67.71,0
		c13.82-0.1,25.77-5.24,35.68-14.84c5.96-5.78,10.38-12.59,12.92-21.03c-1.94,0-3.41,0-4.89,0c-36.29,0-72.57-0.03-108.86,0.06
		c-2.49,0.01-3.77-0.73-4.82-2.97c-2.96-6.31-6.09-12.55-9.36-18.7c-0.56-1.05-2.11-2.23-3.22-2.24
		C36.32,299.68,24.48,299.74,12.08,299.74z M228.49,120.33c-29.01,0-56.75,0-84.51,0c-3.94,19.78-5.68,39.52-6.03,59.4
		c32.12,0,63.72,0,96.41,0C232.38,159.73,230.44,140.08,228.49,120.33z M137.21,192.09c1.52,15.85,2.96,31.22,4.57,46.56
		c0.09,0.88,1.47,1.66,2.33,2.41c3.11,2.74,6.64,5.14,9.24,8.3c1.45,1.76,2.51,2.52,4.7,2.51c22.08-0.07,44.16-0.04,66.23-0.05
		c1.08,0,2.16-0.12,3.14-0.19c3.74-16.17,7.2-53.43,5.57-59.54C201.46,192.09,169.93,192.09,137.21,192.09z M12.07,59.44
		c-0.12,11.26,2.44,20.49,7.97,28.83c11.57,17.44,23.16,34.85,34.8,52.24c3.03,4.53,7.16,4.62,10.15,0.16
		c11.85-17.69,23.75-35.36,35.37-53.2c7.51-11.54,9.31-24.35,6.3-37.66c-5.38-23.82-27.97-40.06-51.44-37.31
		C30.2,15.43,12.1,35.66,12.07,59.44z M323.19,192.18c-25.91,0-51.63,0-76.8,0c-1.95,20.01-3.86,39.74-5.8,59.65
		c21.2,0,42.76,0.03,64.31-0.1c0.97-0.01,2.36-1.22,2.82-2.22c2.77-5.98,5.63-11.94,7.88-18.12
		C320.18,218.81,322.62,205.78,323.19,192.18z M125.47,192.27c-25.79,0-51.49,0-77.27,0c0.75,15.51,3.91,30.15,9.43,44.31
		c0.96,2.45,2.11,3.35,4.82,3.33c21.19-0.13,42.38-0.07,63.57-0.07c1.17,0,2.34,0,3.25,0C127.97,223.65,126.72,208.03,125.47,192.27
		z M47.88,179.72c26.36,0,52.07,0,77.74,0c0.63-10.07,0.99-19.9,1.94-29.68c0.96-9.9,2.52-19.75,3.82-29.66
		c-0.09-0.04-0.32-0.21-0.55-0.21c-11.97-0.04-23.93-0.12-35.9,0.02c-1.13,0.01-2.59,1.23-3.32,2.29
		c-5.36,7.81-10.56,15.72-15.82,23.59c-6.4,9.58-12.69,11.78-24.42,7.99C50.2,162.63,49.05,171.05,47.88,179.72z M285.87,160.07
		c-5.53-11.05-10.83-21.49-15.97-32.01c-1.13-2.31-2.05-3.42-4.96-2.5c-4.55,1.44-9.31,0.56-12.61-2.72
		c-3.89-3.87-8.11-2.46-11.73-2.64c1.92,20.03,3.82,39.81,5.7,59.5c25.46,0,51.1,0,76.88,0c-1.36-26.09-9.08-49.68-24.1-70.78
		c-0.31,1.1-0.18,2.06,0.06,3c2.08,8.34,4.22,16.66,6.22,25.02c0.29,1.2,0.46,3.05-0.21,3.75
		C298.97,147.14,292.58,153.4,285.87,160.07z M334.59,18.26c-6.01,0.11-10.7,2.08-14.58,5.98c-6.15,6.18-12.4,12.27-18.46,18.55
		c-18.07,18.74-32.32,40.06-42.8,63.9c-0.92,2.1-1.98,4.15,0.1,6.16c2.03,1.97,4.06,0.98,6.19,0.08
		c33.17-14.06,59.87-36.78,83.87-63c5.33-5.82,5.97-13.1,2.65-20.29C348.18,22.3,342.09,18.7,334.59,18.26z M224.81,107.95
		c-0.87-3.22-1.78-6.17-2.46-9.19c-1.29-5.8-3.37-10.9-9.87-12.6c-0.15-0.04-0.21-0.4-0.4-0.77c0.79-0.84,1.83-1.62,2.42-2.65
		c0.53-0.93,1.12-2.37,0.77-3.18c-4.03-9.3-8.7-18.23-16.28-25.23c-8.73-8.06-17.39-8.08-26.23-0.16c-0.83,0.75-1.66,1.52-2.39,2.36
		c-12.9,14.79-18.55,32.86-23.66,51.43C172.93,107.95,198.69,107.95,224.81,107.95z M225.06,263.81c-23.39,0-45.94-0.01-68.49,0.05
		c-0.79,0-1.82,0.58-2.34,1.22c-2.42,2.92-4.7,5.96-7.36,9.4c4.98,9.96,10.57,20.38,15.41,31.13c2.16,4.79,4.68,6.71,10,6.24
		c6.38-0.56,12.84-0.13,19.39-0.13c0,2.15,0,3.76,0,5.37c0,1.58,0,3.17,0,4.75c0.38,0.16,0.76,0.32,1.14,0.49
		C212.68,308.22,217.99,285.91,225.06,263.81z M48.16,287.76c2.16,0,3.92,0.18,5.63-0.04c2.88-0.37,4.45,0.66,5.67,3.4
		c2.58,5.79,5.81,11.3,8.36,17.1c1.28,2.91,3.03,3.56,5.98,3.55c24.67-0.11,49.35-0.06,74.03-0.06c1.21,0,2.42,0,4.05,0
		c-0.67-1.52-1.1-2.65-1.64-3.73c-4.84-9.69-9.78-19.32-14.48-29.07c-1.14-2.36-2.42-3.2-5.05-3.19
		c-26.29,0.1-52.59,0.06-78.89,0.07c-1.2,0-2.4,0.11-3.65,0.17C48.16,279.97,48.16,283.66,48.16,287.76z M101.12,108.11
		c9.95,0,19.15-0.22,28.32,0.11c3.84,0.14,5.26-1.01,6.2-4.75c4.63-18.47,11.2-36.14,22.83-51.54c0.08-0.11-0.09-0.4-0.2-0.85
		c-12.55,2.44-24.39,6.79-35.78,12.52c-2.19,1.1-3.07,2.47-3.27,4.83c-0.85,10.02-4.4,19.1-9.95,27.44
		C106.72,99.7,104.17,103.53,101.12,108.11z M89.92,263.81c8.11,0,16.22,0,24.32,0c7.73,0,15.47,0.06,23.2-0.04
		c3.82-0.05,6.34-2.57,6.33-5.96c0-3.4-2.52-5.77-6.34-5.97c-1-0.05-2-0.01-2.99-0.01c-27.32,0-54.64,0-81.95,0
		c-3.62,0-7.34-0.49-10.81,0.23c-2.03,0.42-4.57,2.49-5.18,4.37c-0.54,1.67,0.8,4.52,2.19,6.06c0.99,1.11,3.42,1.26,5.21,1.27
		C59.23,263.84,74.58,263.81,89.92,263.81z M212.74,320.27c0.22,0.37,0.44,0.74,0.67,1.1c7.78-2.51,15.55-5.07,23.36-7.5
		c2.29-0.71,2.93-1.98,2.91-4.35c-0.11-15.15-0.06-30.3-0.06-46.38c-1.16,1.07-2.67,1.78-2.94,2.82
		C231.56,285.33,225.07,304.06,212.74,320.27z M323.29,264.07c-12.06,0-23.81,0-35.46,0c0,4.05,0,7.83,0,11.52
		c11.97,0,23.63,0,35.46,0C323.29,271.7,323.29,268.01,323.29,264.07z M225.73,72.05c4.23-8.92,10.88-5.4,17.24-3.69
		c1.68,0.45,3.39,0.82,5.08,1.23c4.89,1.2,9.77,2.41,14.65,3.62c0.11-0.34,0.22-0.68,0.33-1.02c-15.1-10.42-31.66-17.4-49.87-21.08
		C217.32,58.02,221.27,64.62,225.73,72.05z M263.26,14.51c8.31,8.43,16.51,16.75,24.77,25.12c3.96-4.15,7.97-8.35,12.21-12.79
		C287.66,22.65,275.53,18.6,263.26,14.51z M357.32,108.86c-4.21-12.63-8.28-24.82-12.55-37.61c-4.2,4.81-8.01,9.18-11.68,13.38
		C340.45,91.99,348.63,100.17,357.32,108.86z M252.06,92.66c1.54-3.05,2.85-5.65,4.32-8.58c-5.98-1.52-11.58-2.71-17.02-4.42
		c-3.36-1.06-5.45-0.13-7.26,2.99C238.65,85.94,245.19,89.22,252.06,92.66z M289.45,140.42c1.31-2.27,3.23-4.06,2.97-5.42
		c-1.25-6.52-3.1-12.92-4.84-19.77c-3.07,1.6-5.73,2.99-8.53,4.45C282.49,126.55,285.75,133.05,289.45,140.42z M234.74,97.39
		c2.94,13.04,0.62,10.72,11.01,10.44c0.34-1.32,0.71-2.72,1.13-4.35C242.84,101.46,238.95,99.51,234.74,97.39z"/>
	<path class="st1" d="M311.64,347.37c0-3.93,0-7.62,0-11.5c3.84,0,7.52,0,11.51,0c0,3.68,0,7.45,0,11.5
		C319.51,347.37,315.73,347.37,311.64,347.37z"/>
	<path class="st1" d="M335.75,335.75c3.91,0,7.5,0,11.38,0c0,3.84,0,7.61,0,11.65c-3.71,0-7.48,0-11.38,0
		C335.75,343.49,335.75,339.63,335.75,335.75z"/>
	<path class="st1" d="M180.04,156.15c3.85,0,7.53,0,11.45,0c0,3.9,0,7.67,0,11.64c-3.77,0-7.46,0-11.45,0
		C180.04,164.1,180.04,160.33,180.04,156.15z"/>
	<path class="st1" d="M203.85,167.71c0-3.91,0-7.59,0-11.49c3.92,0,7.69,0,11.65,0c0,3.84,0,7.52,0,11.49
		C211.74,167.71,207.96,167.71,203.85,167.71z"/>
	<path class="st1" d="M167.6,156.21c0,3.88,0,7.57,0,11.52c-3.8,0-7.58,0-11.58,0c0-3.77,0-7.54,0-11.52
		C159.8,156.21,163.49,156.21,167.6,156.21z"/>
	<path class="st1" d="M155.97,204.07c3.94,0,7.63,0,11.56,0c0,3.86,0,7.63,0,11.62c-3.83,0-7.6,0-11.56,0
		C155.97,211.85,155.97,208.16,155.97,204.07z"/>
	<path class="st1" d="M191.58,204.22c0,3.85,0,7.53,0,11.45c-3.9,0-7.67,0-11.64,0c0-3.77,0-7.46,0-11.45
		C183.63,204.22,187.41,204.22,191.58,204.22z"/>
	<path class="st1" d="M215.51,204.12c0,3.88,0,7.57,0,11.52c-3.8,0-7.58,0-11.58,0c0-3.77,0-7.54,0-11.52
		C207.71,204.12,211.39,204.12,215.51,204.12z"/>
	<path class="st1" d="M60.03,96.12c-19.75,0.03-35.95-16.13-35.98-35.87C24.03,40.5,40.17,24.31,59.92,24.28
		c19.77-0.02,35.95,16.1,35.97,35.86C95.92,79.91,79.79,96.09,60.03,96.12z M83.91,60.33c0.05-13.24-10.69-24.05-23.9-24.07
		c-13.06-0.02-23.84,10.6-23.98,23.62C35.9,73.12,46.58,84.05,59.75,84.14C72.98,84.24,83.86,73.52,83.91,60.33z"/>
	<path class="st1" d="M323.63,40.59c2.38-2.62,4.95-5.44,7.6-8.35c2.75,2.79,5.34,5.43,8.08,8.21c-2.87,2.48-5.74,4.95-8.56,7.38
		C328.7,45.76,325.96,42.97,323.63,40.59z"/>
	<path class="st1" d="M322.27,57.24c-2.88,2.9-5.48,5.53-8.18,8.25c-2.6-2.61-5.27-5.29-8.07-8.1c2.8-2.71,5.52-5.35,8.31-8.06
		C316.98,51.97,319.68,54.66,322.27,57.24z"/>
	<path class="st1" d="M289.65,73.86c2.53-2.46,5.02-4.88,7.55-7.34c2.36,2.64,4.89,5.47,7.42,8.31c-1.94,1.83-4.59,4.34-7.37,6.97
		C295,79.44,292.44,76.76,289.65,73.86z"/>
	<path class="st1" d="M72.17,287.95c3.81,0,7.5,0,11.47,0c0,3.73,0,7.51,0,11.54c-3.7,0-7.48,0-11.47,0
		C72.17,295.68,72.17,291.91,72.17,287.95z"/>
	<path class="st1" d="M107.81,288c0,3.93,0,7.53,0,11.43c-3.8,0-7.57,0-11.63,0c0-3.64,0-7.41,0-11.43
		C99.92,288,103.69,288,107.81,288z"/>
	<path class="st1" d="M120.09,287.83c3.96,0,7.56,0,11.45,0c0,3.83,0,7.6,0,11.65c-3.67,0-7.44,0-11.45,0
		C120.09,295.7,120.09,291.93,120.09,287.83z"/>
</g>
</svg>
