<?xml version="1.0" encoding="utf-8"?>
<!-- Generator: Adobe Illustrator 24.0.2, SVG Export Plug-In . SVG Version: 6.00 Build 0)  -->
<svg version="1.1" id="Capa_1" xmlns="http://www.w3.org/2000/svg" xmlns:xlink="http://www.w3.org/1999/xlink" x="0px" y="0px"
	 viewBox="0 0 449.48 369.48" style="enable-background:new 0 0 449.48 369.48;" xml:space="preserve">
<style type="text/css">
	.st0{fill-rule:evenodd;clip-rule:evenodd;}
	.st1{fill:#FFFFFF;}
	.st2{fill:#DDA223;}
	.st3{fill:#274885;}
</style>
<g>
	<path d="M0,208.46c1.94-12.87,9.82-21.97,18.68-30.78C68,128.6,117.01,79.23,166.38,30.21c18.19-18.06,40.7-27.36,66.12-29.77
		c0.71-0.07,1.43-0.01,3.25-0.01c-1.82,1.89-3.04,3.2-4.3,4.46C166.96,69.38,102.46,133.86,37.97,198.35
		c-1.14,1.14-2.28,2.27-3.41,3.41c-7.62,7.69-7.67,14.8-0.07,22.4c30.06,30.08,60.15,60.15,90.23,90.22
		c15.5,15.5,31,31.01,46.53,46.49c1.12,1.12,2.49,1.99,4.38,3.49c-11.19,5.78-21.81,6.71-32.19,2.6
		c-6.06-2.4-12.03-6.25-16.67-10.84c-38.05-37.6-75.75-75.55-113.63-113.33C5.97,235.63,1.78,227.08,0,217.23
		C0,214.3,0,211.38,0,208.46z"/>
	<path d="M359.52,0.42c17.39,0,34.82-0.69,52.17,0.18c21.54,1.08,37.08,17.66,37.34,39.44c0.39,31.43,0.84,62.88-0.16,94.28
		c-0.83,26.15-10.8,49.44-29.27,68.11c-51,51.54-102.42,102.67-153.74,153.89c-17.43,17.4-41.51,17.62-58.97,0.27
		c-38.17-37.91-76.19-75.97-114.13-114.11c-17.35-17.45-17.27-41.58,0.08-58.98c51.32-51.43,102.49-103.01,154.23-154.02
		c19.59-19.31,44.11-28.65,71.66-29.31c13.59-0.33,27.19-0.06,40.79-0.06C359.52,0.21,359.52,0.32,359.52,0.42z M395.78,93.23
		c-0.03-21.94-18.19-40.09-39.91-39.9c-21.88,0.19-40.17,18.66-39.78,40.16c0.4,21.95,18.08,39.53,39.81,39.59
		C377.87,133.13,395.81,115.21,395.78,93.23z"/>
</g>
</svg>
