<?xml version="1.0" encoding="utf-8"?>
<!-- Generator: Adobe Illustrator 24.0.2, SVG Export Plug-In . SVG Version: 6.00 Build 0)  -->
<svg version="1.1" id="Capa_1" xmlns="http://www.w3.org/2000/svg" xmlns:xlink="http://www.w3.org/1999/xlink" x="0px" y="0px"
	 viewBox="0 0 476.59 476.47" style="enable-background:new 0 0 476.59 476.47;" xml:space="preserve">
<style type="text/css">
	.st0{fill-rule:evenodd;clip-rule:evenodd;}
	.st1{fill:#FFFFFF;}
	.st2{fill:#DDA223;}
	.st3{fill:#274885;}
</style>
<g>
	<path d="M0,238.22C0.1,106.73,106.39,0.44,238.2,0c131.14-0.43,238.77,107.25,238.39,238.53
		c-0.37,131.59-107.06,238.05-238.46,237.94C106.69,476.36-0.1,369.52,0,238.22z M238.57,129.26c-44.31,0-88.63-0.01-132.94,0.01
		c-10.57,0-14.85,4.3-14.86,14.82c0,62.64,0,125.27,0.02,187.91c0,11,4.38,15.33,15.5,15.33c87.96,0.01,175.92,0.01,263.88,0
		c11.3,0,15.66-4.42,15.66-15.75c0-62.14,0-124.28,0-186.42c0-11.97-3.87-15.89-15.83-15.9
		C326.2,129.25,282.38,129.26,238.57,129.26z"/>
	<path d="M343.58,154.01c-1.16,1.29-1.96,2.28-2.85,3.17c-32.45,32.55-64.91,65.1-97.38,97.63c-4.21,4.22-5.95,4.32-9.96,0.3
		c-33.05-33.13-66.06-66.3-99.08-99.47c-0.35-0.35-0.61-0.78-1.27-1.64C203.3,154.01,273.16,154.01,343.58,154.01z"/>
	<path d="M346.29,322.57c-72.37,0-143.56,0-215.96,0c21.6-24.37,42.6-48.07,64.11-72.34c7.03,7.13,13.86,14.09,20.71,21.02
		c15.02,15.18,31.05,15.21,46.16,0.13c6.93-6.92,13.89-13.82,21.01-20.9C303.51,274.36,324.5,298.01,346.29,322.57z"/>
	<path d="M361.3,173.3c0,42.03,0,85.02,0,129.42c-20.96-23.61-41.18-46.39-61.12-68.86C320.79,213.44,341.22,193.2,361.3,173.3z"/>
	<path d="M115.4,172.81c20.17,20.07,40.51,40.3,61.16,60.84c-19.9,22.44-40.17,45.3-61.16,68.96
		C115.4,258.44,115.4,215.37,115.4,172.81z"/>
</g>
</svg>
