<?xml version="1.0" encoding="utf-8"?>
<!-- Generator: Adobe Illustrator 24.0.2, SVG Export Plug-In . SVG Version: 6.00 Build 0)  -->
<svg version="1.1" id="Capa_1" xmlns="http://www.w3.org/2000/svg" xmlns:xlink="http://www.w3.org/1999/xlink" x="0px" y="0px"
	 viewBox="0 0 352.02 352.04" style="enable-background:new 0 0 352.02 352.04;" xml:space="preserve">
<style type="text/css">
	.st0{fill:#274885;}
	.st1{fill:#FFFFFF;}
	.st2{fill-rule:evenodd;clip-rule:evenodd;fill:#FFFFFF;}
	.st3{fill:#DDA223;}
	.st4{fill:#FBFBFB;}
	.st5{fill:#274886;}
	.st6{fill:#5473B3;}
</style>
<g>
	<path class="st1" d="M164.32,0c7.79,0,15.58,0,23.38,0c0.99,0.22,1.97,0.52,2.97,0.66c6.22,0.85,12.52,1.35,18.67,2.55
		c37.57,7.34,69.65,24.92,95.49,53.12c37.39,40.82,52.74,89.15,45.43,143.92c-6.22,46.65-28.57,84.88-65.56,113.98
		c-39.08,30.75-83.77,42.57-133,36.09c-34.57-4.56-65.13-18.7-91.31-41.76C28.29,280.28,8.73,244.94,2.04,202.6
		c-0.78-4.95-1.37-9.93-2.04-14.9c0-7.79,0-15.58,0-23.38c0.53-4.18,0.98-8.36,1.59-12.53c5.05-34.6,18.82-65.29,41.96-91.52
		C71.83,28.23,107.14,8.7,149.45,2.04C154.39,1.26,159.36,0.68,164.32,0z M76.19,176.02c-0.05,0-0.11,0-0.16,0
		c0,19.71-0.14,39.41,0.1,59.11c0.06,4.96,0.61,10.14,2.14,14.82c5.39,16.39,19.63,26.01,37.94,26.06
		c27.15,0.08,54.3,0.04,81.46,0.01c14.32-0.02,28.65,0.21,42.95-0.29c18.39-0.64,34.72-16.97,35.11-35.45
		c0.48-22.9,0.25-45.82,0.26-68.73c0-19.93,0.23-39.87-0.25-59.8c-0.45-18.61-16.84-35.06-35.46-35.45
		c-23.25-0.49-46.51-0.26-69.76-0.27c-19.59,0-39.19-0.23-58.76,0.26c-18.62,0.46-35.06,16.85-35.45,35.45
		C75.84,133.17,76.19,154.6,76.19,176.02z"/>
	<path class="st1" d="M256.46,155.63c0.05,1.24,0.14,2.25,0.14,3.26c0.01,25.54,0.03,51.08-0.01,76.62
		c-0.02,10.8-5.23,18.11-14.64,20.5c-1.96,0.5-4.08,0.56-6.12,0.57c-39.86,0.03-79.71,0.05-119.57,0.01
		c-10.64-0.01-17.78-5.17-20.22-14.53c-0.48-1.85-0.62-3.84-0.62-5.77c-0.04-26.23-0.03-52.45-0.02-78.68c0-0.57,0.1-1.13,0.17-1.94
		c9.8,0,19.56,0,29.32,0c-8.01,26.74-2.33,49.32,20.91,65.72c18.2,12.83,42.97,12.28,60.99-0.22c10.52-7.29,17.81-17.04,21.5-29.31
		c3.63-12.09,2.99-24.13-1.52-36.22C236.74,155.63,246.39,155.63,256.46,155.63z"/>
	<path class="st1" d="M140.82,176c0.25-19.8,15.97-35.39,35.47-35.18c19.62,0.21,35.07,16.01,34.92,35.72
		c-0.15,19.23-16.41,35.05-35.63,34.68C156.2,210.83,140.58,195,140.82,176z"/>
	<path class="st1" d="M219.19,99.15c11.2,0,22.26,0,33.56,0c0,11.18,0,22.31,0,33.71c-11.18,0-22.21,0-33.56,0
		C219.19,121.68,219.19,110.63,219.19,99.15z"/>
</g>
</svg>
