<?xml version="1.0" encoding="utf-8"?>
<!-- Generator: Adobe Illustrator 24.0.2, SVG Export Plug-In . SVG Version: 6.00 Build 0)  -->
<svg version="1.1" id="Capa_1" xmlns="http://www.w3.org/2000/svg" xmlns:xlink="http://www.w3.org/1999/xlink" x="0px" y="0px"
	 viewBox="0 0 352.23 352.14" style="enable-background:new 0 0 352.23 352.14;" xml:space="preserve">
<style type="text/css">
	.st0{fill:#274885;}
	.st1{fill:#FFFFFF;}
	.st2{fill-rule:evenodd;clip-rule:evenodd;fill:#FFFFFF;}
	.st3{fill:#DDA223;}
	.st4{fill:#FBFBFB;}
	.st5{fill:#274886;}
	.st6{fill:#5473B3;}
</style>
<g>
	<path class="st1" d="M0,176.12C0,78.88,79.48-0.49,176.35,0c97.49,0.5,176.06,79.22,175.88,176.23
		c-0.18,97.19-79.06,175.95-176.17,175.91C78.92,352.1,0,273.2,0,176.12z M176.25,95.53c-32.75,0-65.5-0.01-98.25,0.01
		c-7.79,0-10.92,3.18-10.92,11.01c0,46.29,0,92.59,0.01,138.88c0,7.96,3.24,11.26,11.15,11.26c65.25,0.01,130.51,0.01,195.76,0
		c7.83,0,11.14-3.41,11.14-11.33c0.01-46.05,0.01-92.09,0-138.14c0-8.8-2.88-11.68-11.76-11.69
		C241.02,95.52,208.64,95.53,176.25,95.53z"/>
	<path class="st1" d="M98.08,113.62c52.25,0,103.78,0,155.89,0c-0.9,1.07-1.5,1.9-2.21,2.61c-23.89,23.97-47.79,47.94-71.7,71.9
		c-3.41,3.41-4.55,3.45-7.89,0.1c-24.16-24.23-48.3-48.48-72.44-72.73C99.31,115.08,98.93,114.6,98.08,113.62z"/>
	<path class="st1" d="M96.46,238.23c15.9-17.94,31.39-35.4,47.25-53.3c5.19,5.27,10.24,10.42,15.31,15.54
		c11.1,11.22,22.94,11.24,34.11,0.09c5.12-5.11,10.26-10.21,15.52-15.44c15.66,17.65,31.17,35.13,47.13,53.11
		C202.54,238.23,149.88,238.23,96.46,238.23z"/>
	<path class="st1" d="M267.11,127.45c0,31.74,0,63.45,0,96.37c-15.6-17.58-30.6-34.47-45.52-51.27
		C236.84,157.44,251.91,142.51,267.11,127.45z"/>
	<path class="st1" d="M130.4,172.78c-14.73,16.6-29.65,33.42-45.09,50.83c0-32.59,0-64.42,0-95.69
		C100.08,142.61,115.1,157.55,130.4,172.78z"/>
</g>
</svg>
