<?xml version="1.0" encoding="utf-8"?>
<!-- Generator: Adobe Illustrator 24.0.2, SVG Export Plug-In . SVG Version: 6.00 Build 0)  -->
<svg version="1.1" id="Capa_1" xmlns="http://www.w3.org/2000/svg" xmlns:xlink="http://www.w3.org/1999/xlink" x="0px" y="0px"
	 viewBox="0 0 384 384" style="enable-background:new 0 0 384 384;" xml:space="preserve">
<style type="text/css">
	.st0{fill:#274885;}
	.st1{fill:#FFFFFF;}
	.st2{fill-rule:evenodd;clip-rule:evenodd;fill:#FFFFFF;}
	.st3{fill:#DDA223;}
	.st4{fill:#FBFBFB;}
	.st5{fill:#274886;}
	.st6{fill:#5473B3;}
</style>
<g>
	<g>
		<path class="st0" d="M180,0c8,0,16,0,24,0c0.96,0.21,1.91,0.54,2.89,0.61c28.84,2.17,55.95,10.23,80.79,25.01
			c51.06,30.37,82.37,74.79,93.37,133.29c1.31,6.97,1.98,14.05,2.95,21.09c0,8,0,16,0,24c-0.21,0.97-0.55,1.92-0.62,2.9
			c-2.54,33.05-12.77,63.55-31.33,90.98c-30.59,45.23-72.83,73.1-126.61,83.14c-7.08,1.32-14.29,2-21.44,2.98c-8,0-16,0-24,0
			c-4.69-0.58-9.38-1.07-14.06-1.74c-38.21-5.47-72.02-20.7-100.89-46.36c-33.34-29.63-54.16-66.47-62.07-110.44
			c-1.28-7.1-2-14.3-2.98-21.46c0-8,0-16,0-24c0.3-2.46,0.64-4.92,0.91-7.38c4.44-40.67,19.82-76.63,46.95-107.29
			C77.69,31.61,114.85,10.65,159.3,2.9C166.16,1.7,173.1,0.95,180,0z M142.28,179.42c5.63-2.72,11.02-5.3,16.39-7.91
			c7.89-3.85,10.23-10,6.52-17.89c-8.46-18.03-12.67-36.99-12.91-56.88c-0.1-7.94-5.02-12.71-13.03-12.73
			c-14-0.03-27.99-0.03-41.99,0c-8.43,0.02-13.76,4.9-13.13,13.26c1.03,13.67,1.76,27.49,4.47,40.87
			C107.45,231.33,192.05,300.16,286.87,300c8.15-0.01,13.09-4.89,13.11-13.05c0.03-14,0.03-27.99,0-41.99
			c-0.02-8.27-4.73-13.12-12.91-13.24c-19.63-0.27-38.35-4.4-56.17-12.69c-8.63-4.01-14.47-1.78-18.64,6.82
			c-2.54,5.23-5.08,10.47-7.71,15.86C178.16,226.29,157.59,205.74,142.28,179.42z"/>
	</g>
</g>
</svg>
