<?xml version="1.0" encoding="utf-8"?>
<!-- Generator: Adobe Illustrator 24.0.2, SVG Export Plug-In . SVG Version: 6.00 Build 0)  -->
<svg version="1.1" id="Capa_1" xmlns="http://www.w3.org/2000/svg" xmlns:xlink="http://www.w3.org/1999/xlink" x="0px" y="0px"
	 viewBox="0 0 609.99 609.94" style="enable-background:new 0 0 609.99 609.94;" xml:space="preserve">
<style type="text/css">
	.st0{fill-rule:evenodd;clip-rule:evenodd;}
	.st1{fill:#FFFFFF;}
	.st2{fill:#DDA223;}
	.st3{fill:#274885;}
</style>
<g>
	<path d="M0,305.18C-0.13,136.93,136.44,0.19,304.8,0c168.21-0.19,304.91,136.32,305.19,304.78
		c0.28,168.09-136.44,304.97-304.8,305.16C136.98,610.14,0.13,473.48,0,305.18z M305.1,558.97
		c140.1-0.11,253.64-113.57,253.86-253.7C559.19,165.2,445.31,51.12,305.13,50.98C165.1,50.84,51.01,164.86,51,304.99
		C50.99,445.17,164.95,559.07,305.1,558.97z"/>
	<path d="M254.79,305.49c0-29.98,0.04-59.97-0.04-89.95c-0.01-5.44,1.14-10.23,5.47-13.85c5.81-4.85,13.01-4.78,20.19,0.42
		c19.7,14.24,39.36,28.55,59.02,42.84c21.15,15.37,42.28,30.76,63.42,46.13c12.2,8.87,12.22,19.69-0.1,28.65
		c-40.66,29.58-81.38,59.1-122.05,88.67c-5.53,4.02-11.46,5.62-17.75,2.39c-6.09-3.13-8.25-8.59-8.22-15.35
		C254.86,365.46,254.79,335.48,254.79,305.49z"/>
</g>
</svg>
