<?xml version="1.0" encoding="utf-8"?>
<!-- Generator: Adobe Illustrator 24.0.2, SVG Export Plug-In . SVG Version: 6.00 Build 0)  -->
<svg version="1.1" id="Capa_1" xmlns="http://www.w3.org/2000/svg" xmlns:xlink="http://www.w3.org/1999/xlink" x="0px" y="0px"
	 viewBox="0 0 273.98 273.98" style="enable-background:new 0 0 273.98 273.98;" xml:space="preserve">
<style type="text/css">
	.st0{fill-rule:evenodd;clip-rule:evenodd;}
	.st1{fill:#FFFFFF;}
	.st2{fill:#DDA223;}
	.st3{fill:#274885;}
</style>
<g>
	<circle class="st1" cx="136.99" cy="136.99" r="136.99"/>
	<path class="st2" d="M225.31,125.37h-76.7v-76.7c0-6.42-5.2-11.62-11.62-11.62c-6.42,0-11.62,5.2-11.62,11.62v76.7h-76.7
		c-6.42,0-11.62,5.2-11.62,11.62c0,6.42,5.2,11.62,11.62,11.62h76.7v76.7c0,6.42,5.2,11.62,11.62,11.62
		c6.42,0,11.62-5.2,11.62-11.62v-76.7h76.7c6.42,0,11.62-5.2,11.62-11.62C236.93,130.57,231.73,125.37,225.31,125.37z"/>
</g>
</svg>
