<?xml version="1.0" encoding="utf-8"?>
<!-- Generator: Adobe Illustrator 24.0.2, SVG Export Plug-In . SVG Version: 6.00 Build 0)  -->
<svg version="1.1" id="Capa_1" xmlns="http://www.w3.org/2000/svg" xmlns:xlink="http://www.w3.org/1999/xlink" x="0px" y="0px"
	 viewBox="0 0 281.74 281.74" style="enable-background:new 0 0 281.74 281.74;" xml:space="preserve">
<style type="text/css">
	.st0{fill-rule:evenodd;clip-rule:evenodd;}
	.st1{fill:#FFFFFF;}
	.st2{fill:#DDA223;}
	.st3{fill:#274885;}
</style>
<g>
	<circle class="st2" cx="140.87" cy="140.87" r="140.87"/>
	<path class="st1" d="M216.43,130.92h-65.62V65.3c0-5.49-4.45-9.94-9.94-9.94c-5.49,0-9.94,4.45-9.94,9.94v65.62H65.3
		c-5.49,0-9.94,4.45-9.94,9.94c0,5.49,4.45,9.94,9.94,9.94h65.62v65.62c0,5.49,4.45,9.94,9.94,9.94c5.49,0,9.94-4.45,9.94-9.94
		v-65.62h65.62c5.49,0,9.94-4.45,9.94-9.94C226.38,135.38,221.93,130.92,216.43,130.92z"/>
</g>
</svg>
