<?xml version="1.0" encoding="utf-8"?>
<!-- Generator: Adobe Illustrator 24.0.2, SVG Export Plug-In . SVG Version: 6.00 Build 0)  -->
<svg version="1.1" id="Capa_1" xmlns="http://www.w3.org/2000/svg" xmlns:xlink="http://www.w3.org/1999/xlink" x="0px" y="0px"
	 viewBox="0 0 610.37 610.46" style="enable-background:new 0 0 610.37 610.46;" xml:space="preserve">
<style type="text/css">
	.st0{fill:#274885;}
	.st1{fill:#FFFFFF;}
	.st2{fill-rule:evenodd;clip-rule:evenodd;fill:#FFFFFF;}
	.st3{fill:#DDA223;}
	.st4{fill:#FBFBFB;}
	.st5{fill:#274886;}
	.st6{fill:#5473B3;}
</style>
<path class="st1" d="M471.13,405.27c14.52,14.44,28.96,28.73,43.34,43.09c27.13,27.09,54.27,54.16,81.3,81.34
	c16.38,16.47,19.16,39.23,7.4,58.61c-11.21,18.47-33.79,26.6-54.96,19.75c-7.83-2.53-13.97-7.59-19.68-13.29
	c-39.87-39.8-79.74-79.6-119.62-119.39c-1.29-1.29-2.65-2.51-4.14-3.92c-65.63,43.63-136.88,56.39-212.84,36.28
	c-61.4-16.26-111.38-50.5-146.9-103.82C-29.28,292.34-8.17,153.35,82.97,69.34c92.64-85.4,228.65-93.32,332.06-15.96
	c54.99,41.14,86.4,97.32,98.2,164.53C520.89,261.54,519.05,336.46,471.13,405.27z M422.6,259.07c1.7-89-74.33-164.5-163.33-164.97
	c-89.02-0.47-164.91,74.49-165.32,163.8c-0.41,88.52,74.07,164.86,163.91,165.22C346.22,423.47,423.72,349.17,422.6,259.07z"/>
</svg>
